<?xml version="1.0" encoding="utf-8" standalone="no"?>
<!DOCTYPE svg PUBLIC "-//W3C//DTD SVG 1.1//EN"
  "http://www.w3.org/Graphics/SVG/1.1/DTD/svg11.dtd">
<svg xmlns:xlink="http://www.w3.org/1999/xlink" width="605.88pt" height="347.04pt" viewBox="0 0 605.88 347.04" xmlns="http://www.w3.org/2000/svg" version="1.1">
 <metadata>
  <rdf:RDF xmlns:dc="http://purl.org/dc/elements/1.1/" xmlns:cc="http://creativecommons.org/ns#" xmlns:rdf="http://www.w3.org/1999/02/22-rdf-syntax-ns#">
   <cc:Work>
    <dc:type rdf:resource="http://purl.org/dc/dcmitype/StillImage"/>
    <dc:date>2026-06-26T00:01:50.014988</dc:date>
    <dc:format>image/svg+xml</dc:format>
    <dc:creator>
     <cc:Agent>
      <dc:title>Matplotlib v3.11.0, https://matplotlib.org/</dc:title>
     </cc:Agent>
    </dc:creator>
   </cc:Work>
  </rdf:RDF>
 </metadata>
 <defs>
  <style type="text/css">*{stroke-linejoin: round; stroke-linecap: butt}</style>
 </defs>
 <g id="figure_1">
  <g id="patch_1">
   <path d="M 0 347.04 
L 605.88 347.04 
L 605.88 -0 
L 0 -0 
L 0 347.04 
z
" style="fill: none"/>
  </g>
  <g id="axes_1">
   <g id="patch_2">
    <path d="M 131.630557 128.16 
Q 136.738764 128.16 139.610902 128.16 
" clip-path="url(#pf9873f6324)" style="fill: none; stroke: #414f69; stroke-width: 2; stroke-linecap: round"/>
    <path d="M 131.610902 124.16 
L 139.610902 128.16 
L 131.610902 132.16 
z
" clip-path="url(#pf9873f6324)" style="fill: #414f69; stroke: #414f69; stroke-width: 2; stroke-linecap: round"/>
   </g>
   <g id="patch_3">
    <path d="M 288.05502 128.16 
Q 293.163227 128.16 296.035365 128.16 
" clip-path="url(#pf9873f6324)" style="fill: none; stroke: #414f69; stroke-width: 2; stroke-linecap: round"/>
    <path d="M 288.035365 124.16 
L 296.035365 128.16 
L 288.035365 132.16 
z
" clip-path="url(#pf9873f6324)" style="fill: #414f69; stroke: #414f69; stroke-width: 2; stroke-linecap: round"/>
   </g>
   <g id="patch_4">
    <path d="M 429.588983 137.991138 
Q 438.589788 150.840642 446.307704 161.8587 
" clip-path="url(#pf9873f6324)" style="fill: none; stroke: #414f69; stroke-width: 2; stroke-linecap: round"/>
    <path d="M 444.994091 153.011416 
L 446.307704 161.8587 
L 438.44171 157.60122 
z
" clip-path="url(#pf9873f6324)" style="fill: #414f69; stroke: #414f69; stroke-width: 2; stroke-linecap: round"/>
   </g>
   <g id="patch_5">
    <path d="M 429.588983 275.576862 
Q 438.589788 262.727358 446.307704 251.7093 
" clip-path="url(#pf9873f6324)" style="fill: none; stroke: #414f69; stroke-width: 2; stroke-linecap: round"/>
    <path d="M 438.44171 255.96678 
L 446.307704 251.7093 
L 444.994091 260.556584 
z
" clip-path="url(#pf9873f6324)" style="fill: #414f69; stroke: #414f69; stroke-width: 2; stroke-linecap: round"/>
   </g>
   <g id="patch_6">
    <path d="M 515.579504 258.096762 
Q 515.579504 261.216046 515.579504 262.099261 
" clip-path="url(#pf9873f6324)" style="fill: none; stroke: #414f69; stroke-width: 2; stroke-linecap: round"/>
    <path d="M 519.579504 254.099261 
L 515.579504 262.099261 
L 511.579504 254.099261 
z
" clip-path="url(#pf9873f6324)" style="fill: #414f69; stroke: #414f69; stroke-width: 2; stroke-linecap: round"/>
   </g>
   <g id="patch_7">
    <path d="M 506.038841 170.473136 
Q 341.809782 219.847632 223.731158 99.209554 
" clip-path="url(#pf9873f6324)" style="fill: none; stroke-dasharray: 14.4,7.2; stroke-dashoffset: 0; stroke: #dc4c4c; stroke-width: 2.4; stroke-linecap: round"/>
    <path d="M 226.742181 108.576184 
L 223.731158 99.209554 
L 233.031075 102.420714 
z
" clip-path="url(#pf9873f6324)" style="fill: #dc4c4c; stroke-dasharray: 14.4,7.2; stroke-dashoffset: 0; stroke: #dc4c4c; stroke-width: 2.4; stroke-linecap: round"/>
   </g>
   <g id="patch_8">
    <path d="M 18.931835 161.1216 
L 117.674777 161.1216 
Q 120.607736 161.1216 120.607736 157.4928 
L 120.607736 98.8272 
Q 120.607736 95.1984 117.674777 95.1984 
L 18.931835 95.1984 
Q 15.998876 95.1984 15.998876 98.8272 
L 15.998876 157.4928 
Q 15.998876 161.1216 18.931835 161.1216 
z
" clip-path="url(#pf9873f6324)" style="fill: #8fd2e9; stroke: #002060; stroke-width: 1.8; stroke-linejoin: miter"/>
   </g>
   <g id="patch_9">
    <path d="M 155.80324 167.1696 
L 274.09924 167.1696 
Q 277.032198 167.1696 277.032198 163.5408 
L 277.032198 92.7792 
Q 277.032198 89.1504 274.09924 89.1504 
L 155.80324 89.1504 
Q 152.870281 89.1504 152.870281 92.7792 
L 152.870281 163.5408 
Q 152.870281 167.1696 155.80324 167.1696 
z
" clip-path="url(#pf9873f6324)" style="fill: #00adcf; stroke: #002060; stroke-width: 1.8; stroke-linejoin: miter"/>
   </g>
   <g id="patch_10">
    <path d="M 312.227702 161.1216 
L 420.747174 161.1216 
Q 423.680132 161.1216 423.680132 157.4928 
L 423.680132 98.8272 
Q 423.680132 95.1984 420.747174 95.1984 
L 312.227702 95.1984 
Q 309.294744 95.1984 309.294744 98.8272 
L 309.294744 157.4928 
Q 309.294744 161.1216 312.227702 161.1216 
z
" clip-path="url(#pf9873f6324)" style="fill: #dbe7f0; stroke: #002060; stroke-width: 1.8; stroke-linejoin: miter"/>
   </g>
   <g id="patch_11">
    <path d="M 312.227702 318.3696 
L 420.747174 318.3696 
Q 423.680132 318.3696 423.680132 314.7408 
L 423.680132 256.0752 
Q 423.680132 252.4464 420.747174 252.4464 
L 312.227702 252.4464 
Q 309.294744 252.4464 309.294744 256.0752 
L 309.294744 314.7408 
Q 309.294744 318.3696 312.227702 318.3696 
z
" clip-path="url(#pf9873f6324)" style="fill: #8fd2e9; stroke: #002060; stroke-width: 1.8; stroke-linejoin: miter"/>
   </g>
   <g id="patch_12">
    <path d="M 444.210843 247.3056 
L 586.948165 247.3056 
Q 589.881124 247.3056 589.881124 243.6768 
L 589.881124 169.8912 
Q 589.881124 166.2624 586.948165 166.2624 
L 444.210843 166.2624 
Q 441.277884 166.2624 441.277884 169.8912 
L 441.277884 243.6768 
Q 441.277884 247.3056 444.210843 247.3056 
z
" clip-path="url(#pf9873f6324)" style="fill: #002060; stroke: #002060; stroke-width: 1.8; stroke-linejoin: miter"/>
   </g>
   <g id="text_1">
    <text style="font-style: italic; font-weight: 700; font-size: 17px; font-family: 'DejaVu Sans'; text-anchor: middle; fill: #002060" x="515.579504" y="304.94468" transform="rotate(-0 515.579504 304.94468)">vero o finto?</text>
   </g>
   <g id="text_2">
    <text style="font-style: italic; font-weight: 700; font-size: 16px; font-family: 'DejaVu Sans'; text-anchor: middle; fill: #dc4c4c" x="344.490248" y="36.758475" transform="rotate(-0 344.490248 36.758475)">errore: aggiorna il generatore</text>
   </g>
   <g id="text_3">
    <text style="font-weight: 700; font-size: 18px; font-family: 'DejaVu Sans'; text-anchor: middle; fill: #002060" x="68.303306" y="132.835781" transform="rotate(-0 68.303306 132.835781)">Rumore</text>
   </g>
   <g id="text_4">
    <text style="font-weight: 700; font-size: 19px; font-family: 'DejaVu Sans'; text-anchor: middle; fill: #002060" x="214.95124" y="133.095547" transform="rotate(-0 214.95124 133.095547)">Generatore</text>
   </g>
   <g id="text_5">
    <text style="font-weight: 700; font-size: 18px; font-family: 'DejaVu Sans'; text-anchor: middle; fill: #002060" x="366.487438" y="132.836484" transform="rotate(-0 366.487438 132.836484)">Dato finto</text>
   </g>
   <g id="text_6">
    <text style="font-weight: 700; font-size: 18px; font-family: 'DejaVu Sans'; text-anchor: middle; fill: #002060" x="366.487438" y="290.084484" transform="rotate(-0 366.487438 290.084484)">Dati reali</text>
   </g>
   <g id="text_7">
    <text style="font-weight: 700; font-size: 19px; font-family: 'DejaVu Sans'; text-anchor: middle; fill: #ffffff" x="515.579504" y="211.720289" transform="rotate(-0 515.579504 211.720289)">Discriminatore</text>
   </g>
  </g>
 </g>
 <defs>
  <clipPath id="pf9873f6324">
   <rect x="7.2" y="7.2" width="591.48" height="332.64"/>
  </clipPath>
 </defs>
</svg>
