<?xml version="1.0" encoding="utf-8" standalone="no"?>
<!DOCTYPE svg PUBLIC "-//W3C//DTD SVG 1.1//EN"
  "http://www.w3.org/Graphics/SVG/1.1/DTD/svg11.dtd">
<svg xmlns:xlink="http://www.w3.org/1999/xlink" width="427.32pt" height="446.653112pt" viewBox="0 0 427.32 446.653112" xmlns="http://www.w3.org/2000/svg" version="1.1">
 <metadata>
  <rdf:RDF xmlns:dc="http://purl.org/dc/elements/1.1/" xmlns:cc="http://creativecommons.org/ns#" xmlns:rdf="http://www.w3.org/1999/02/22-rdf-syntax-ns#">
   <cc:Work>
    <dc:type rdf:resource="http://purl.org/dc/dcmitype/StillImage"/>
    <dc:date>2026-06-25T09:42:52.158283</dc:date>
    <dc:format>image/svg+xml</dc:format>
    <dc:creator>
     <cc:Agent>
      <dc:title>Matplotlib v3.10.0, https://matplotlib.org/</dc:title>
     </cc:Agent>
    </dc:creator>
   </cc:Work>
  </rdf:RDF>
 </metadata>
 <defs>
  <style type="text/css">*{stroke-linejoin: round; stroke-linecap: butt}</style>
 </defs>
 <g id="figure_1">
  <g id="patch_1">
   <path d="M 0 446.653112 
L 427.32 446.653112 
L 427.32 0 
L 0 0 
L 0 446.653112 
z
" style="fill: none"/>
  </g>
  <g id="axes_1">
   <g id="patch_2">
    <path d="M 101.045455 205.160281 
C 124.748412 205.160281 147.483749 195.742996 164.244271 178.982474 
C 181.004793 162.221952 190.422078 139.486615 190.422078 115.783658 
C 190.422078 92.0807 181.004793 69.345363 164.244271 52.584841 
C 147.483749 35.824319 124.748412 26.407034 101.045455 26.407034 
C 77.342497 26.407034 54.60716 35.824319 37.846638 52.584841 
C 21.086116 69.345363 11.668831 92.0807 11.668831 115.783658 
C 11.668831 139.486615 21.086116 162.221952 37.846638 178.982474 
C 54.60716 195.742996 77.342497 205.160281 101.045455 205.160281 
z
" clip-path="url(#pd9785835f7)" style="fill: #8fd2e9; stroke: #ffffff; stroke-width: 1.2; stroke-linejoin: miter"/>
   </g>
   <g id="patch_3">
    <path d="M 101.045455 174.772229 
C 116.689407 174.772229 131.694729 168.556821 142.756673 157.494877 
C 153.818618 146.432932 160.034026 131.42761 160.034026 115.783658 
C 160.034026 100.139706 153.818618 85.134383 142.756673 74.072439 
C 131.694729 63.010494 116.689407 56.795086 101.045455 56.795086 
C 85.401503 56.795086 70.39618 63.010494 59.334236 74.072439 
C 48.272291 85.134383 42.056883 100.139706 42.056883 115.783658 
C 42.056883 131.42761 48.272291 146.432932 59.334236 157.494877 
C 70.39618 168.556821 85.401503 174.772229 101.045455 174.772229 
z
" clip-path="url(#pd9785835f7)" style="fill: #cfe7f2; stroke: #ffffff; stroke-width: 1.2; stroke-linejoin: miter"/>
   </g>
   <g id="patch_4">
    <path d="M 101.045455 145.277943 
C 108.867431 145.277943 116.370092 142.170239 121.901064 136.639267 
C 127.432036 131.108295 130.53974 123.605634 130.53974 115.783658 
C 130.53974 107.961682 127.432036 100.459021 121.901064 94.928048 
C 116.370092 89.397076 108.867431 86.289372 101.045455 86.289372 
C 93.223479 86.289372 85.720817 89.397076 80.189845 94.928048 
C 74.658873 100.459021 71.551169 107.961682 71.551169 115.783658 
C 71.551169 123.605634 74.658873 131.108295 80.189845 136.639267 
C 85.720817 142.170239 93.223479 145.277943 101.045455 145.277943 
z
" clip-path="url(#pd9785835f7)" style="fill: #00adcf; stroke: #ffffff; stroke-width: 1.2; stroke-linejoin: miter"/>
   </g>
   <g id="patch_5">
    <path d="M 101.045455 124.72132 
C 103.41575 124.72132 105.689284 123.779592 107.365336 122.103539 
C 109.041388 120.427487 109.983117 118.153953 109.983117 115.783658 
C 109.983117 113.413362 109.041388 111.139828 107.365336 109.463776 
C 105.689284 107.787724 103.41575 106.845995 101.045455 106.845995 
C 98.675159 106.845995 96.401625 107.787724 94.725573 109.463776 
C 93.049521 111.139828 92.107792 113.413362 92.107792 115.783658 
C 92.107792 118.153953 93.049521 120.427487 94.725573 122.103539 
C 96.401625 123.779592 98.675159 124.72132 101.045455 124.72132 
z
" clip-path="url(#pd9785835f7)" style="fill: #002060"/>
   </g>
   <g id="PathCollection_1">
    <defs>
     <path id="m7f7ef6ca8d" d="M 0 2.915476 
C 0.773193 2.915476 1.514823 2.608283 2.061553 2.061553 
C 2.608283 1.514823 2.915476 0.773193 2.915476 0 
C 2.915476 -0.773193 2.608283 -1.514823 2.061553 -2.061553 
C 1.514823 -2.608283 0.773193 -2.915476 0 -2.915476 
C -0.773193 -2.915476 -1.514823 -2.608283 -2.061553 -2.061553 
C -2.608283 -1.514823 -2.915476 -0.773193 -2.915476 0 
C -2.915476 0.773193 -2.608283 1.514823 -2.061553 2.061553 
C -1.514823 2.608283 -0.773193 2.915476 0 2.915476 
z
" style="stroke: #ffffff; stroke-width: 0.6"/>
    </defs>
    <g clip-path="url(#pd9785835f7)">
     <use xlink:href="#m7f7ef6ca8d" x="102.228241" y="114.990177" style="fill: #dc4c4c; stroke: #ffffff; stroke-width: 0.6"/>
     <use xlink:href="#m7f7ef6ca8d" x="97.77495" y="121.366049" style="fill: #dc4c4c; stroke: #ffffff; stroke-width: 0.6"/>
     <use xlink:href="#m7f7ef6ca8d" x="98.461179" y="110.519147" style="fill: #dc4c4c; stroke: #ffffff; stroke-width: 0.6"/>
     <use xlink:href="#m7f7ef6ca8d" x="85.770747" y="114.607242" style="fill: #dc4c4c; stroke: #ffffff; stroke-width: 0.6"/>
     <use xlink:href="#m7f7ef6ca8d" x="112.305078" y="113.715485" style="fill: #dc4c4c; stroke: #ffffff; stroke-width: 0.6"/>
     <use xlink:href="#m7f7ef6ca8d" x="108.203772" y="113.215396" style="fill: #dc4c4c; stroke: #ffffff; stroke-width: 0.6"/>
     <use xlink:href="#m7f7ef6ca8d" x="99.009491" y="122.107324" style="fill: #dc4c4c; stroke: #ffffff; stroke-width: 0.6"/>
     <use xlink:href="#m7f7ef6ca8d" x="105.88667" y="110.883793" style="fill: #dc4c4c; stroke: #ffffff; stroke-width: 0.6"/>
     <use xlink:href="#m7f7ef6ca8d" x="102.804811" y="102.916177" style="fill: #dc4c4c; stroke: #ffffff; stroke-width: 0.6"/>
     <use xlink:href="#m7f7ef6ca8d" x="97.580537" y="126.03435" style="fill: #dc4c4c; stroke: #ffffff; stroke-width: 0.6"/>
     <use xlink:href="#m7f7ef6ca8d" x="107.161472" y="126.603485" style="fill: #dc4c4c; stroke: #ffffff; stroke-width: 0.6"/>
     <use xlink:href="#m7f7ef6ca8d" x="99.1025" y="125.19843" style="fill: #dc4c4c; stroke: #ffffff; stroke-width: 0.6"/>
     <use xlink:href="#m7f7ef6ca8d" x="98.988213" y="110.519185" style="fill: #dc4c4c; stroke: #ffffff; stroke-width: 0.6"/>
     <use xlink:href="#m7f7ef6ca8d" x="96.089496" y="114.978366" style="fill: #dc4c4c; stroke: #ffffff; stroke-width: 0.6"/>
     <use xlink:href="#m7f7ef6ca8d" x="103.891838" y="109.037155" style="fill: #dc4c4c; stroke: #ffffff; stroke-width: 0.6"/>
     <use xlink:href="#m7f7ef6ca8d" x="100.424835" y="111.263867" style="fill: #dc4c4c; stroke: #ffffff; stroke-width: 0.6"/>
     <use xlink:href="#m7f7ef6ca8d" x="104.456979" y="114.466244" style="fill: #dc4c4c; stroke: #ffffff; stroke-width: 0.6"/>
     <use xlink:href="#m7f7ef6ca8d" x="97.24668" y="114.006612" style="fill: #dc4c4c; stroke: #ffffff; stroke-width: 0.6"/>
    </g>
   </g>
   <g id="text_1">
    <text style="font-weight: 700; font-size: 11.5px; font-family: 'DejaVu Sans'; text-anchor: middle; fill: #002060" x="101.045455" y="15.938203" transform="rotate(-0 101.045455 15.938203)">bias basso, varianza bassa</text>
   </g>
  </g>
  <g id="axes_2">
   <g id="patch_6">
    <path d="M 326.274545 205.160281 
C 349.977503 205.160281 372.71284 195.742996 389.473362 178.982474 
C 406.233884 162.221952 415.651169 139.486615 415.651169 115.783658 
C 415.651169 92.0807 406.233884 69.345363 389.473362 52.584841 
C 372.71284 35.824319 349.977503 26.407034 326.274545 26.407034 
C 302.571588 26.407034 279.836251 35.824319 263.075729 52.584841 
C 246.315207 69.345363 236.897922 92.0807 236.897922 115.783658 
C 236.897922 139.486615 246.315207 162.221952 263.075729 178.982474 
C 279.836251 195.742996 302.571588 205.160281 326.274545 205.160281 
z
" clip-path="url(#p4cf833ad06)" style="fill: #8fd2e9; stroke: #ffffff; stroke-width: 1.2; stroke-linejoin: miter"/>
   </g>
   <g id="patch_7">
    <path d="M 326.274545 174.772229 
C 341.918497 174.772229 356.92382 168.556821 367.985764 157.494877 
C 379.047709 146.432932 385.263117 131.42761 385.263117 115.783658 
C 385.263117 100.139706 379.047709 85.134383 367.985764 74.072439 
C 356.92382 63.010494 341.918497 56.795086 326.274545 56.795086 
C 310.630593 56.795086 295.625271 63.010494 284.563327 74.072439 
C 273.501382 85.134383 267.285974 100.139706 267.285974 115.783658 
C 267.285974 131.42761 273.501382 146.432932 284.563327 157.494877 
C 295.625271 168.556821 310.630593 174.772229 326.274545 174.772229 
z
" clip-path="url(#p4cf833ad06)" style="fill: #cfe7f2; stroke: #ffffff; stroke-width: 1.2; stroke-linejoin: miter"/>
   </g>
   <g id="patch_8">
    <path d="M 326.274545 145.277943 
C 334.096521 145.277943 341.599183 142.170239 347.130155 136.639267 
C 352.661127 131.108295 355.768831 123.605634 355.768831 115.783658 
C 355.768831 107.961682 352.661127 100.459021 347.130155 94.928048 
C 341.599183 89.397076 334.096521 86.289372 326.274545 86.289372 
C 318.452569 86.289372 310.949908 89.397076 305.418936 94.928048 
C 299.887964 100.459021 296.78026 107.961682 296.78026 115.783658 
C 296.78026 123.605634 299.887964 131.108295 305.418936 136.639267 
C 310.949908 142.170239 318.452569 145.277943 326.274545 145.277943 
z
" clip-path="url(#p4cf833ad06)" style="fill: #00adcf; stroke: #ffffff; stroke-width: 1.2; stroke-linejoin: miter"/>
   </g>
   <g id="patch_9">
    <path d="M 326.274545 124.72132 
C 328.644841 124.72132 330.918375 123.779592 332.594427 122.103539 
C 334.270479 120.427487 335.212208 118.153953 335.212208 115.783658 
C 335.212208 113.413362 334.270479 111.139828 332.594427 109.463776 
C 330.918375 107.787724 328.644841 106.845995 326.274545 106.845995 
C 323.90425 106.845995 321.630716 107.787724 319.954664 109.463776 
C 318.278612 111.139828 317.336883 113.413362 317.336883 115.783658 
C 317.336883 118.153953 318.278612 120.427487 319.954664 122.103539 
C 321.630716 123.779592 323.90425 124.72132 326.274545 124.72132 
z
" clip-path="url(#p4cf833ad06)" style="fill: #002060"/>
   </g>
   <g id="PathCollection_2">
    <g clip-path="url(#p4cf833ad06)">
     <use xlink:href="#m7f7ef6ca8d" x="322.936569" y="114.054918" style="fill: #dc4c4c; stroke: #ffffff; stroke-width: 0.6"/>
     <use xlink:href="#m7f7ef6ca8d" x="343.350955" y="96.126671" style="fill: #dc4c4c; stroke: #ffffff; stroke-width: 0.6"/>
     <use xlink:href="#m7f7ef6ca8d" x="304.061102" y="69.086596" style="fill: #dc4c4c; stroke: #ffffff; stroke-width: 0.6"/>
     <use xlink:href="#m7f7ef6ca8d" x="317.979596" y="110.397367" style="fill: #dc4c4c; stroke: #ffffff; stroke-width: 0.6"/>
     <use xlink:href="#m7f7ef6ca8d" x="331.051417" y="121.296775" style="fill: #dc4c4c; stroke: #ffffff; stroke-width: 0.6"/>
     <use xlink:href="#m7f7ef6ca8d" x="361.695626" y="130.944746" style="fill: #dc4c4c; stroke: #ffffff; stroke-width: 0.6"/>
     <use xlink:href="#m7f7ef6ca8d" x="311.242997" y="103.040856" style="fill: #dc4c4c; stroke: #ffffff; stroke-width: 0.6"/>
     <use xlink:href="#m7f7ef6ca8d" x="305.057134" y="119.651933" style="fill: #dc4c4c; stroke: #ffffff; stroke-width: 0.6"/>
     <use xlink:href="#m7f7ef6ca8d" x="315.19871" y="119.298322" style="fill: #dc4c4c; stroke: #ffffff; stroke-width: 0.6"/>
     <use xlink:href="#m7f7ef6ca8d" x="345.333206" y="117.853366" style="fill: #dc4c4c; stroke: #ffffff; stroke-width: 0.6"/>
     <use xlink:href="#m7f7ef6ca8d" x="321.653666" y="103.005364" style="fill: #dc4c4c; stroke: #ffffff; stroke-width: 0.6"/>
     <use xlink:href="#m7f7ef6ca8d" x="352.314992" y="136.750941" style="fill: #dc4c4c; stroke: #ffffff; stroke-width: 0.6"/>
     <use xlink:href="#m7f7ef6ca8d" x="289.455265" y="145.865401" style="fill: #dc4c4c; stroke: #ffffff; stroke-width: 0.6"/>
     <use xlink:href="#m7f7ef6ca8d" x="348.464535" y="163.640627" style="fill: #dc4c4c; stroke: #ffffff; stroke-width: 0.6"/>
     <use xlink:href="#m7f7ef6ca8d" x="346.622972" y="92.214363" style="fill: #dc4c4c; stroke: #ffffff; stroke-width: 0.6"/>
     <use xlink:href="#m7f7ef6ca8d" x="298.379525" y="114.332669" style="fill: #dc4c4c; stroke: #ffffff; stroke-width: 0.6"/>
     <use xlink:href="#m7f7ef6ca8d" x="329.294404" y="86.090395" style="fill: #dc4c4c; stroke: #ffffff; stroke-width: 0.6"/>
     <use xlink:href="#m7f7ef6ca8d" x="350.179814" y="115.959764" style="fill: #dc4c4c; stroke: #ffffff; stroke-width: 0.6"/>
    </g>
   </g>
   <g id="text_2">
    <text style="font-weight: 700; font-size: 11.5px; font-family: 'DejaVu Sans'; text-anchor: middle; fill: #002060" x="326.274545" y="15.938203" transform="rotate(-0 326.274545 15.938203)">bias basso, varianza alta</text>
   </g>
  </g>
  <g id="axes_3">
   <g id="patch_10">
    <path d="M 101.045455 434.984281 
C 124.748412 434.984281 147.483749 425.566996 164.244271 408.806474 
C 181.004793 392.045952 190.422078 369.310615 190.422078 345.607658 
C 190.422078 321.9047 181.004793 299.169363 164.244271 282.408841 
C 147.483749 265.648319 124.748412 256.231034 101.045455 256.231034 
C 77.342497 256.231034 54.60716 265.648319 37.846638 282.408841 
C 21.086116 299.169363 11.668831 321.9047 11.668831 345.607658 
C 11.668831 369.310615 21.086116 392.045952 37.846638 408.806474 
C 54.60716 425.566996 77.342497 434.984281 101.045455 434.984281 
z
" clip-path="url(#p5c6888af41)" style="fill: #8fd2e9; stroke: #ffffff; stroke-width: 1.2; stroke-linejoin: miter"/>
   </g>
   <g id="patch_11">
    <path d="M 101.045455 404.596229 
C 116.689407 404.596229 131.694729 398.380821 142.756673 387.318877 
C 153.818618 376.256932 160.034026 361.25161 160.034026 345.607658 
C 160.034026 329.963706 153.818618 314.958383 142.756673 303.896439 
C 131.694729 292.834494 116.689407 286.619086 101.045455 286.619086 
C 85.401503 286.619086 70.39618 292.834494 59.334236 303.896439 
C 48.272291 314.958383 42.056883 329.963706 42.056883 345.607658 
C 42.056883 361.25161 48.272291 376.256932 59.334236 387.318877 
C 70.39618 398.380821 85.401503 404.596229 101.045455 404.596229 
z
" clip-path="url(#p5c6888af41)" style="fill: #cfe7f2; stroke: #ffffff; stroke-width: 1.2; stroke-linejoin: miter"/>
   </g>
   <g id="patch_12">
    <path d="M 101.045455 375.101943 
C 108.867431 375.101943 116.370092 371.994239 121.901064 366.463267 
C 127.432036 360.932295 130.53974 353.429634 130.53974 345.607658 
C 130.53974 337.785682 127.432036 330.283021 121.901064 324.752048 
C 116.370092 319.221076 108.867431 316.113372 101.045455 316.113372 
C 93.223479 316.113372 85.720817 319.221076 80.189845 324.752048 
C 74.658873 330.283021 71.551169 337.785682 71.551169 345.607658 
C 71.551169 353.429634 74.658873 360.932295 80.189845 366.463267 
C 85.720817 371.994239 93.223479 375.101943 101.045455 375.101943 
z
" clip-path="url(#p5c6888af41)" style="fill: #00adcf; stroke: #ffffff; stroke-width: 1.2; stroke-linejoin: miter"/>
   </g>
   <g id="patch_13">
    <path d="M 101.045455 354.54532 
C 103.41575 354.54532 105.689284 353.603592 107.365336 351.927539 
C 109.041388 350.251487 109.983117 347.977953 109.983117 345.607658 
C 109.983117 343.237362 109.041388 340.963828 107.365336 339.287776 
C 105.689284 337.611724 103.41575 336.669995 101.045455 336.669995 
C 98.675159 336.669995 96.401625 337.611724 94.725573 339.287776 
C 93.049521 340.963828 92.107792 343.237362 92.107792 345.607658 
C 92.107792 347.977953 93.049521 350.251487 94.725573 351.927539 
C 96.401625 353.603592 98.675159 354.54532 101.045455 354.54532 
z
" clip-path="url(#p5c6888af41)" style="fill: #002060"/>
   </g>
   <g id="PathCollection_3">
    <g clip-path="url(#p5c6888af41)">
     <use xlink:href="#m7f7ef6ca8d" x="133.940442" y="309.85718" style="fill: #dc4c4c; stroke: #ffffff; stroke-width: 0.6"/>
     <use xlink:href="#m7f7ef6ca8d" x="141.573736" y="322.971544" style="fill: #dc4c4c; stroke: #ffffff; stroke-width: 0.6"/>
     <use xlink:href="#m7f7ef6ca8d" x="138.104471" y="317.834868" style="fill: #dc4c4c; stroke: #ffffff; stroke-width: 0.6"/>
     <use xlink:href="#m7f7ef6ca8d" x="130.736989" y="324.027409" style="fill: #dc4c4c; stroke: #ffffff; stroke-width: 0.6"/>
     <use xlink:href="#m7f7ef6ca8d" x="133.046338" y="320.185055" style="fill: #dc4c4c; stroke: #ffffff; stroke-width: 0.6"/>
     <use xlink:href="#m7f7ef6ca8d" x="149.63725" y="318.498091" style="fill: #dc4c4c; stroke: #ffffff; stroke-width: 0.6"/>
     <use xlink:href="#m7f7ef6ca8d" x="140.800583" y="321.514218" style="fill: #dc4c4c; stroke: #ffffff; stroke-width: 0.6"/>
     <use xlink:href="#m7f7ef6ca8d" x="141.188702" y="323.192193" style="fill: #dc4c4c; stroke: #ffffff; stroke-width: 0.6"/>
     <use xlink:href="#m7f7ef6ca8d" x="136.853428" y="323.035773" style="fill: #dc4c4c; stroke: #ffffff; stroke-width: 0.6"/>
     <use xlink:href="#m7f7ef6ca8d" x="134.2685" y="323.932146" style="fill: #dc4c4c; stroke: #ffffff; stroke-width: 0.6"/>
     <use xlink:href="#m7f7ef6ca8d" x="144.162159" y="328.617662" style="fill: #dc4c4c; stroke: #ffffff; stroke-width: 0.6"/>
     <use xlink:href="#m7f7ef6ca8d" x="137.929055" y="320.439904" style="fill: #dc4c4c; stroke: #ffffff; stroke-width: 0.6"/>
     <use xlink:href="#m7f7ef6ca8d" x="133.83438" y="316.284879" style="fill: #dc4c4c; stroke: #ffffff; stroke-width: 0.6"/>
     <use xlink:href="#m7f7ef6ca8d" x="137.74448" y="313.111378" style="fill: #dc4c4c; stroke: #ffffff; stroke-width: 0.6"/>
     <use xlink:href="#m7f7ef6ca8d" x="132.917836" y="314.746161" style="fill: #dc4c4c; stroke: #ffffff; stroke-width: 0.6"/>
     <use xlink:href="#m7f7ef6ca8d" x="139.772632" y="303.42068" style="fill: #dc4c4c; stroke: #ffffff; stroke-width: 0.6"/>
     <use xlink:href="#m7f7ef6ca8d" x="145.648495" y="316.800882" style="fill: #dc4c4c; stroke: #ffffff; stroke-width: 0.6"/>
     <use xlink:href="#m7f7ef6ca8d" x="133.352784" y="321.649661" style="fill: #dc4c4c; stroke: #ffffff; stroke-width: 0.6"/>
    </g>
   </g>
   <g id="text_3">
    <text style="font-weight: 700; font-size: 11.5px; font-family: 'DejaVu Sans'; text-anchor: middle; fill: #002060" x="101.045455" y="245.762203" transform="rotate(-0 101.045455 245.762203)">bias alto, varianza bassa</text>
   </g>
  </g>
  <g id="axes_4">
   <g id="patch_14">
    <path d="M 326.274545 434.984281 
C 349.977503 434.984281 372.71284 425.566996 389.473362 408.806474 
C 406.233884 392.045952 415.651169 369.310615 415.651169 345.607658 
C 415.651169 321.9047 406.233884 299.169363 389.473362 282.408841 
C 372.71284 265.648319 349.977503 256.231034 326.274545 256.231034 
C 302.571588 256.231034 279.836251 265.648319 263.075729 282.408841 
C 246.315207 299.169363 236.897922 321.9047 236.897922 345.607658 
C 236.897922 369.310615 246.315207 392.045952 263.075729 408.806474 
C 279.836251 425.566996 302.571588 434.984281 326.274545 434.984281 
z
" clip-path="url(#p11552d0ef8)" style="fill: #8fd2e9; stroke: #ffffff; stroke-width: 1.2; stroke-linejoin: miter"/>
   </g>
   <g id="patch_15">
    <path d="M 326.274545 404.596229 
C 341.918497 404.596229 356.92382 398.380821 367.985764 387.318877 
C 379.047709 376.256932 385.263117 361.25161 385.263117 345.607658 
C 385.263117 329.963706 379.047709 314.958383 367.985764 303.896439 
C 356.92382 292.834494 341.918497 286.619086 326.274545 286.619086 
C 310.630593 286.619086 295.625271 292.834494 284.563327 303.896439 
C 273.501382 314.958383 267.285974 329.963706 267.285974 345.607658 
C 267.285974 361.25161 273.501382 376.256932 284.563327 387.318877 
C 295.625271 398.380821 310.630593 404.596229 326.274545 404.596229 
z
" clip-path="url(#p11552d0ef8)" style="fill: #cfe7f2; stroke: #ffffff; stroke-width: 1.2; stroke-linejoin: miter"/>
   </g>
   <g id="patch_16">
    <path d="M 326.274545 375.101943 
C 334.096521 375.101943 341.599183 371.994239 347.130155 366.463267 
C 352.661127 360.932295 355.768831 353.429634 355.768831 345.607658 
C 355.768831 337.785682 352.661127 330.283021 347.130155 324.752048 
C 341.599183 319.221076 334.096521 316.113372 326.274545 316.113372 
C 318.452569 316.113372 310.949908 319.221076 305.418936 324.752048 
C 299.887964 330.283021 296.78026 337.785682 296.78026 345.607658 
C 296.78026 353.429634 299.887964 360.932295 305.418936 366.463267 
C 310.949908 371.994239 318.452569 375.101943 326.274545 375.101943 
z
" clip-path="url(#p11552d0ef8)" style="fill: #00adcf; stroke: #ffffff; stroke-width: 1.2; stroke-linejoin: miter"/>
   </g>
   <g id="patch_17">
    <path d="M 326.274545 354.54532 
C 328.644841 354.54532 330.918375 353.603592 332.594427 351.927539 
C 334.270479 350.251487 335.212208 347.977953 335.212208 345.607658 
C 335.212208 343.237362 334.270479 340.963828 332.594427 339.287776 
C 330.918375 337.611724 328.644841 336.669995 326.274545 336.669995 
C 323.90425 336.669995 321.630716 337.611724 319.954664 339.287776 
C 318.278612 340.963828 317.336883 343.237362 317.336883 345.607658 
C 317.336883 347.977953 318.278612 350.251487 319.954664 351.927539 
C 321.630716 353.603592 323.90425 354.54532 326.274545 354.54532 
z
" clip-path="url(#p11552d0ef8)" style="fill: #002060"/>
   </g>
   <g id="PathCollection_4">
    <g clip-path="url(#p11552d0ef8)">
     <use xlink:href="#m7f7ef6ca8d" x="400.614412" y="329.596866" style="fill: #dc4c4c; stroke: #ffffff; stroke-width: 0.6"/>
     <use xlink:href="#m7f7ef6ca8d" x="343.221428" y="329.256595" style="fill: #dc4c4c; stroke: #ffffff; stroke-width: 0.6"/>
     <use xlink:href="#m7f7ef6ca8d" x="382.855764" y="345.326103" style="fill: #dc4c4c; stroke: #ffffff; stroke-width: 0.6"/>
     <use xlink:href="#m7f7ef6ca8d" x="345.031852" y="330.426723" style="fill: #dc4c4c; stroke: #ffffff; stroke-width: 0.6"/>
     <use xlink:href="#m7f7ef6ca8d" x="370.775574" y="320.611677" style="fill: #dc4c4c; stroke: #ffffff; stroke-width: 0.6"/>
     <use xlink:href="#m7f7ef6ca8d" x="325.108423" y="305.208581" style="fill: #dc4c4c; stroke: #ffffff; stroke-width: 0.6"/>
     <use xlink:href="#m7f7ef6ca8d" x="381.495018" y="292.832237" style="fill: #dc4c4c; stroke: #ffffff; stroke-width: 0.6"/>
     <use xlink:href="#m7f7ef6ca8d" x="360.701127" y="334.68906" style="fill: #dc4c4c; stroke: #ffffff; stroke-width: 0.6"/>
     <use xlink:href="#m7f7ef6ca8d" x="344.785345" y="307.960898" style="fill: #dc4c4c; stroke: #ffffff; stroke-width: 0.6"/>
     <use xlink:href="#m7f7ef6ca8d" x="396.815241" y="327.533962" style="fill: #dc4c4c; stroke: #ffffff; stroke-width: 0.6"/>
     <use xlink:href="#m7f7ef6ca8d" x="378.861787" y="277.99055" style="fill: #dc4c4c; stroke: #ffffff; stroke-width: 0.6"/>
     <use xlink:href="#m7f7ef6ca8d" x="364.71344" y="319.752715" style="fill: #dc4c4c; stroke: #ffffff; stroke-width: 0.6"/>
     <use xlink:href="#m7f7ef6ca8d" x="349.15518" y="308.92142" style="fill: #dc4c4c; stroke: #ffffff; stroke-width: 0.6"/>
     <use xlink:href="#m7f7ef6ca8d" x="362.960095" y="337.202293" style="fill: #dc4c4c; stroke: #ffffff; stroke-width: 0.6"/>
     <use xlink:href="#m7f7ef6ca8d" x="360.589419" y="334.735142" style="fill: #dc4c4c; stroke: #ffffff; stroke-width: 0.6"/>
     <use xlink:href="#m7f7ef6ca8d" x="378.063904" y="314.828765" style="fill: #dc4c4c; stroke: #ffffff; stroke-width: 0.6"/>
     <use xlink:href="#m7f7ef6ca8d" x="379.505166" y="326.346278" style="fill: #dc4c4c; stroke: #ffffff; stroke-width: 0.6"/>
     <use xlink:href="#m7f7ef6ca8d" x="350.682729" y="311.848008" style="fill: #dc4c4c; stroke: #ffffff; stroke-width: 0.6"/>
    </g>
   </g>
   <g id="text_4">
    <text style="font-weight: 700; font-size: 11.5px; font-family: 'DejaVu Sans'; text-anchor: middle; fill: #002060" x="326.274545" y="245.762203" transform="rotate(-0 326.274545 245.762203)">bias alto, varianza alta</text>
   </g>
  </g>
 </g>
 <defs>
  <clipPath id="pd9785835f7">
   <rect x="7.2" y="21.938203" width="187.690909" height="187.690909"/>
  </clipPath>
  <clipPath id="p4cf833ad06">
   <rect x="232.429091" y="21.938203" width="187.690909" height="187.690909"/>
  </clipPath>
  <clipPath id="p5c6888af41">
   <rect x="7.2" y="251.762203" width="187.690909" height="187.690909"/>
  </clipPath>
  <clipPath id="p11552d0ef8">
   <rect x="232.429091" y="251.762203" width="187.690909" height="187.690909"/>
  </clipPath>
 </defs>
</svg>
