<?xml version="1.0" encoding="utf-8" standalone="no"?>
<!DOCTYPE svg PUBLIC "-//W3C//DTD SVG 1.1//EN"
  "http://www.w3.org/Graphics/SVG/1.1/DTD/svg11.dtd">
<svg xmlns:xlink="http://www.w3.org/1999/xlink" width="467.621562pt" height="330.821562pt" viewBox="0 0 467.621562 330.821562" xmlns="http://www.w3.org/2000/svg" version="1.1">
 <metadata>
  <rdf:RDF xmlns:dc="http://purl.org/dc/elements/1.1/" xmlns:cc="http://creativecommons.org/ns#" xmlns:rdf="http://www.w3.org/1999/02/22-rdf-syntax-ns#">
   <cc:Work>
    <dc:type rdf:resource="http://purl.org/dc/dcmitype/StillImage"/>
    <dc:date>2026-06-24T14:19:10.396877</dc:date>
    <dc:format>image/svg+xml</dc:format>
    <dc:creator>
     <cc:Agent>
      <dc:title>Matplotlib v3.10.9, https://matplotlib.org/</dc:title>
     </cc:Agent>
    </dc:creator>
   </cc:Work>
  </rdf:RDF>
 </metadata>
 <defs>
  <style type="text/css">*{stroke-linejoin: round; stroke-linecap: butt}</style>
 </defs>
 <g id="figure_1">
  <g id="patch_1">
   <path d="M 0 330.821562 
L 467.621562 330.821562 
L 467.621562 0 
L 0 0 
L 0 330.821562 
z
" style="fill: none"/>
  </g>
  <g id="axes_1">
   <g id="patch_2">
    <path d="M 23.781563 307.04 
L 460.421562 307.04 
L 460.421562 7.2 
L 23.781563 7.2 
L 23.781563 307.04 
z
" style="fill: none"/>
   </g>
   <g id="matplotlib.axis_1">
    <g id="text_1">
     <!-- flessibilità del modello -->
     <g style="fill: #414f69" transform="translate(158.803047 320.917969) scale(0.13 -0.13)">
      <defs>
       <path id="DejaVuSans-Bold-66" d="M 2841 4863 
L 2841 4128 
L 2222 4128 
Q 1984 4128 1890 4042 
Q 1797 3956 1797 3744 
L 1797 3500 
L 2753 3500 
L 2753 2700 
L 1797 2700 
L 1797 0 
L 678 0 
L 678 2700 
L 122 2700 
L 122 3500 
L 678 3500 
L 678 3744 
Q 678 4316 997 4589 
Q 1316 4863 1984 4863 
L 2841 4863 
z
" transform="scale(0.015625)"/>
       <path id="DejaVuSans-Bold-6c" d="M 538 4863 
L 1656 4863 
L 1656 0 
L 538 0 
L 538 4863 
z
" transform="scale(0.015625)"/>
       <path id="DejaVuSans-Bold-65" d="M 4031 1759 
L 4031 1441 
L 1416 1441 
Q 1456 1047 1700 850 
Q 1944 653 2381 653 
Q 2734 653 3104 758 
Q 3475 863 3866 1075 
L 3866 213 
Q 3469 63 3072 -14 
Q 2675 -91 2278 -91 
Q 1328 -91 801 392 
Q 275 875 275 1747 
Q 275 2603 792 3093 
Q 1309 3584 2216 3584 
Q 3041 3584 3536 3087 
Q 4031 2591 4031 1759 
z
M 2881 2131 
Q 2881 2450 2695 2645 
Q 2509 2841 2209 2841 
Q 1884 2841 1681 2658 
Q 1478 2475 1428 2131 
L 2881 2131 
z
" transform="scale(0.015625)"/>
       <path id="DejaVuSans-Bold-73" d="M 3272 3391 
L 3272 2541 
Q 2913 2691 2578 2766 
Q 2244 2841 1947 2841 
Q 1628 2841 1473 2761 
Q 1319 2681 1319 2516 
Q 1319 2381 1436 2309 
Q 1553 2238 1856 2203 
L 2053 2175 
Q 2913 2066 3209 1816 
Q 3506 1566 3506 1031 
Q 3506 472 3093 190 
Q 2681 -91 1863 -91 
Q 1516 -91 1145 -36 
Q 775 19 384 128 
L 384 978 
Q 719 816 1070 734 
Q 1422 653 1784 653 
Q 2113 653 2278 743 
Q 2444 834 2444 1013 
Q 2444 1163 2330 1236 
Q 2216 1309 1875 1350 
L 1678 1375 
Q 931 1469 631 1722 
Q 331 1975 331 2491 
Q 331 3047 712 3315 
Q 1094 3584 1881 3584 
Q 2191 3584 2531 3537 
Q 2872 3491 3272 3391 
z
" transform="scale(0.015625)"/>
       <path id="DejaVuSans-Bold-69" d="M 538 3500 
L 1656 3500 
L 1656 0 
L 538 0 
L 538 3500 
z
M 538 4863 
L 1656 4863 
L 1656 3950 
L 538 3950 
L 538 4863 
z
" transform="scale(0.015625)"/>
       <path id="DejaVuSans-Bold-62" d="M 2400 722 
Q 2759 722 2948 984 
Q 3138 1247 3138 1747 
Q 3138 2247 2948 2509 
Q 2759 2772 2400 2772 
Q 2041 2772 1848 2508 
Q 1656 2244 1656 1747 
Q 1656 1250 1848 986 
Q 2041 722 2400 722 
z
M 1656 2988 
Q 1888 3294 2169 3439 
Q 2450 3584 2816 3584 
Q 3463 3584 3878 3070 
Q 4294 2556 4294 1747 
Q 4294 938 3878 423 
Q 3463 -91 2816 -91 
Q 2450 -91 2169 54 
Q 1888 200 1656 506 
L 1656 0 
L 538 0 
L 538 4863 
L 1656 4863 
L 1656 2988 
z
" transform="scale(0.015625)"/>
       <path id="DejaVuSans-Bold-74" d="M 1759 4494 
L 1759 3500 
L 2913 3500 
L 2913 2700 
L 1759 2700 
L 1759 1216 
Q 1759 972 1856 886 
Q 1953 800 2241 800 
L 2816 800 
L 2816 0 
L 1856 0 
Q 1194 0 917 276 
Q 641 553 641 1216 
L 641 2700 
L 84 2700 
L 84 3500 
L 641 3500 
L 641 4494 
L 1759 4494 
z
" transform="scale(0.015625)"/>
       <path id="DejaVuSans-Bold-e0" d="M 2106 1575 
Q 1756 1575 1579 1456 
Q 1403 1338 1403 1106 
Q 1403 894 1545 773 
Q 1688 653 1941 653 
Q 2256 653 2472 879 
Q 2688 1106 2688 1447 
L 2688 1575 
L 2106 1575 
z
M 3816 1997 
L 3816 0 
L 2688 0 
L 2688 519 
Q 2463 200 2181 54 
Q 1900 -91 1497 -91 
Q 953 -91 614 226 
Q 275 544 275 1050 
Q 275 1666 698 1953 
Q 1122 2241 2028 2241 
L 2688 2241 
L 2688 2328 
Q 2688 2594 2478 2717 
Q 2269 2841 1825 2841 
Q 1466 2841 1156 2769 
Q 847 2697 581 2553 
L 581 3406 
Q 941 3494 1303 3539 
Q 1666 3584 2028 3584 
Q 2975 3584 3395 3211 
Q 3816 2838 3816 1997 
z
M 1762 5119 
L 2643 3944 
L 2031 3944 
L 878 5119 
L 1762 5119 
z
" transform="scale(0.015625)"/>
       <path id="DejaVuSans-Bold-20" transform="scale(0.015625)"/>
       <path id="DejaVuSans-Bold-64" d="M 2919 2988 
L 2919 4863 
L 4044 4863 
L 4044 0 
L 2919 0 
L 2919 506 
Q 2688 197 2409 53 
Q 2131 -91 1766 -91 
Q 1119 -91 703 423 
Q 288 938 288 1747 
Q 288 2556 703 3070 
Q 1119 3584 1766 3584 
Q 2128 3584 2408 3439 
Q 2688 3294 2919 2988 
z
M 2181 722 
Q 2541 722 2730 984 
Q 2919 1247 2919 1747 
Q 2919 2247 2730 2509 
Q 2541 2772 2181 2772 
Q 1825 2772 1636 2509 
Q 1447 2247 1447 1747 
Q 1447 1247 1636 984 
Q 1825 722 2181 722 
z
" transform="scale(0.015625)"/>
       <path id="DejaVuSans-Bold-6d" d="M 3781 2919 
Q 3994 3244 4286 3414 
Q 4578 3584 4928 3584 
Q 5531 3584 5847 3212 
Q 6163 2841 6163 2131 
L 6163 0 
L 5038 0 
L 5038 1825 
Q 5041 1866 5042 1909 
Q 5044 1953 5044 2034 
Q 5044 2406 4934 2573 
Q 4825 2741 4581 2741 
Q 4263 2741 4089 2478 
Q 3916 2216 3909 1719 
L 3909 0 
L 2784 0 
L 2784 1825 
Q 2784 2406 2684 2573 
Q 2584 2741 2328 2741 
Q 2006 2741 1831 2477 
Q 1656 2213 1656 1722 
L 1656 0 
L 531 0 
L 531 3500 
L 1656 3500 
L 1656 2988 
Q 1863 3284 2130 3434 
Q 2397 3584 2719 3584 
Q 3081 3584 3359 3409 
Q 3638 3234 3781 2919 
z
" transform="scale(0.015625)"/>
       <path id="DejaVuSans-Bold-6f" d="M 2203 2784 
Q 1831 2784 1636 2517 
Q 1441 2250 1441 1747 
Q 1441 1244 1636 976 
Q 1831 709 2203 709 
Q 2569 709 2762 976 
Q 2956 1244 2956 1747 
Q 2956 2250 2762 2517 
Q 2569 2784 2203 2784 
z
M 2203 3584 
Q 3106 3584 3614 3096 
Q 4122 2609 4122 1747 
Q 4122 884 3614 396 
Q 3106 -91 2203 -91 
Q 1297 -91 786 396 
Q 275 884 275 1747 
Q 275 2609 786 3096 
Q 1297 3584 2203 3584 
z
" transform="scale(0.015625)"/>
      </defs>
      <use xlink:href="#DejaVuSans-Bold-66"/>
      <use xlink:href="#DejaVuSans-Bold-6c" transform="translate(43.505859 0)"/>
      <use xlink:href="#DejaVuSans-Bold-65" transform="translate(77.783203 0)"/>
      <use xlink:href="#DejaVuSans-Bold-73" transform="translate(145.605469 0)"/>
      <use xlink:href="#DejaVuSans-Bold-73" transform="translate(205.126953 0)"/>
      <use xlink:href="#DejaVuSans-Bold-69" transform="translate(264.648438 0)"/>
      <use xlink:href="#DejaVuSans-Bold-62" transform="translate(298.925781 0)"/>
      <use xlink:href="#DejaVuSans-Bold-69" transform="translate(370.507812 0)"/>
      <use xlink:href="#DejaVuSans-Bold-6c" transform="translate(404.785156 0)"/>
      <use xlink:href="#DejaVuSans-Bold-69" transform="translate(439.0625 0)"/>
      <use xlink:href="#DejaVuSans-Bold-74" transform="translate(473.339844 0)"/>
      <use xlink:href="#DejaVuSans-Bold-e0" transform="translate(521.142578 0)"/>
      <use xlink:href="#DejaVuSans-Bold-20" transform="translate(588.623047 0)"/>
      <use xlink:href="#DejaVuSans-Bold-64" transform="translate(623.4375 0)"/>
      <use xlink:href="#DejaVuSans-Bold-65" transform="translate(695.019531 0)"/>
      <use xlink:href="#DejaVuSans-Bold-6c" transform="translate(762.841797 0)"/>
      <use xlink:href="#DejaVuSans-Bold-20" transform="translate(797.119141 0)"/>
      <use xlink:href="#DejaVuSans-Bold-6d" transform="translate(831.933594 0)"/>
      <use xlink:href="#DejaVuSans-Bold-6f" transform="translate(936.132812 0)"/>
      <use xlink:href="#DejaVuSans-Bold-64" transform="translate(1004.833984 0)"/>
      <use xlink:href="#DejaVuSans-Bold-65" transform="translate(1076.416016 0)"/>
      <use xlink:href="#DejaVuSans-Bold-6c" transform="translate(1144.238281 0)"/>
      <use xlink:href="#DejaVuSans-Bold-6c" transform="translate(1178.515625 0)"/>
      <use xlink:href="#DejaVuSans-Bold-6f" transform="translate(1212.792969 0)"/>
     </g>
    </g>
   </g>
   <g id="matplotlib.axis_2">
    <g id="text_2">
     <!-- errore atteso -->
     <g style="fill: #414f69" transform="translate(17.077969 205.625234) rotate(-90) scale(0.13 -0.13)">
      <defs>
       <path id="DejaVuSans-Bold-72" d="M 3138 2547 
Q 2991 2616 2845 2648 
Q 2700 2681 2553 2681 
Q 2122 2681 1889 2404 
Q 1656 2128 1656 1613 
L 1656 0 
L 538 0 
L 538 3500 
L 1656 3500 
L 1656 2925 
Q 1872 3269 2151 3426 
Q 2431 3584 2822 3584 
Q 2878 3584 2943 3579 
Q 3009 3575 3134 3559 
L 3138 2547 
z
" transform="scale(0.015625)"/>
       <path id="DejaVuSans-Bold-61" d="M 2106 1575 
Q 1756 1575 1579 1456 
Q 1403 1338 1403 1106 
Q 1403 894 1545 773 
Q 1688 653 1941 653 
Q 2256 653 2472 879 
Q 2688 1106 2688 1447 
L 2688 1575 
L 2106 1575 
z
M 3816 1997 
L 3816 0 
L 2688 0 
L 2688 519 
Q 2463 200 2181 54 
Q 1900 -91 1497 -91 
Q 953 -91 614 226 
Q 275 544 275 1050 
Q 275 1666 698 1953 
Q 1122 2241 2028 2241 
L 2688 2241 
L 2688 2328 
Q 2688 2594 2478 2717 
Q 2269 2841 1825 2841 
Q 1466 2841 1156 2769 
Q 847 2697 581 2553 
L 581 3406 
Q 941 3494 1303 3539 
Q 1666 3584 2028 3584 
Q 2975 3584 3395 3211 
Q 3816 2838 3816 1997 
z
" transform="scale(0.015625)"/>
      </defs>
      <use xlink:href="#DejaVuSans-Bold-65"/>
      <use xlink:href="#DejaVuSans-Bold-72" transform="translate(67.822266 0)"/>
      <use xlink:href="#DejaVuSans-Bold-72" transform="translate(117.138672 0)"/>
      <use xlink:href="#DejaVuSans-Bold-6f" transform="translate(166.455078 0)"/>
      <use xlink:href="#DejaVuSans-Bold-72" transform="translate(235.15625 0)"/>
      <use xlink:href="#DejaVuSans-Bold-65" transform="translate(284.472656 0)"/>
      <use xlink:href="#DejaVuSans-Bold-20" transform="translate(352.294922 0)"/>
      <use xlink:href="#DejaVuSans-Bold-61" transform="translate(387.109375 0)"/>
      <use xlink:href="#DejaVuSans-Bold-74" transform="translate(454.589844 0)"/>
      <use xlink:href="#DejaVuSans-Bold-74" transform="translate(502.392578 0)"/>
      <use xlink:href="#DejaVuSans-Bold-65" transform="translate(550.195312 0)"/>
      <use xlink:href="#DejaVuSans-Bold-73" transform="translate(618.017578 0)"/>
      <use xlink:href="#DejaVuSans-Bold-6f" transform="translate(677.539062 0)"/>
     </g>
    </g>
   </g>
   <g id="line2d_1">
    <path d="M 23.781563 121.619397 
L 28.158906 129.959928 
L 32.536249 137.908613 
L 36.913593 145.483863 
L 42.385272 154.454428 
L 47.856951 162.901318 
L 53.32863 170.855104 
L 58.800309 178.344571 
L 64.271989 185.396824 
L 69.743668 192.037388 
L 75.215347 198.290295 
L 80.687026 204.178176 
L 86.158705 209.722339 
L 91.630385 214.94285 
L 97.102064 219.858603 
L 102.573743 224.487389 
L 108.045422 228.84596 
L 113.517101 232.95009 
L 118.988781 236.814634 
L 125.554796 241.155465 
L 132.120811 245.194014 
L 138.686826 248.951331 
L 145.252841 252.446999 
L 151.818856 255.69924 
L 158.384871 258.725004 
L 166.045222 261.9898 
L 173.705573 264.990923 
L 181.365923 267.749669 
L 189.026274 270.285613 
L 197.780961 272.934029 
L 206.535648 275.339441 
L 215.290334 277.524146 
L 225.139357 279.743266 
L 234.98838 281.73467 
L 245.931738 283.708606 
L 256.875096 285.458803 
L 268.912791 287.155782 
L 282.044821 288.768069 
L 296.271187 290.271081 
L 311.591888 291.647295 
L 328.006926 292.886001 
L 345.516299 293.982724 
L 365.214344 294.98875 
L 387.101061 295.878562 
L 412.270786 296.66925 
L 440.723517 297.335492 
L 460.421562 297.688732 
L 460.421562 297.688732 
" clip-path="url(#p2270d31b2b)" style="fill: none; stroke: #dc4c4c; stroke-width: 2.2; stroke-linecap: square"/>
   </g>
   <g id="line2d_2">
    <path d="M 23.781563 303.752401 
L 45.668279 302.452105 
L 65.366324 301.063358 
L 83.970034 299.527607 
L 101.479407 297.850358 
L 116.800109 296.170417 
L 132.120811 294.264288 
L 146.347177 292.265223 
L 159.479207 290.199802 
L 172.611237 287.898202 
L 184.648931 285.557913 
L 195.592289 283.219131 
L 206.535648 280.65952 
L 217.479006 277.858226 
L 227.328029 275.111608 
L 237.177051 272.13265 
L 247.026074 268.901699 
L 255.78076 265.801 
L 264.535447 262.468216 
L 273.290134 258.885975 
L 282.044821 255.035607 
L 289.705172 251.430844 
L 297.365522 247.591069 
L 305.025873 243.50096 
L 312.686224 239.144197 
L 320.346575 234.503394 
L 326.91259 230.285486 
L 333.478605 225.832946 
L 340.04462 221.132724 
L 346.610635 216.171039 
L 353.17665 210.933349 
L 359.742665 205.404299 
L 366.30868 199.567683 
L 372.874695 193.40639 
L 379.44071 186.90236 
L 386.006725 180.036528 
L 392.57274 172.788766 
L 398.04442 166.441921 
L 403.516099 159.802196 
L 408.987778 152.856075 
L 414.459457 145.589419 
L 419.931136 137.987438 
L 425.402816 130.034656 
L 430.874495 121.714887 
L 436.346174 113.011195 
L 441.817853 103.905864 
L 447.289532 94.380359 
L 452.761212 84.415293 
L 458.232891 73.99038 
L 460.421562 69.686937 
L 460.421562 69.686937 
" clip-path="url(#p2270d31b2b)" style="fill: none; stroke: #00adcf; stroke-width: 2.2; stroke-linecap: square"/>
   </g>
   <g id="line2d_3">
    <path d="M 23.781563 270.876407 
L 460.421562 270.876407 
L 460.421562 270.876407 
" clip-path="url(#p2270d31b2b)" style="fill: none; stroke-dasharray: 9,7.2; stroke-dashoffset: 0; stroke: #545454; stroke-width: 1.8"/>
   </g>
   <g id="line2d_4">
    <path d="M 209.818655 307.04 
L 209.818655 7.2 
" clip-path="url(#p2270d31b2b)" style="fill: none; stroke-dasharray: 1.2,1.98; stroke-dashoffset: 0; stroke: #414f69; stroke-width: 1.2"/>
   </g>
   <g id="patch_3">
    <path d="M 23.781563 307.04 
L 23.781563 7.2 
" style="fill: none; stroke: #414f69; stroke-width: 1.2; stroke-linejoin: miter; stroke-linecap: square"/>
   </g>
   <g id="patch_4">
    <path d="M 23.781563 307.04 
L 460.421562 307.04 
" style="fill: none; stroke: #414f69; stroke-width: 1.2; stroke-linejoin: miter; stroke-linecap: square"/>
   </g>
   <g id="patch_5">
    <path d="M 280.536229 143.109942 
Q 245.888546 177.266622 212.355529 210.32443 
" style="fill: none; stroke: #002060; stroke-width: 1.4; stroke-linecap: round"/>
    <path d="M 217.458679 208.663748 
L 212.355529 210.32443 
L 214.088873 205.245501 
z
" style="fill: #002060; stroke: #002060; stroke-width: 1.4; stroke-linecap: round"/>
   </g>
   <g id="text_3">
    <!-- punto di equilibrio -->
    <g style="fill: #002060" transform="translate(227.284255 137.210569) scale(0.12 -0.12)">
     <defs>
      <path id="DejaVuSans-Bold-70" d="M 1656 506 
L 1656 -1331 
L 538 -1331 
L 538 3500 
L 1656 3500 
L 1656 2988 
Q 1888 3294 2169 3439 
Q 2450 3584 2816 3584 
Q 3463 3584 3878 3070 
Q 4294 2556 4294 1747 
Q 4294 938 3878 423 
Q 3463 -91 2816 -91 
Q 2450 -91 2169 54 
Q 1888 200 1656 506 
z
M 2400 2772 
Q 2041 2772 1848 2508 
Q 1656 2244 1656 1747 
Q 1656 1250 1848 986 
Q 2041 722 2400 722 
Q 2759 722 2948 984 
Q 3138 1247 3138 1747 
Q 3138 2247 2948 2509 
Q 2759 2772 2400 2772 
z
" transform="scale(0.015625)"/>
      <path id="DejaVuSans-Bold-75" d="M 500 1363 
L 500 3500 
L 1625 3500 
L 1625 3150 
Q 1625 2866 1622 2436 
Q 1619 2006 1619 1863 
Q 1619 1441 1641 1255 
Q 1663 1069 1716 984 
Q 1784 875 1895 815 
Q 2006 756 2150 756 
Q 2500 756 2700 1025 
Q 2900 1294 2900 1772 
L 2900 3500 
L 4019 3500 
L 4019 0 
L 2900 0 
L 2900 506 
Q 2647 200 2364 54 
Q 2081 -91 1741 -91 
Q 1134 -91 817 281 
Q 500 653 500 1363 
z
" transform="scale(0.015625)"/>
      <path id="DejaVuSans-Bold-6e" d="M 4056 2131 
L 4056 0 
L 2931 0 
L 2931 347 
L 2931 1631 
Q 2931 2084 2911 2256 
Q 2891 2428 2841 2509 
Q 2775 2619 2662 2680 
Q 2550 2741 2406 2741 
Q 2056 2741 1856 2470 
Q 1656 2200 1656 1722 
L 1656 0 
L 538 0 
L 538 3500 
L 1656 3500 
L 1656 2988 
Q 1909 3294 2193 3439 
Q 2478 3584 2822 3584 
Q 3428 3584 3742 3212 
Q 4056 2841 4056 2131 
z
" transform="scale(0.015625)"/>
      <path id="DejaVuSans-Bold-71" d="M 2181 2772 
Q 1825 2772 1636 2509 
Q 1447 2247 1447 1747 
Q 1447 1247 1636 984 
Q 1825 722 2181 722 
Q 2541 722 2730 984 
Q 2919 1247 2919 1747 
Q 2919 2247 2730 2509 
Q 2541 2772 2181 2772 
z
M 2919 506 
Q 2688 197 2409 53 
Q 2131 -91 1766 -91 
Q 1119 -91 703 423 
Q 288 938 288 1747 
Q 288 2556 703 3067 
Q 1119 3578 1766 3578 
Q 2131 3578 2409 3434 
Q 2688 3291 2919 2981 
L 2919 3500 
L 4044 3500 
L 4044 -1331 
L 2919 -1331 
L 2919 506 
z
" transform="scale(0.015625)"/>
     </defs>
     <use xlink:href="#DejaVuSans-Bold-70"/>
     <use xlink:href="#DejaVuSans-Bold-75" transform="translate(71.582031 0)"/>
     <use xlink:href="#DejaVuSans-Bold-6e" transform="translate(142.773438 0)"/>
     <use xlink:href="#DejaVuSans-Bold-74" transform="translate(213.964844 0)"/>
     <use xlink:href="#DejaVuSans-Bold-6f" transform="translate(261.767578 0)"/>
     <use xlink:href="#DejaVuSans-Bold-20" transform="translate(330.46875 0)"/>
     <use xlink:href="#DejaVuSans-Bold-64" transform="translate(365.283203 0)"/>
     <use xlink:href="#DejaVuSans-Bold-69" transform="translate(436.865234 0)"/>
     <use xlink:href="#DejaVuSans-Bold-20" transform="translate(471.142578 0)"/>
     <use xlink:href="#DejaVuSans-Bold-65" transform="translate(505.957031 0)"/>
     <use xlink:href="#DejaVuSans-Bold-71" transform="translate(573.779297 0)"/>
     <use xlink:href="#DejaVuSans-Bold-75" transform="translate(645.361328 0)"/>
     <use xlink:href="#DejaVuSans-Bold-69" transform="translate(716.552734 0)"/>
     <use xlink:href="#DejaVuSans-Bold-6c" transform="translate(750.830078 0)"/>
     <use xlink:href="#DejaVuSans-Bold-69" transform="translate(785.107422 0)"/>
     <use xlink:href="#DejaVuSans-Bold-62" transform="translate(819.384766 0)"/>
     <use xlink:href="#DejaVuSans-Bold-72" transform="translate(890.966797 0)"/>
     <use xlink:href="#DejaVuSans-Bold-69" transform="translate(940.283203 0)"/>
     <use xlink:href="#DejaVuSans-Bold-6f" transform="translate(974.560547 0)"/>
    </g>
   </g>
   <g id="text_4">
    <!-- underfitting -->
    <g style="fill: #545454" transform="translate(30.331163 41.016394) scale(0.11 -0.11)">
     <defs>
      <path id="DejaVuSans-Oblique-75" d="M 428 1388 
L 838 3500 
L 1416 3500 
L 1006 1409 
Q 975 1256 961 1147 
Q 947 1038 947 966 
Q 947 700 1109 554 
Q 1272 409 1569 409 
Q 2031 409 2368 721 
Q 2706 1034 2809 1563 
L 3194 3500 
L 3769 3500 
L 3091 0 
L 2516 0 
L 2631 550 
Q 2388 244 2052 76 
Q 1716 -91 1338 -91 
Q 878 -91 622 161 
Q 366 413 366 863 
Q 366 956 381 1097 
Q 397 1238 428 1388 
z
" transform="scale(0.015625)"/>
      <path id="DejaVuSans-Oblique-6e" d="M 3566 2113 
L 3156 0 
L 2578 0 
L 2988 2091 
Q 3016 2238 3031 2350 
Q 3047 2463 3047 2528 
Q 3047 2791 2881 2937 
Q 2716 3084 2419 3084 
Q 1956 3084 1622 2776 
Q 1288 2469 1184 1941 
L 800 0 
L 225 0 
L 903 3500 
L 1478 3500 
L 1363 2950 
Q 1603 3253 1940 3418 
Q 2278 3584 2650 3584 
Q 3113 3584 3367 3334 
Q 3622 3084 3622 2631 
Q 3622 2519 3608 2391 
Q 3594 2263 3566 2113 
z
" transform="scale(0.015625)"/>
      <path id="DejaVuSans-Oblique-64" d="M 2675 525 
Q 2444 222 2128 65 
Q 1813 -91 1428 -91 
Q 903 -91 598 267 
Q 294 625 294 1247 
Q 294 1766 478 2236 
Q 663 2706 1013 3078 
Q 1244 3325 1534 3454 
Q 1825 3584 2144 3584 
Q 2481 3584 2739 3421 
Q 2997 3259 3138 2956 
L 3513 4863 
L 4091 4863 
L 3144 0 
L 2566 0 
L 2675 525 
z
M 891 1350 
Q 891 897 1095 644 
Q 1300 391 1663 391 
Q 1931 391 2161 520 
Q 2391 650 2566 903 
Q 2750 1166 2856 1509 
Q 2963 1853 2963 2188 
Q 2963 2622 2758 2865 
Q 2553 3109 2194 3109 
Q 1922 3109 1687 2981 
Q 1453 2853 1288 2613 
Q 1106 2353 998 2009 
Q 891 1666 891 1350 
z
" transform="scale(0.015625)"/>
      <path id="DejaVuSans-Oblique-65" d="M 3078 2063 
Q 3088 2113 3092 2166 
Q 3097 2219 3097 2272 
Q 3097 2653 2873 2875 
Q 2650 3097 2266 3097 
Q 1838 3097 1509 2826 
Q 1181 2556 1013 2059 
L 3078 2063 
z
M 3578 1613 
L 903 1613 
Q 884 1494 878 1425 
Q 872 1356 872 1306 
Q 872 872 1139 634 
Q 1406 397 1894 397 
Q 2269 397 2603 481 
Q 2938 566 3225 728 
L 3116 159 
Q 2806 34 2476 -28 
Q 2147 -91 1806 -91 
Q 1078 -91 686 257 
Q 294 606 294 1247 
Q 294 1794 489 2264 
Q 684 2734 1063 3103 
Q 1306 3334 1642 3459 
Q 1978 3584 2356 3584 
Q 2950 3584 3301 3228 
Q 3653 2872 3653 2272 
Q 3653 2128 3634 1964 
Q 3616 1800 3578 1613 
z
" transform="scale(0.015625)"/>
      <path id="DejaVuSans-Oblique-72" d="M 2853 2969 
Q 2766 3016 2653 3041 
Q 2541 3066 2413 3066 
Q 1953 3066 1609 2717 
Q 1266 2369 1153 1784 
L 800 0 
L 225 0 
L 909 3500 
L 1484 3500 
L 1375 2956 
Q 1603 3259 1920 3421 
Q 2238 3584 2597 3584 
Q 2691 3584 2781 3573 
Q 2872 3563 2963 3538 
L 2853 2969 
z
" transform="scale(0.015625)"/>
      <path id="DejaVuSans-Oblique-66" d="M 3059 4863 
L 2969 4384 
L 2419 4384 
Q 2106 4384 1964 4261 
Q 1822 4138 1753 3809 
L 1691 3500 
L 2638 3500 
L 2553 3053 
L 1606 3053 
L 1013 0 
L 434 0 
L 1031 3053 
L 481 3053 
L 563 3500 
L 1113 3500 
L 1159 3744 
Q 1278 4363 1576 4613 
Q 1875 4863 2516 4863 
L 3059 4863 
z
" transform="scale(0.015625)"/>
      <path id="DejaVuSans-Oblique-69" d="M 1172 4863 
L 1747 4863 
L 1606 4134 
L 1031 4134 
L 1172 4863 
z
M 909 3500 
L 1484 3500 
L 800 0 
L 225 0 
L 909 3500 
z
" transform="scale(0.015625)"/>
      <path id="DejaVuSans-Oblique-74" d="M 2706 3500 
L 2619 3053 
L 1472 3053 
L 1100 1153 
Q 1081 1047 1072 975 
Q 1063 903 1063 863 
Q 1063 663 1183 572 
Q 1303 481 1569 481 
L 2150 481 
L 2053 0 
L 1503 0 
Q 991 0 739 200 
Q 488 400 488 806 
Q 488 878 497 964 
Q 506 1050 525 1153 
L 897 3053 
L 409 3053 
L 500 3500 
L 978 3500 
L 1172 4494 
L 1747 4494 
L 1556 3500 
L 2706 3500 
z
" transform="scale(0.015625)"/>
      <path id="DejaVuSans-Oblique-67" d="M 3816 3500 
L 3219 434 
Q 3047 -456 2561 -893 
Q 2075 -1331 1253 -1331 
Q 950 -1331 690 -1286 
Q 431 -1241 206 -1147 
L 313 -588 
Q 525 -725 762 -790 
Q 1000 -856 1269 -856 
Q 1816 -856 2167 -557 
Q 2519 -259 2631 300 
L 2681 563 
Q 2441 288 2122 144 
Q 1803 0 1434 0 
Q 903 0 598 351 
Q 294 703 294 1319 
Q 294 1803 478 2267 
Q 663 2731 997 3091 
Q 1219 3328 1514 3456 
Q 1809 3584 2131 3584 
Q 2484 3584 2746 3420 
Q 3009 3256 3138 2956 
L 3238 3500 
L 3816 3500 
z
M 2950 2216 
Q 2950 2641 2750 2872 
Q 2550 3103 2181 3103 
Q 1953 3103 1747 3012 
Q 1541 2922 1394 2759 
Q 1156 2491 1023 2127 
Q 891 1763 891 1375 
Q 891 944 1092 712 
Q 1294 481 1672 481 
Q 2219 481 2584 976 
Q 2950 1472 2950 2216 
z
" transform="scale(0.015625)"/>
     </defs>
     <use xlink:href="#DejaVuSans-Oblique-75"/>
     <use xlink:href="#DejaVuSans-Oblique-6e" transform="translate(63.378906 0)"/>
     <use xlink:href="#DejaVuSans-Oblique-64" transform="translate(126.757812 0)"/>
     <use xlink:href="#DejaVuSans-Oblique-65" transform="translate(190.234375 0)"/>
     <use xlink:href="#DejaVuSans-Oblique-72" transform="translate(251.757812 0)"/>
     <use xlink:href="#DejaVuSans-Oblique-66" transform="translate(292.871094 0)"/>
     <use xlink:href="#DejaVuSans-Oblique-69" transform="translate(328.076172 0)"/>
     <use xlink:href="#DejaVuSans-Oblique-74" transform="translate(355.859375 0)"/>
     <use xlink:href="#DejaVuSans-Oblique-74" transform="translate(395.068359 0)"/>
     <use xlink:href="#DejaVuSans-Oblique-69" transform="translate(434.277344 0)"/>
     <use xlink:href="#DejaVuSans-Oblique-6e" transform="translate(462.060547 0)"/>
     <use xlink:href="#DejaVuSans-Oblique-67" transform="translate(525.439453 0)"/>
    </g>
   </g>
   <g id="text_5">
    <!-- overfitting -->
    <g style="fill: #545454" transform="translate(396.776806 41.016394) scale(0.11 -0.11)">
     <defs>
      <path id="DejaVuSans-Oblique-6f" d="M 1625 -91 
Q 1009 -91 651 289 
Q 294 669 294 1325 
Q 294 1706 417 2101 
Q 541 2497 738 2766 
Q 1047 3184 1428 3384 
Q 1809 3584 2291 3584 
Q 2888 3584 3255 3212 
Q 3622 2841 3622 2241 
Q 3622 1825 3500 1412 
Q 3378 1000 3181 728 
Q 2875 309 2494 109 
Q 2113 -91 1625 -91 
z
M 891 1344 
Q 891 869 1089 633 
Q 1288 397 1691 397 
Q 2269 397 2648 901 
Q 3028 1406 3028 2181 
Q 3028 2634 2825 2865 
Q 2622 3097 2228 3097 
Q 1903 3097 1650 2945 
Q 1397 2794 1197 2484 
Q 1050 2253 970 1956 
Q 891 1659 891 1344 
z
" transform="scale(0.015625)"/>
      <path id="DejaVuSans-Oblique-76" d="M 459 3500 
L 1069 3500 
L 1581 525 
L 3256 3500 
L 3866 3500 
L 1875 0 
L 1100 0 
L 459 3500 
z
" transform="scale(0.015625)"/>
     </defs>
     <use xlink:href="#DejaVuSans-Oblique-6f"/>
     <use xlink:href="#DejaVuSans-Oblique-76" transform="translate(61.181641 0)"/>
     <use xlink:href="#DejaVuSans-Oblique-65" transform="translate(120.361328 0)"/>
     <use xlink:href="#DejaVuSans-Oblique-72" transform="translate(181.884766 0)"/>
     <use xlink:href="#DejaVuSans-Oblique-66" transform="translate(222.998047 0)"/>
     <use xlink:href="#DejaVuSans-Oblique-69" transform="translate(258.203125 0)"/>
     <use xlink:href="#DejaVuSans-Oblique-74" transform="translate(285.986328 0)"/>
     <use xlink:href="#DejaVuSans-Oblique-74" transform="translate(325.195312 0)"/>
     <use xlink:href="#DejaVuSans-Oblique-69" transform="translate(364.404297 0)"/>
     <use xlink:href="#DejaVuSans-Oblique-6e" transform="translate(392.1875 0)"/>
     <use xlink:href="#DejaVuSans-Oblique-67" transform="translate(455.566406 0)"/>
    </g>
   </g>
   <g id="line2d_5">
    <path d="M 23.781563 82.168205 
L 28.158906 90.267101 
L 32.536249 97.965272 
L 36.913593 105.280801 
L 41.290936 112.230893 
L 45.668279 118.831918 
L 50.045623 125.099447 
L 54.422966 131.048289 
L 58.800309 136.692526 
L 63.177653 142.045544 
L 68.649332 148.346616 
L 74.121011 154.235964 
L 79.59269 159.7356 
L 85.06437 164.866153 
L 90.536049 169.646955 
L 96.007728 174.096105 
L 101.479407 178.230536 
L 106.951086 182.066085 
L 112.422766 185.617544 
L 117.894445 188.898721 
L 123.366124 191.922488 
L 128.837803 194.700834 
L 134.309482 197.244905 
L 139.781161 199.565051 
L 145.252841 201.670865 
L 150.72452 203.571219 
L 157.290535 205.591915 
L 163.85655 207.341409 
L 170.422565 208.831328 
L 176.98858 210.072086 
L 183.554595 211.072945 
L 190.12061 211.842072 
L 196.686625 212.386592 
L 203.25264 212.712629 
L 209.818655 212.825354 
L 216.38467 212.729018 
L 222.950685 212.426988 
L 229.5167 211.92177 
L 236.082715 211.215043 
L 242.64873 210.307672 
L 249.214745 209.19973 
L 255.78076 207.890512 
L 262.346776 206.378547 
L 268.912791 204.661602 
L 275.478806 202.736693 
L 282.044821 200.600083 
L 288.610836 198.24728 
L 295.176851 195.673036 
L 301.742866 192.87134 
L 308.308881 189.835407 
L 314.874896 186.557665 
L 321.440911 183.02974 
L 328.006926 179.242442 
L 334.572941 175.185737 
L 341.138956 170.848729 
L 347.704971 166.219629 
L 354.270986 161.285731 
L 360.837001 156.033372 
L 367.403016 150.4479 
L 373.969031 144.513637 
L 379.44071 139.289929 
L 384.91239 133.802108 
L 390.384069 128.039334 
L 395.855748 121.990185 
L 401.327427 115.642641 
L 406.799106 108.984056 
L 412.270786 102.001134 
L 417.742465 94.679906 
L 423.214144 87.005698 
L 428.685823 78.963105 
L 434.157502 70.535961 
L 439.629182 61.707302 
L 445.100861 52.459338 
L 450.57254 42.773416 
L 456.044219 32.629978 
L 460.421562 24.172075 
L 460.421562 24.172075 
" clip-path="url(#p2270d31b2b)" style="fill: none; stroke: #002060; stroke-width: 3.4; stroke-linecap: square"/>
   </g>
   <g id="legend_1">
    <g id="line2d_6">
     <path d="M 106.554922 21.608281 
L 116.454922 21.608281 
L 126.354922 21.608281 
" style="fill: none; stroke: #002060; stroke-width: 3.4; stroke-linecap: square"/>
    </g>
    <g id="text_6">
     <!-- errore totale (test) -->
     <g style="fill: #414f69" transform="translate(135.154922 25.458281) scale(0.11 -0.11)">
      <defs>
       <path id="DejaVuSans-65" d="M 3597 1894 
L 3597 1613 
L 953 1613 
Q 991 1019 1311 708 
Q 1631 397 2203 397 
Q 2534 397 2845 478 
Q 3156 559 3463 722 
L 3463 178 
Q 3153 47 2828 -22 
Q 2503 -91 2169 -91 
Q 1331 -91 842 396 
Q 353 884 353 1716 
Q 353 2575 817 3079 
Q 1281 3584 2069 3584 
Q 2775 3584 3186 3129 
Q 3597 2675 3597 1894 
z
M 3022 2063 
Q 3016 2534 2758 2815 
Q 2500 3097 2075 3097 
Q 1594 3097 1305 2825 
Q 1016 2553 972 2059 
L 3022 2063 
z
" transform="scale(0.015625)"/>
       <path id="DejaVuSans-72" d="M 2631 2963 
Q 2534 3019 2420 3045 
Q 2306 3072 2169 3072 
Q 1681 3072 1420 2755 
Q 1159 2438 1159 1844 
L 1159 0 
L 581 0 
L 581 3500 
L 1159 3500 
L 1159 2956 
Q 1341 3275 1631 3429 
Q 1922 3584 2338 3584 
Q 2397 3584 2469 3576 
Q 2541 3569 2628 3553 
L 2631 2963 
z
" transform="scale(0.015625)"/>
       <path id="DejaVuSans-6f" d="M 1959 3097 
Q 1497 3097 1228 2736 
Q 959 2375 959 1747 
Q 959 1119 1226 758 
Q 1494 397 1959 397 
Q 2419 397 2687 759 
Q 2956 1122 2956 1747 
Q 2956 2369 2687 2733 
Q 2419 3097 1959 3097 
z
M 1959 3584 
Q 2709 3584 3137 3096 
Q 3566 2609 3566 1747 
Q 3566 888 3137 398 
Q 2709 -91 1959 -91 
Q 1206 -91 779 398 
Q 353 888 353 1747 
Q 353 2609 779 3096 
Q 1206 3584 1959 3584 
z
" transform="scale(0.015625)"/>
       <path id="DejaVuSans-20" transform="scale(0.015625)"/>
       <path id="DejaVuSans-74" d="M 1172 4494 
L 1172 3500 
L 2356 3500 
L 2356 3053 
L 1172 3053 
L 1172 1153 
Q 1172 725 1289 603 
Q 1406 481 1766 481 
L 2356 481 
L 2356 0 
L 1766 0 
Q 1100 0 847 248 
Q 594 497 594 1153 
L 594 3053 
L 172 3053 
L 172 3500 
L 594 3500 
L 594 4494 
L 1172 4494 
z
" transform="scale(0.015625)"/>
       <path id="DejaVuSans-61" d="M 2194 1759 
Q 1497 1759 1228 1600 
Q 959 1441 959 1056 
Q 959 750 1161 570 
Q 1363 391 1709 391 
Q 2188 391 2477 730 
Q 2766 1069 2766 1631 
L 2766 1759 
L 2194 1759 
z
M 3341 1997 
L 3341 0 
L 2766 0 
L 2766 531 
Q 2569 213 2275 61 
Q 1981 -91 1556 -91 
Q 1019 -91 701 211 
Q 384 513 384 1019 
Q 384 1609 779 1909 
Q 1175 2209 1959 2209 
L 2766 2209 
L 2766 2266 
Q 2766 2663 2505 2880 
Q 2244 3097 1772 3097 
Q 1472 3097 1187 3025 
Q 903 2953 641 2809 
L 641 3341 
Q 956 3463 1253 3523 
Q 1550 3584 1831 3584 
Q 2591 3584 2966 3190 
Q 3341 2797 3341 1997 
z
" transform="scale(0.015625)"/>
       <path id="DejaVuSans-6c" d="M 603 4863 
L 1178 4863 
L 1178 0 
L 603 0 
L 603 4863 
z
" transform="scale(0.015625)"/>
       <path id="DejaVuSans-28" d="M 1984 4856 
Q 1566 4138 1362 3434 
Q 1159 2731 1159 2009 
Q 1159 1288 1364 580 
Q 1569 -128 1984 -844 
L 1484 -844 
Q 1016 -109 783 600 
Q 550 1309 550 2009 
Q 550 2706 781 3412 
Q 1013 4119 1484 4856 
L 1984 4856 
z
" transform="scale(0.015625)"/>
       <path id="DejaVuSans-73" d="M 2834 3397 
L 2834 2853 
Q 2591 2978 2328 3040 
Q 2066 3103 1784 3103 
Q 1356 3103 1142 2972 
Q 928 2841 928 2578 
Q 928 2378 1081 2264 
Q 1234 2150 1697 2047 
L 1894 2003 
Q 2506 1872 2764 1633 
Q 3022 1394 3022 966 
Q 3022 478 2636 193 
Q 2250 -91 1575 -91 
Q 1294 -91 989 -36 
Q 684 19 347 128 
L 347 722 
Q 666 556 975 473 
Q 1284 391 1588 391 
Q 1994 391 2212 530 
Q 2431 669 2431 922 
Q 2431 1156 2273 1281 
Q 2116 1406 1581 1522 
L 1381 1569 
Q 847 1681 609 1914 
Q 372 2147 372 2553 
Q 372 3047 722 3315 
Q 1072 3584 1716 3584 
Q 2034 3584 2315 3537 
Q 2597 3491 2834 3397 
z
" transform="scale(0.015625)"/>
       <path id="DejaVuSans-29" d="M 513 4856 
L 1013 4856 
Q 1481 4119 1714 3412 
Q 1947 2706 1947 2009 
Q 1947 1309 1714 600 
Q 1481 -109 1013 -844 
L 513 -844 
Q 928 -128 1133 580 
Q 1338 1288 1338 2009 
Q 1338 2731 1133 3434 
Q 928 4138 513 4856 
z
" transform="scale(0.015625)"/>
      </defs>
      <use xlink:href="#DejaVuSans-65"/>
      <use xlink:href="#DejaVuSans-72" transform="translate(61.523438 0)"/>
      <use xlink:href="#DejaVuSans-72" transform="translate(100.886719 0)"/>
      <use xlink:href="#DejaVuSans-6f" transform="translate(139.75 0)"/>
      <use xlink:href="#DejaVuSans-72" transform="translate(200.931641 0)"/>
      <use xlink:href="#DejaVuSans-65" transform="translate(239.794922 0)"/>
      <use xlink:href="#DejaVuSans-20" transform="translate(301.318359 0)"/>
      <use xlink:href="#DejaVuSans-74" transform="translate(333.105469 0)"/>
      <use xlink:href="#DejaVuSans-6f" transform="translate(372.314453 0)"/>
      <use xlink:href="#DejaVuSans-74" transform="translate(433.496094 0)"/>
      <use xlink:href="#DejaVuSans-61" transform="translate(472.705078 0)"/>
      <use xlink:href="#DejaVuSans-6c" transform="translate(533.984375 0)"/>
      <use xlink:href="#DejaVuSans-65" transform="translate(561.767578 0)"/>
      <use xlink:href="#DejaVuSans-20" transform="translate(623.291016 0)"/>
      <use xlink:href="#DejaVuSans-28" transform="translate(655.078125 0)"/>
      <use xlink:href="#DejaVuSans-74" transform="translate(694.091797 0)"/>
      <use xlink:href="#DejaVuSans-65" transform="translate(733.300781 0)"/>
      <use xlink:href="#DejaVuSans-73" transform="translate(794.824219 0)"/>
      <use xlink:href="#DejaVuSans-74" transform="translate(846.923828 0)"/>
      <use xlink:href="#DejaVuSans-29" transform="translate(886.132812 0)"/>
     </g>
    </g>
    <g id="line2d_7">
     <path d="M 106.554922 37.754219 
L 116.454922 37.754219 
L 126.354922 37.754219 
" style="fill: none; stroke: #dc4c4c; stroke-width: 2.2; stroke-linecap: square"/>
    </g>
    <g id="text_7">
     <!-- distorsione$^2$ -->
     <g style="fill: #414f69" transform="translate(135.154922 41.604219) scale(0.11 -0.11)">
      <defs>
       <path id="DejaVuSans-64" d="M 2906 2969 
L 2906 4863 
L 3481 4863 
L 3481 0 
L 2906 0 
L 2906 525 
Q 2725 213 2448 61 
Q 2172 -91 1784 -91 
Q 1150 -91 751 415 
Q 353 922 353 1747 
Q 353 2572 751 3078 
Q 1150 3584 1784 3584 
Q 2172 3584 2448 3432 
Q 2725 3281 2906 2969 
z
M 947 1747 
Q 947 1113 1208 752 
Q 1469 391 1925 391 
Q 2381 391 2643 752 
Q 2906 1113 2906 1747 
Q 2906 2381 2643 2742 
Q 2381 3103 1925 3103 
Q 1469 3103 1208 2742 
Q 947 2381 947 1747 
z
" transform="scale(0.015625)"/>
       <path id="DejaVuSans-69" d="M 603 3500 
L 1178 3500 
L 1178 0 
L 603 0 
L 603 3500 
z
M 603 4863 
L 1178 4863 
L 1178 4134 
L 603 4134 
L 603 4863 
z
" transform="scale(0.015625)"/>
       <path id="DejaVuSans-6e" d="M 3513 2113 
L 3513 0 
L 2938 0 
L 2938 2094 
Q 2938 2591 2744 2837 
Q 2550 3084 2163 3084 
Q 1697 3084 1428 2787 
Q 1159 2491 1159 1978 
L 1159 0 
L 581 0 
L 581 3500 
L 1159 3500 
L 1159 2956 
Q 1366 3272 1645 3428 
Q 1925 3584 2291 3584 
Q 2894 3584 3203 3211 
Q 3513 2838 3513 2113 
z
" transform="scale(0.015625)"/>
       <path id="DejaVuSans-32" d="M 1228 531 
L 3431 531 
L 3431 0 
L 469 0 
L 469 531 
Q 828 903 1448 1529 
Q 2069 2156 2228 2338 
Q 2531 2678 2651 2914 
Q 2772 3150 2772 3378 
Q 2772 3750 2511 3984 
Q 2250 4219 1831 4219 
Q 1534 4219 1204 4116 
Q 875 4013 500 3803 
L 500 4441 
Q 881 4594 1212 4672 
Q 1544 4750 1819 4750 
Q 2544 4750 2975 4387 
Q 3406 4025 3406 3419 
Q 3406 3131 3298 2873 
Q 3191 2616 2906 2266 
Q 2828 2175 2409 1742 
Q 1991 1309 1228 531 
z
" transform="scale(0.015625)"/>
      </defs>
      <use xlink:href="#DejaVuSans-64" transform="translate(0 0.765625)"/>
      <use xlink:href="#DejaVuSans-69" transform="translate(63.476562 0.765625)"/>
      <use xlink:href="#DejaVuSans-73" transform="translate(91.259766 0.765625)"/>
      <use xlink:href="#DejaVuSans-74" transform="translate(143.359375 0.765625)"/>
      <use xlink:href="#DejaVuSans-6f" transform="translate(182.568359 0.765625)"/>
      <use xlink:href="#DejaVuSans-72" transform="translate(243.75 0.765625)"/>
      <use xlink:href="#DejaVuSans-73" transform="translate(284.863281 0.765625)"/>
      <use xlink:href="#DejaVuSans-69" transform="translate(336.962891 0.765625)"/>
      <use xlink:href="#DejaVuSans-6f" transform="translate(364.746094 0.765625)"/>
      <use xlink:href="#DejaVuSans-6e" transform="translate(425.927734 0.765625)"/>
      <use xlink:href="#DejaVuSans-65" transform="translate(489.306641 0.765625)"/>
      <use xlink:href="#DejaVuSans-32" transform="translate(551.787109 39.046875) scale(0.7)"/>
     </g>
    </g>
    <g id="line2d_8">
     <path d="M 254.520391 21.608281 
L 264.420391 21.608281 
L 274.320391 21.608281 
" style="fill: none; stroke: #00adcf; stroke-width: 2.2; stroke-linecap: square"/>
    </g>
    <g id="text_8">
     <!-- varianza -->
     <g style="fill: #414f69" transform="translate(283.120391 25.458281) scale(0.11 -0.11)">
      <defs>
       <path id="DejaVuSans-76" d="M 191 3500 
L 800 3500 
L 1894 563 
L 2988 3500 
L 3597 3500 
L 2284 0 
L 1503 0 
L 191 3500 
z
" transform="scale(0.015625)"/>
       <path id="DejaVuSans-7a" d="M 353 3500 
L 3084 3500 
L 3084 2975 
L 922 459 
L 3084 459 
L 3084 0 
L 275 0 
L 275 525 
L 2438 3041 
L 353 3041 
L 353 3500 
z
" transform="scale(0.015625)"/>
      </defs>
      <use xlink:href="#DejaVuSans-76"/>
      <use xlink:href="#DejaVuSans-61" transform="translate(59.179688 0)"/>
      <use xlink:href="#DejaVuSans-72" transform="translate(120.458984 0)"/>
      <use xlink:href="#DejaVuSans-69" transform="translate(161.572266 0)"/>
      <use xlink:href="#DejaVuSans-61" transform="translate(189.355469 0)"/>
      <use xlink:href="#DejaVuSans-6e" transform="translate(250.634766 0)"/>
      <use xlink:href="#DejaVuSans-7a" transform="translate(314.013672 0)"/>
      <use xlink:href="#DejaVuSans-61" transform="translate(366.503906 0)"/>
     </g>
    </g>
    <g id="line2d_9">
     <path d="M 254.520391 37.754219 
L 264.420391 37.754219 
L 274.320391 37.754219 
" style="fill: none; stroke-dasharray: 9,7.2; stroke-dashoffset: 0; stroke: #545454; stroke-width: 1.8"/>
    </g>
    <g id="text_9">
     <!-- errore irriducibile -->
     <g style="fill: #414f69" transform="translate(283.120391 41.604219) scale(0.11 -0.11)">
      <defs>
       <path id="DejaVuSans-75" d="M 544 1381 
L 544 3500 
L 1119 3500 
L 1119 1403 
Q 1119 906 1312 657 
Q 1506 409 1894 409 
Q 2359 409 2629 706 
Q 2900 1003 2900 1516 
L 2900 3500 
L 3475 3500 
L 3475 0 
L 2900 0 
L 2900 538 
Q 2691 219 2414 64 
Q 2138 -91 1772 -91 
Q 1169 -91 856 284 
Q 544 659 544 1381 
z
M 1991 3584 
L 1991 3584 
z
" transform="scale(0.015625)"/>
       <path id="DejaVuSans-63" d="M 3122 3366 
L 3122 2828 
Q 2878 2963 2633 3030 
Q 2388 3097 2138 3097 
Q 1578 3097 1268 2742 
Q 959 2388 959 1747 
Q 959 1106 1268 751 
Q 1578 397 2138 397 
Q 2388 397 2633 464 
Q 2878 531 3122 666 
L 3122 134 
Q 2881 22 2623 -34 
Q 2366 -91 2075 -91 
Q 1284 -91 818 406 
Q 353 903 353 1747 
Q 353 2603 823 3093 
Q 1294 3584 2113 3584 
Q 2378 3584 2631 3529 
Q 2884 3475 3122 3366 
z
" transform="scale(0.015625)"/>
       <path id="DejaVuSans-62" d="M 3116 1747 
Q 3116 2381 2855 2742 
Q 2594 3103 2138 3103 
Q 1681 3103 1420 2742 
Q 1159 2381 1159 1747 
Q 1159 1113 1420 752 
Q 1681 391 2138 391 
Q 2594 391 2855 752 
Q 3116 1113 3116 1747 
z
M 1159 2969 
Q 1341 3281 1617 3432 
Q 1894 3584 2278 3584 
Q 2916 3584 3314 3078 
Q 3713 2572 3713 1747 
Q 3713 922 3314 415 
Q 2916 -91 2278 -91 
Q 1894 -91 1617 61 
Q 1341 213 1159 525 
L 1159 0 
L 581 0 
L 581 4863 
L 1159 4863 
L 1159 2969 
z
" transform="scale(0.015625)"/>
      </defs>
      <use xlink:href="#DejaVuSans-65"/>
      <use xlink:href="#DejaVuSans-72" transform="translate(61.523438 0)"/>
      <use xlink:href="#DejaVuSans-72" transform="translate(100.886719 0)"/>
      <use xlink:href="#DejaVuSans-6f" transform="translate(139.75 0)"/>
      <use xlink:href="#DejaVuSans-72" transform="translate(200.931641 0)"/>
      <use xlink:href="#DejaVuSans-65" transform="translate(239.794922 0)"/>
      <use xlink:href="#DejaVuSans-20" transform="translate(301.318359 0)"/>
      <use xlink:href="#DejaVuSans-69" transform="translate(333.105469 0)"/>
      <use xlink:href="#DejaVuSans-72" transform="translate(360.888672 0)"/>
      <use xlink:href="#DejaVuSans-72" transform="translate(400.251953 0)"/>
      <use xlink:href="#DejaVuSans-69" transform="translate(441.365234 0)"/>
      <use xlink:href="#DejaVuSans-64" transform="translate(469.148438 0)"/>
      <use xlink:href="#DejaVuSans-75" transform="translate(532.625 0)"/>
      <use xlink:href="#DejaVuSans-63" transform="translate(596.003906 0)"/>
      <use xlink:href="#DejaVuSans-69" transform="translate(650.984375 0)"/>
      <use xlink:href="#DejaVuSans-62" transform="translate(678.767578 0)"/>
      <use xlink:href="#DejaVuSans-69" transform="translate(742.244141 0)"/>
      <use xlink:href="#DejaVuSans-6c" transform="translate(770.027344 0)"/>
      <use xlink:href="#DejaVuSans-65" transform="translate(797.810547 0)"/>
     </g>
    </g>
   </g>
   <g id="line2d_10">
    <defs>
     <path id="m1e46b96792" d="M 0 4.5 
C 1.193414 4.5 2.338109 4.025852 3.181981 3.181981 
C 4.025852 2.338109 4.5 1.193414 4.5 0 
C 4.5 -1.193414 4.025852 -2.338109 3.181981 -3.181981 
C 2.338109 -4.025852 1.193414 -4.5 0 -4.5 
C -1.193414 -4.5 -2.338109 -4.025852 -3.181981 -3.181981 
C -4.025852 -2.338109 -4.5 -1.193414 -4.5 0 
C -4.5 1.193414 -4.025852 2.338109 -3.181981 3.181981 
C -2.338109 4.025852 -1.193414 4.5 0 4.5 
z
" style="stroke: #002060"/>
    </defs>
    <g clip-path="url(#p2270d31b2b)">
     <use xlink:href="#m1e46b96792" x="209.818655" y="212.825354" style="fill: #002060; stroke: #002060"/>
    </g>
   </g>
  </g>
 </g>
 <defs>
  <clipPath id="p2270d31b2b">
   <rect x="23.781563" y="7.2" width="436.64" height="299.84"/>
  </clipPath>
 </defs>
</svg>
