<?xml version="1.0" encoding="utf-8" standalone="no"?>
<!DOCTYPE svg PUBLIC "-//W3C//DTD SVG 1.1//EN"
  "http://www.w3.org/Graphics/SVG/1.1/DTD/svg11.dtd">
<svg xmlns:xlink="http://www.w3.org/1999/xlink" width="452.158125pt" height="283.102125pt" viewBox="0 0 452.158125 283.102125" xmlns="http://www.w3.org/2000/svg" version="1.1">
 <metadata>
  <rdf:RDF xmlns:dc="http://purl.org/dc/elements/1.1/" xmlns:cc="http://creativecommons.org/ns#" xmlns:rdf="http://www.w3.org/1999/02/22-rdf-syntax-ns#">
   <cc:Work>
    <dc:type rdf:resource="http://purl.org/dc/dcmitype/StillImage"/>
    <dc:date>2026-06-25T09:42:50.168217</dc:date>
    <dc:format>image/svg+xml</dc:format>
    <dc:creator>
     <cc:Agent>
      <dc:title>Matplotlib v3.10.0, https://matplotlib.org/</dc:title>
     </cc:Agent>
    </dc:creator>
   </cc:Work>
  </rdf:RDF>
 </metadata>
 <defs>
  <style type="text/css">*{stroke-linejoin: round; stroke-linecap: butt}</style>
 </defs>
 <g id="figure_1">
  <g id="patch_1">
   <path d="M 0 283.102125 
L 452.158125 283.102125 
L 452.158125 0 
L 0 0 
L 0 283.102125 
z
" style="fill: none"/>
  </g>
  <g id="axes_1">
   <g id="patch_2">
    <path d="M 20.878125 262.224 
L 444.958125 262.224 
L 444.958125 7.2 
L 20.878125 7.2 
L 20.878125 262.224 
z
" style="fill: none"/>
   </g>
   <g id="matplotlib.axis_1">
    <g id="text_1">
     <text style="font-size: 10px; font-family: 'DejaVu Sans'; text-anchor: middle; fill: #414f69" x="232.918125" y="273.822437" transform="rotate(-0 232.918125 273.822437)">X</text>
    </g>
   </g>
   <g id="matplotlib.axis_2">
    <g id="text_2">
     <text style="font-size: 10px; font-family: 'DejaVu Sans'; text-anchor: middle; fill: #414f69" x="14.798437" y="134.712" transform="rotate(-90 14.798437 134.712)">Y</text>
    </g>
   </g>
   <g id="line2d_1">
    <path d="M 40.154489 110.217259 
L 45.312044 107.718999 
L 50.4696 104.989374 
L 56.916544 101.292827 
L 63.363488 97.336884 
L 72.38921 91.495275 
L 94.308821 77.108176 
L 100.755766 73.196878 
L 105.913321 70.286308 
L 111.070877 67.619934 
L 116.228432 65.242603 
L 120.096599 63.675255 
L 123.964765 62.312032 
L 127.832932 61.16934 
L 131.701099 60.26257 
L 135.569265 59.605978 
L 139.437432 59.21257 
L 143.305598 59.09399 
L 147.173765 59.26042 
L 151.041932 59.720482 
L 154.910098 60.481152 
L 158.778265 61.547685 
L 162.646431 62.923543 
L 166.514598 64.610339 
L 170.382765 66.607789 
L 174.250931 68.913677 
L 178.119098 71.523831 
L 181.987265 74.432104 
L 185.855431 77.63038 
L 189.723598 81.108582 
L 193.591764 84.854693 
L 197.459931 88.854795 
L 202.617487 94.555836 
L 207.775042 100.637836 
L 212.932597 107.053101 
L 219.379542 115.460127 
L 227.115875 125.967284 
L 254.193041 163.225783 
L 259.350597 169.837017 
L 264.508152 176.117901 
L 269.665708 181.997401 
L 273.533874 186.10202 
L 277.402041 189.913891 
L 281.270208 193.405972 
L 285.138374 196.552452 
L 289.006541 199.328918 
L 291.585319 200.962981 
L 294.164096 202.416051 
L 296.742874 203.682136 
L 299.321652 204.755621 
L 301.90043 205.631288 
L 304.479207 206.304332 
L 307.057985 206.770379 
L 309.636763 207.0255 
L 312.215541 207.066227 
L 314.794318 206.889567 
L 317.373096 206.493014 
L 319.951874 205.874557 
L 322.530652 205.032699 
L 325.109429 203.966456 
L 327.688207 202.675373 
L 330.266985 201.159528 
L 332.845763 199.419535 
L 335.42454 197.456554 
L 338.003318 195.272286 
L 340.582096 192.868985 
L 343.160874 190.249448 
L 347.02904 185.922169 
L 350.897207 181.129601 
L 354.765373 175.888051 
L 358.63354 170.216506 
L 362.501707 164.136568 
L 366.369873 157.67238 
L 370.23804 150.850533 
L 375.395595 141.248708 
L 380.553151 131.137398 
L 387.000095 117.905918 
L 394.736428 101.386714 
L 407.630317 73.133734 
L 417.945428 50.79233 
L 424.392372 37.351995 
L 425.681761 34.735051 
L 425.681761 34.735051 
" clip-path="url(#p5e94935cf4)" style="fill: none; stroke: #002060; stroke-width: 2.6; stroke-linecap: square"/>
   </g>
   <g id="patch_3">
    <path d="M 20.878125 262.224 
L 20.878125 7.2 
" style="fill: none; stroke: #414f69; stroke-width: 0.8; stroke-linejoin: miter; stroke-linecap: square"/>
   </g>
   <g id="patch_4">
    <path d="M 20.878125 262.224 
L 444.958125 262.224 
" style="fill: none; stroke: #414f69; stroke-width: 0.8; stroke-linejoin: miter; stroke-linecap: square"/>
   </g>
   <g id="PathCollection_1">
    <defs>
     <path id="m7149f7a588" d="M 0 3.24037 
C 0.859356 3.24037 1.683631 2.898944 2.291288 2.291288 
C 2.898944 1.683631 3.24037 0.859356 3.24037 0 
C 3.24037 -0.859356 2.898944 -1.683631 2.291288 -2.291288 
C 1.683631 -2.898944 0.859356 -3.24037 0 -3.24037 
C -0.859356 -3.24037 -1.683631 -2.898944 -2.291288 -2.291288 
C -2.898944 -1.683631 -3.24037 -0.859356 -3.24037 0 
C -3.24037 0.859356 -2.898944 1.683631 -2.291288 2.291288 
C -1.683631 2.898944 -0.859356 3.24037 0 3.24037 
z
" style="stroke: #ffffff; stroke-width: 0.5"/>
    </defs>
    <g clip-path="url(#p5e94935cf4)">
     <use xlink:href="#m7149f7a588" x="232.639721" y="154.32248" style="fill: #b9bfca; stroke: #ffffff; stroke-width: 0.5"/>
     <use xlink:href="#m7149f7a588" x="272.04851" y="158.727666" style="fill: #b9bfca; stroke: #ffffff; stroke-width: 0.5"/>
     <use xlink:href="#m7149f7a588" x="51.214884" y="130.502102" style="fill: #b9bfca; stroke: #ffffff; stroke-width: 0.5"/>
     <use xlink:href="#m7149f7a588" x="97.184029" y="63.682455" style="fill: #b9bfca; stroke: #ffffff; stroke-width: 0.5"/>
     <use xlink:href="#m7149f7a588" x="398.005153" y="67.518794" style="fill: #b9bfca; stroke: #ffffff; stroke-width: 0.5"/>
     <use xlink:href="#m7149f7a588" x="90.185885" y="85.945415" style="fill: #b9bfca; stroke: #ffffff; stroke-width: 0.5"/>
     <use xlink:href="#m7149f7a588" x="279.907574" y="187.199401" style="fill: #b9bfca; stroke: #ffffff; stroke-width: 0.5"/>
     <use xlink:href="#m7149f7a588" x="182.411401" y="43.653113" style="fill: #b9bfca; stroke: #ffffff; stroke-width: 0.5"/>
     <use xlink:href="#m7149f7a588" x="146.293546" y="71.010435" style="fill: #b9bfca; stroke: #ffffff; stroke-width: 0.5"/>
     <use xlink:href="#m7149f7a588" x="93.344943" y="63.258267" style="fill: #b9bfca; stroke: #ffffff; stroke-width: 0.5"/>
     <use xlink:href="#m7149f7a588" x="343.965244" y="156.937452" style="fill: #b9bfca; stroke: #ffffff; stroke-width: 0.5"/>
     <use xlink:href="#m7149f7a588" x="298.596776" y="195.819077" style="fill: #b9bfca; stroke: #ffffff; stroke-width: 0.5"/>
     <use xlink:href="#m7149f7a588" x="237.691845" y="156.029945" style="fill: #b9bfca; stroke: #ffffff; stroke-width: 0.5"/>
     <use xlink:href="#m7149f7a588" x="251.83798" y="160.458216" style="fill: #b9bfca; stroke: #ffffff; stroke-width: 0.5"/>
     <use xlink:href="#m7149f7a588" x="418.323449" y="54.176261" style="fill: #b9bfca; stroke: #ffffff; stroke-width: 0.5"/>
     <use xlink:href="#m7149f7a588" x="118.998464" y="79.191287" style="fill: #b9bfca; stroke: #ffffff; stroke-width: 0.5"/>
     <use xlink:href="#m7149f7a588" x="253.632645" y="154.533614" style="fill: #b9bfca; stroke: #ffffff; stroke-width: 0.5"/>
     <use xlink:href="#m7149f7a588" x="176.35158" y="72.204278" style="fill: #b9bfca; stroke: #ffffff; stroke-width: 0.5"/>
     <use xlink:href="#m7149f7a588" x="268.230613" y="184.960745" style="fill: #b9bfca; stroke: #ffffff; stroke-width: 0.5"/>
     <use xlink:href="#m7149f7a588" x="130.869531" y="86.837891" style="fill: #b9bfca; stroke: #ffffff; stroke-width: 0.5"/>
     <use xlink:href="#m7149f7a588" x="349.425501" y="192.996262" style="fill: #b9bfca; stroke: #ffffff; stroke-width: 0.5"/>
     <use xlink:href="#m7149f7a588" x="374.535227" y="118.099185" style="fill: #b9bfca; stroke: #ffffff; stroke-width: 0.5"/>
     <use xlink:href="#m7149f7a588" x="89.794854" y="83.897381" style="fill: #b9bfca; stroke: #ffffff; stroke-width: 0.5"/>
     <use xlink:href="#m7149f7a588" x="220.223948" y="146.169177" style="fill: #b9bfca; stroke: #ffffff; stroke-width: 0.5"/>
     <use xlink:href="#m7149f7a588" x="72.198358" y="80.725944" style="fill: #b9bfca; stroke: #ffffff; stroke-width: 0.5"/>
     <use xlink:href="#m7149f7a588" x="385.565454" y="77.585019" style="fill: #b9bfca; stroke: #ffffff; stroke-width: 0.5"/>
     <use xlink:href="#m7149f7a588" x="205.911435" y="97.114702" style="fill: #b9bfca; stroke: #ffffff; stroke-width: 0.5"/>
     <use xlink:href="#m7149f7a588" x="97.093513" y="84.866622" style="fill: #b9bfca; stroke: #ffffff; stroke-width: 0.5"/>
     <use xlink:href="#m7149f7a588" x="299.754042" y="234.660968" style="fill: #b9bfca; stroke: #ffffff; stroke-width: 0.5"/>
     <use xlink:href="#m7149f7a588" x="118.114282" y="37.253294" style="fill: #b9bfca; stroke: #ffffff; stroke-width: 0.5"/>
     <use xlink:href="#m7149f7a588" x="123.871064" y="79.210164" style="fill: #b9bfca; stroke: #ffffff; stroke-width: 0.5"/>
     <use xlink:href="#m7149f7a588" x="52.905683" y="116.922728" style="fill: #b9bfca; stroke: #ffffff; stroke-width: 0.5"/>
     <use xlink:href="#m7149f7a588" x="173.449723" y="85.471919" style="fill: #b9bfca; stroke: #ffffff; stroke-width: 0.5"/>
     <use xlink:href="#m7149f7a588" x="220.931374" y="123.095946" style="fill: #b9bfca; stroke: #ffffff; stroke-width: 0.5"/>
     <use xlink:href="#m7149f7a588" x="389.493989" y="119.832249" style="fill: #b9bfca; stroke: #ffffff; stroke-width: 0.5"/>
     <use xlink:href="#m7149f7a588" x="309.006207" y="203.038639" style="fill: #b9bfca; stroke: #ffffff; stroke-width: 0.5"/>
     <use xlink:href="#m7149f7a588" x="46.661115" y="106.572923" style="fill: #b9bfca; stroke: #ffffff; stroke-width: 0.5"/>
     <use xlink:href="#m7149f7a588" x="101.770882" y="53.726156" style="fill: #b9bfca; stroke: #ffffff; stroke-width: 0.5"/>
     <use xlink:href="#m7149f7a588" x="424.307694" y="46.152188" style="fill: #b9bfca; stroke: #ffffff; stroke-width: 0.5"/>
     <use xlink:href="#m7149f7a588" x="217.387537" y="106.087067" style="fill: #b9bfca; stroke: #ffffff; stroke-width: 0.5"/>
     <use xlink:href="#m7149f7a588" x="61.230517" y="128.462254" style="fill: #b9bfca; stroke: #ffffff; stroke-width: 0.5"/>
     <use xlink:href="#m7149f7a588" x="53.2818" y="87.059349" style="fill: #b9bfca; stroke: #ffffff; stroke-width: 0.5"/>
     <use xlink:href="#m7149f7a588" x="162.511838" y="35.701747" style="fill: #b9bfca; stroke: #ffffff; stroke-width: 0.5"/>
     <use xlink:href="#m7149f7a588" x="74.557884" y="73.378141" style="fill: #b9bfca; stroke: #ffffff; stroke-width: 0.5"/>
     <use xlink:href="#m7149f7a588" x="49.633104" y="107.741248" style="fill: #b9bfca; stroke: #ffffff; stroke-width: 0.5"/>
     <use xlink:href="#m7149f7a588" x="363.660003" y="176.587635" style="fill: #b9bfca; stroke: #ffffff; stroke-width: 0.5"/>
     <use xlink:href="#m7149f7a588" x="89.194682" y="90.398251" style="fill: #b9bfca; stroke: #ffffff; stroke-width: 0.5"/>
     <use xlink:href="#m7149f7a588" x="115.583991" y="76.770619" style="fill: #b9bfca; stroke: #ffffff; stroke-width: 0.5"/>
     <use xlink:href="#m7149f7a588" x="64.026428" y="98.820057" style="fill: #b9bfca; stroke: #ffffff; stroke-width: 0.5"/>
     <use xlink:href="#m7149f7a588" x="50.541909" y="144.475265" style="fill: #b9bfca; stroke: #ffffff; stroke-width: 0.5"/>
     <use xlink:href="#m7149f7a588" x="350.556371" y="183.055372" style="fill: #b9bfca; stroke: #ffffff; stroke-width: 0.5"/>
     <use xlink:href="#m7149f7a588" x="113.470217" y="61.845208" style="fill: #b9bfca; stroke: #ffffff; stroke-width: 0.5"/>
     <use xlink:href="#m7149f7a588" x="75.97052" y="66.837836" style="fill: #b9bfca; stroke: #ffffff; stroke-width: 0.5"/>
     <use xlink:href="#m7149f7a588" x="47.079343" y="94.935162" style="fill: #b9bfca; stroke: #ffffff; stroke-width: 0.5"/>
     <use xlink:href="#m7149f7a588" x="153.104367" y="73.311436" style="fill: #b9bfca; stroke: #ffffff; stroke-width: 0.5"/>
     <use xlink:href="#m7149f7a588" x="368.978408" y="137.562998" style="fill: #b9bfca; stroke: #ffffff; stroke-width: 0.5"/>
     <use xlink:href="#m7149f7a588" x="123.89537" y="24.704218" style="fill: #b9bfca; stroke: #ffffff; stroke-width: 0.5"/>
    </g>
   </g>
   <g id="PathCollection_2">
    <defs>
     <path id="mba04185cb8" d="M 0 3.391165 
C 0.899347 3.391165 1.761981 3.03385 2.397916 2.397916 
C 3.03385 1.761981 3.391165 0.899347 3.391165 0 
C 3.391165 -0.899347 3.03385 -1.761981 2.397916 -2.397916 
C 1.761981 -3.03385 0.899347 -3.391165 0 -3.391165 
C -0.899347 -3.391165 -1.761981 -3.03385 -2.397916 -2.397916 
C -3.03385 -1.761981 -3.391165 -0.899347 -3.391165 0 
C -3.391165 0.899347 -3.03385 1.761981 -2.397916 2.397916 
C -1.761981 3.03385 -0.899347 3.391165 0 3.391165 
z
" style="stroke: #002060; stroke-width: 0.7"/>
    </defs>
    <g clip-path="url(#p5e94935cf4)">
     <use xlink:href="#mba04185cb8" x="89.721808" y="81.957759" style="fill: #00adcf; stroke: #002060; stroke-width: 0.7"/>
     <use xlink:href="#mba04185cb8" x="67.303541" y="127.688889" style="fill: #00adcf; stroke: #002060; stroke-width: 0.7"/>
     <use xlink:href="#mba04185cb8" x="405.760971" y="104.13917" style="fill: #00adcf; stroke: #002060; stroke-width: 0.7"/>
     <use xlink:href="#mba04185cb8" x="237.309289" y="98.586535" style="fill: #00adcf; stroke: #002060; stroke-width: 0.7"/>
     <use xlink:href="#mba04185cb8" x="295.698524" y="239.727001" style="fill: #00adcf; stroke: #002060; stroke-width: 0.7"/>
     <use xlink:href="#mba04185cb8" x="355.028659" y="169.410301" style="fill: #00adcf; stroke: #002060; stroke-width: 0.7"/>
     <use xlink:href="#mba04185cb8" x="226.604999" y="118.937179" style="fill: #00adcf; stroke: #002060; stroke-width: 0.7"/>
     <use xlink:href="#mba04185cb8" x="147.001403" y="31.828175" style="fill: #00adcf; stroke: #002060; stroke-width: 0.7"/>
     <use xlink:href="#mba04185cb8" x="387.680754" y="63.681357" style="fill: #00adcf; stroke: #002060; stroke-width: 0.7"/>
     <use xlink:href="#mba04185cb8" x="117.556396" y="52.432753" style="fill: #00adcf; stroke: #002060; stroke-width: 0.7"/>
     <use xlink:href="#mba04185cb8" x="170.971858" y="44.444026" style="fill: #00adcf; stroke: #002060; stroke-width: 0.7"/>
     <use xlink:href="#mba04185cb8" x="306.569223" y="250.632" style="fill: #00adcf; stroke: #002060; stroke-width: 0.7"/>
     <use xlink:href="#mba04185cb8" x="366.268194" y="169.972726" style="fill: #00adcf; stroke: #002060; stroke-width: 0.7"/>
     <use xlink:href="#mba04185cb8" x="266.79901" y="166.867689" style="fill: #00adcf; stroke: #002060; stroke-width: 0.7"/>
     <use xlink:href="#mba04185cb8" x="159.170514" y="50.529586" style="fill: #00adcf; stroke: #002060; stroke-width: 0.7"/>
     <use xlink:href="#mba04185cb8" x="106.723329" y="48.95422" style="fill: #00adcf; stroke: #002060; stroke-width: 0.7"/>
     <use xlink:href="#mba04185cb8" x="219.927089" y="131.222042" style="fill: #00adcf; stroke: #002060; stroke-width: 0.7"/>
     <use xlink:href="#mba04185cb8" x="325.15432" y="227.160369" style="fill: #00adcf; stroke: #002060; stroke-width: 0.7"/>
     <use xlink:href="#mba04185cb8" x="270.850966" y="178.114711" style="fill: #00adcf; stroke: #002060; stroke-width: 0.7"/>
     <use xlink:href="#mba04185cb8" x="385.493532" y="128.012177" style="fill: #00adcf; stroke: #002060; stroke-width: 0.7"/>
     <use xlink:href="#mba04185cb8" x="320.475896" y="220.592963" style="fill: #00adcf; stroke: #002060; stroke-width: 0.7"/>
     <use xlink:href="#mba04185cb8" x="230.288425" y="89.051012" style="fill: #00adcf; stroke: #002060; stroke-width: 0.7"/>
     <use xlink:href="#mba04185cb8" x="161.666034" y="18.792" style="fill: #00adcf; stroke: #002060; stroke-width: 0.7"/>
    </g>
   </g>
   <g id="legend_1">
    <g id="line2d_2">
     <path d="M 324.208125 20.953359 
L 334.708125 20.953359 
L 345.208125 20.953359 
" style="fill: none; stroke: #002060; stroke-width: 2.6; stroke-linecap: square"/>
    </g>
    <g id="text_3">
     <!-- relazione vera $f$ -->
     <g style="fill: #414f69" transform="translate(353.608125 24.628359)">
      <text>
       <tspan x="0" y="-0.640625" style="font-size: 10.5px; font-family: 'DejaVu Sans'; fill: #414f69">r</tspan>
       <tspan x="4.316895" y="-0.640625" style="font-size: 10.5px; font-family: 'DejaVu Sans'; fill: #414f69">e</tspan>
       <tspan x="10.776855" y="-0.640625" style="font-size: 10.5px; font-family: 'DejaVu Sans'; fill: #414f69">l</tspan>
       <tspan x="13.694092" y="-0.640625" style="font-size: 10.5px; font-family: 'DejaVu Sans'; fill: #414f69">a</tspan>
       <tspan x="20.128418" y="-0.640625" style="font-size: 10.5px; font-family: 'DejaVu Sans'; fill: #414f69">z</tspan>
       <tspan x="25.639893" y="-0.640625" style="font-size: 10.5px; font-family: 'DejaVu Sans'; fill: #414f69">i</tspan>
       <tspan x="28.557129" y="-0.640625" style="font-size: 10.5px; font-family: 'DejaVu Sans'; fill: #414f69">o</tspan>
       <tspan x="34.981201" y="-0.640625" style="font-size: 10.5px; font-family: 'DejaVu Sans'; fill: #414f69">n</tspan>
       <tspan x="41.635986" y="-0.640625" style="font-size: 10.5px; font-family: 'DejaVu Sans'; fill: #414f69">e</tspan>
       <tspan x="48.095947" y="-0.640625" style="font-size: 10.5px; font-family: 'DejaVu Sans'; fill: #414f69"> </tspan>
       <tspan x="51.433594" y="-0.640625" style="font-size: 10.5px; font-family: 'DejaVu Sans'; fill: #414f69">v</tspan>
       <tspan x="57.647461" y="-0.640625" style="font-size: 10.5px; font-family: 'DejaVu Sans'; fill: #414f69">e</tspan>
       <tspan x="64.107422" y="-0.640625" style="font-size: 10.5px; font-family: 'DejaVu Sans'; fill: #414f69">r</tspan>
       <tspan x="68.424316" y="-0.640625" style="font-size: 10.5px; font-family: 'DejaVu Sans'; fill: #414f69">a</tspan>
       <tspan x="74.858643" y="-0.640625" style="font-size: 10.5px; font-family: 'DejaVu Sans'; fill: #414f69"> </tspan>
       <tspan x="78.196289" y="-0.640625" style="font-style: oblique; font-size: 10.5px; font-family: 'DejaVu Sans'; fill: #414f69">f</tspan>
      </text>
     </g>
    </g>
    <g id="PathCollection_3">
     <g>
      <use xlink:href="#m7149f7a588" x="334.708125" y="37.284141" style="fill: #b9bfca; stroke: #ffffff; stroke-width: 0.5"/>
     </g>
    </g>
    <g id="text_4">
     <text style="font-size: 10.5px; font-family: 'DejaVu Sans'; text-anchor: start; fill: #414f69" x="353.608125" y="40.040391" transform="rotate(-0 353.608125 40.040391)">training set</text>
    </g>
    <g id="PathCollection_4">
     <g>
      <use xlink:href="#mba04185cb8" x="334.708125" y="52.696172" style="fill: #00adcf; stroke: #002060; stroke-width: 0.7"/>
     </g>
    </g>
    <g id="text_5">
     <text style="font-size: 10.5px; font-family: 'DejaVu Sans'; text-anchor: start; fill: #414f69" x="353.608125" y="55.452422" transform="rotate(-0 353.608125 55.452422)">test set</text>
    </g>
   </g>
  </g>
 </g>
 <defs>
  <clipPath id="p5e94935cf4">
   <rect x="20.878125" y="7.2" width="424.08" height="255.024"/>
  </clipPath>
 </defs>
</svg>
