<?xml version="1.0" encoding="utf-8" standalone="no"?>
<!DOCTYPE svg PUBLIC "-//W3C//DTD SVG 1.1//EN"
  "http://www.w3.org/Graphics/SVG/1.1/DTD/svg11.dtd">
<svg xmlns:xlink="http://www.w3.org/1999/xlink" width="488.754062pt" height="295.597937pt" viewBox="0 0 488.754062 295.597937" xmlns="http://www.w3.org/2000/svg" version="1.1">
 <metadata>
  <rdf:RDF xmlns:dc="http://purl.org/dc/elements/1.1/" xmlns:cc="http://creativecommons.org/ns#" xmlns:rdf="http://www.w3.org/1999/02/22-rdf-syntax-ns#">
   <cc:Work>
    <dc:type rdf:resource="http://purl.org/dc/dcmitype/StillImage"/>
    <dc:date>2026-06-25T09:42:51.834736</dc:date>
    <dc:format>image/svg+xml</dc:format>
    <dc:creator>
     <cc:Agent>
      <dc:title>Matplotlib v3.10.0, https://matplotlib.org/</dc:title>
     </cc:Agent>
    </dc:creator>
   </cc:Work>
  </rdf:RDF>
 </metadata>
 <defs>
  <style type="text/css">*{stroke-linejoin: round; stroke-linecap: butt}</style>
 </defs>
 <g id="figure_1">
  <g id="patch_1">
   <path d="M 0 295.597937 
L 488.754062 295.597937 
L 488.754062 0 
L 0 0 
L 0 295.597937 
z
" style="fill: none"/>
  </g>
  <g id="axes_1">
   <g id="patch_2">
    <path d="M 57.474063 273.312 
L 481.554062 273.312 
L 481.554062 7.2 
L 57.474063 7.2 
L 57.474063 273.312 
z
" style="fill: none"/>
   </g>
   <g id="matplotlib.axis_1">
    <g id="text_1">
     <text style="font-size: 11px; font-family: 'DejaVu Sans'; text-anchor: middle; fill: #414f69" x="269.514063" y="286.110281" transform="rotate(-0 269.514063 286.110281)">flessibilità del modello  (più a destra = più flessibile)</text>
    </g>
   </g>
   <g id="matplotlib.axis_2">
    <g id="ytick_1">
     <g id="line2d_1">
      <defs>
       <path id="meb37222bca" d="M 0 0 
L -3.5 0 
" style="stroke: #414f69; stroke-width: 0.8"/>
      </defs>
      <g>
       <use xlink:href="#meb37222bca" x="57.474063" y="273.312" style="fill: #414f69; stroke: #414f69; stroke-width: 0.8"/>
      </g>
     </g>
     <g id="text_2">
      <text style="font-size: 10px; font-family: 'DejaVu Sans'; text-anchor: end; fill: #414f69" x="50.474063" y="277.111219" transform="rotate(-0 50.474063 277.111219)">0.000</text>
     </g>
    </g>
    <g id="ytick_2">
     <g id="line2d_2">
      <g>
       <use xlink:href="#meb37222bca" x="57.474063" y="225.791885" style="fill: #414f69; stroke: #414f69; stroke-width: 0.8"/>
      </g>
     </g>
     <g id="text_3">
      <text style="font-size: 10px; font-family: 'DejaVu Sans'; text-anchor: end; fill: #414f69" x="50.474063" y="229.591103" transform="rotate(-0 50.474063 229.591103)">0.005</text>
     </g>
    </g>
    <g id="ytick_3">
     <g id="line2d_3">
      <g>
       <use xlink:href="#meb37222bca" x="57.474063" y="178.271769" style="fill: #414f69; stroke: #414f69; stroke-width: 0.8"/>
      </g>
     </g>
     <g id="text_4">
      <text style="font-size: 10px; font-family: 'DejaVu Sans'; text-anchor: end; fill: #414f69" x="50.474063" y="182.070988" transform="rotate(-0 50.474063 182.070988)">0.010</text>
     </g>
    </g>
    <g id="ytick_4">
     <g id="line2d_4">
      <g>
       <use xlink:href="#meb37222bca" x="57.474063" y="130.751654" style="fill: #414f69; stroke: #414f69; stroke-width: 0.8"/>
      </g>
     </g>
     <g id="text_5">
      <text style="font-size: 10px; font-family: 'DejaVu Sans'; text-anchor: end; fill: #414f69" x="50.474063" y="134.550873" transform="rotate(-0 50.474063 134.550873)">0.015</text>
     </g>
    </g>
    <g id="ytick_5">
     <g id="line2d_5">
      <g>
       <use xlink:href="#meb37222bca" x="57.474063" y="83.231539" style="fill: #414f69; stroke: #414f69; stroke-width: 0.8"/>
      </g>
     </g>
     <g id="text_6">
      <text style="font-size: 10px; font-family: 'DejaVu Sans'; text-anchor: end; fill: #414f69" x="50.474063" y="87.030758" transform="rotate(-0 50.474063 87.030758)">0.020</text>
     </g>
    </g>
    <g id="ytick_6">
     <g id="line2d_6">
      <g>
       <use xlink:href="#meb37222bca" x="57.474063" y="35.711423" style="fill: #414f69; stroke: #414f69; stroke-width: 0.8"/>
      </g>
     </g>
     <g id="text_7">
      <text style="font-size: 10px; font-family: 'DejaVu Sans'; text-anchor: end; fill: #414f69" x="50.474063" y="39.510642" transform="rotate(-0 50.474063 39.510642)">0.025</text>
     </g>
    </g>
    <g id="text_8">
     <text style="font-size: 11px; font-family: 'DejaVu Sans'; text-anchor: middle; fill: #414f69" x="15.558281" y="140.256" transform="rotate(-90 15.558281 140.256)">errore quadratico medio</text>
    </g>
   </g>
   <g id="line2d_7">
    <path d="M 57.474063 196.329413 
L 481.554062 196.329413 
" clip-path="url(#p748ca7910b)" style="fill: none; stroke-dasharray: 5.92,2.56; stroke-dashoffset: 0; stroke: #545454; stroke-width: 1.6"/>
   </g>
   <g id="line2d_8">
    <path d="M 76.750426 13.673795 
L 111.79836 88.180463 
L 146.846294 139.595251 
L 181.894228 170.846586 
L 216.942162 190.013937 
L 251.990096 198.618938 
L 287.038029 205.798292 
L 322.085963 211.668599 
L 357.133897 215.928973 
L 392.181831 222.645645 
L 427.229765 235.295537 
L 462.277699 273.312 
" clip-path="url(#p748ca7910b)" style="fill: none; stroke: #9aa3b2; stroke-width: 2.4; stroke-linecap: square"/>
    <defs>
     <path id="m6a15c574a5" d="M 0 3 
C 0.795609 3 1.55874 2.683901 2.12132 2.12132 
C 2.683901 1.55874 3 0.795609 3 0 
C 3 -0.795609 2.683901 -1.55874 2.12132 -2.12132 
C 1.55874 -2.683901 0.795609 -3 0 -3 
C -0.795609 -3 -1.55874 -2.683901 -2.12132 -2.12132 
C -2.683901 -1.55874 -3 -0.795609 -3 0 
C -3 0.795609 -2.683901 1.55874 -2.12132 2.12132 
C -1.55874 2.683901 -0.795609 3 0 3 
z
" style="stroke: #9aa3b2"/>
    </defs>
    <g clip-path="url(#p748ca7910b)">
     <use xlink:href="#m6a15c574a5" x="76.750426" y="13.673795" style="fill: #9aa3b2; stroke: #9aa3b2"/>
     <use xlink:href="#m6a15c574a5" x="111.79836" y="88.180463" style="fill: #9aa3b2; stroke: #9aa3b2"/>
     <use xlink:href="#m6a15c574a5" x="146.846294" y="139.595251" style="fill: #9aa3b2; stroke: #9aa3b2"/>
     <use xlink:href="#m6a15c574a5" x="181.894228" y="170.846586" style="fill: #9aa3b2; stroke: #9aa3b2"/>
     <use xlink:href="#m6a15c574a5" x="216.942162" y="190.013937" style="fill: #9aa3b2; stroke: #9aa3b2"/>
     <use xlink:href="#m6a15c574a5" x="251.990096" y="198.618938" style="fill: #9aa3b2; stroke: #9aa3b2"/>
     <use xlink:href="#m6a15c574a5" x="287.038029" y="205.798292" style="fill: #9aa3b2; stroke: #9aa3b2"/>
     <use xlink:href="#m6a15c574a5" x="322.085963" y="211.668599" style="fill: #9aa3b2; stroke: #9aa3b2"/>
     <use xlink:href="#m6a15c574a5" x="357.133897" y="215.928973" style="fill: #9aa3b2; stroke: #9aa3b2"/>
     <use xlink:href="#m6a15c574a5" x="392.181831" y="222.645645" style="fill: #9aa3b2; stroke: #9aa3b2"/>
     <use xlink:href="#m6a15c574a5" x="427.229765" y="235.295537" style="fill: #9aa3b2; stroke: #9aa3b2"/>
     <use xlink:href="#m6a15c574a5" x="462.277699" y="273.312" style="fill: #9aa3b2; stroke: #9aa3b2"/>
    </g>
   </g>
   <g id="line2d_9">
    <path d="M 76.750426 35.712 
L 111.79836 100.981038 
L 146.846294 143.394236 
L 181.894228 167.419137 
L 216.942162 178.889159 
L 251.990096 182.181146 
L 287.038029 181.929979 
L 322.085963 178.868944 
L 357.133897 175.822433 
L 392.181831 169.285747 
L 427.229765 156.895933 
L 462.277699 119.499566 
" clip-path="url(#p748ca7910b)" style="fill: none; stroke: #dc4c4c; stroke-width: 2.6; stroke-linecap: square"/>
    <defs>
     <path id="mf1dec54e0c" d="M 0 3 
C 0.795609 3 1.55874 2.683901 2.12132 2.12132 
C 2.683901 1.55874 3 0.795609 3 0 
C 3 -0.795609 2.683901 -1.55874 2.12132 -2.12132 
C 1.55874 -2.683901 0.795609 -3 0 -3 
C -0.795609 -3 -1.55874 -2.683901 -2.12132 -2.12132 
C -2.683901 -1.55874 -3 -0.795609 -3 0 
C -3 0.795609 -2.683901 1.55874 -2.12132 2.12132 
C -1.55874 2.683901 -0.795609 3 0 3 
z
" style="stroke: #dc4c4c"/>
    </defs>
    <g clip-path="url(#p748ca7910b)">
     <use xlink:href="#mf1dec54e0c" x="76.750426" y="35.712" style="fill: #dc4c4c; stroke: #dc4c4c"/>
     <use xlink:href="#mf1dec54e0c" x="111.79836" y="100.981038" style="fill: #dc4c4c; stroke: #dc4c4c"/>
     <use xlink:href="#mf1dec54e0c" x="146.846294" y="143.394236" style="fill: #dc4c4c; stroke: #dc4c4c"/>
     <use xlink:href="#mf1dec54e0c" x="181.894228" y="167.419137" style="fill: #dc4c4c; stroke: #dc4c4c"/>
     <use xlink:href="#mf1dec54e0c" x="216.942162" y="178.889159" style="fill: #dc4c4c; stroke: #dc4c4c"/>
     <use xlink:href="#mf1dec54e0c" x="251.990096" y="182.181146" style="fill: #dc4c4c; stroke: #dc4c4c"/>
     <use xlink:href="#mf1dec54e0c" x="287.038029" y="181.929979" style="fill: #dc4c4c; stroke: #dc4c4c"/>
     <use xlink:href="#mf1dec54e0c" x="322.085963" y="178.868944" style="fill: #dc4c4c; stroke: #dc4c4c"/>
     <use xlink:href="#mf1dec54e0c" x="357.133897" y="175.822433" style="fill: #dc4c4c; stroke: #dc4c4c"/>
     <use xlink:href="#mf1dec54e0c" x="392.181831" y="169.285747" style="fill: #dc4c4c; stroke: #dc4c4c"/>
     <use xlink:href="#mf1dec54e0c" x="427.229765" y="156.895933" style="fill: #dc4c4c; stroke: #dc4c4c"/>
     <use xlink:href="#mf1dec54e0c" x="462.277699" y="119.499566" style="fill: #dc4c4c; stroke: #dc4c4c"/>
    </g>
   </g>
   <g id="patch_3">
    <path d="M 57.474063 273.312 
L 57.474063 7.2 
" style="fill: none; stroke: #414f69; stroke-width: 0.8; stroke-linejoin: miter; stroke-linecap: square"/>
   </g>
   <g id="patch_4">
    <path d="M 57.474063 273.312 
L 481.554062 273.312 
" style="fill: none; stroke: #414f69; stroke-width: 0.8; stroke-linejoin: miter; stroke-linecap: square"/>
   </g>
   <g id="patch_5">
    <path d="M 301.033685 157.271646 
Q 277.402422 169.27409 254.767987 180.77024 
" style="fill: none; stroke: #002060; stroke-linecap: round"/>
    <path d="M 259.463636 180.740637 
L 254.767987 180.77024 
L 257.561694 176.995959 
" style="fill: none; stroke: #002060; stroke-linecap: round"/>
   </g>
   <g id="text_9">
    <text style="font-weight: 700; font-size: 10.5px; font-family: 'DejaVu Sans'; text-anchor: start; fill: #002060" x="261.990096" y="152.181146" transform="rotate(-0 261.990096 152.181146)">punto di equilibrio</text>
   </g>
   <g id="legend_1">
    <g id="line2d_10">
     <path d="M 209.698516 20.953359 
L 220.198516 20.953359 
L 230.698516 20.953359 
" style="fill: none; stroke-dasharray: 5.92,2.56; stroke-dashoffset: 0; stroke: #545454; stroke-width: 1.6"/>
    </g>
    <g id="text_10">
     <text style="font-size: 10.5px; font-family: 'DejaVu Sans'; text-anchor: start; fill: #414f69" x="239.098516" y="24.628359" transform="rotate(-0 239.098516 24.628359)">errore irriducibile</text>
    </g>
    <g id="line2d_11">
     <path d="M 209.698516 36.365391 
L 220.198516 36.365391 
L 230.698516 36.365391 
" style="fill: none; stroke: #9aa3b2; stroke-width: 2.4; stroke-linecap: square"/>
     <g>
      <use xlink:href="#m6a15c574a5" x="220.198516" y="36.365391" style="fill: #9aa3b2; stroke: #9aa3b2"/>
     </g>
    </g>
    <g id="text_11">
     <text style="font-size: 10.5px; font-family: 'DejaVu Sans'; text-anchor: start; fill: #414f69" x="239.098516" y="40.040391" transform="rotate(-0 239.098516 40.040391)">errore di training</text>
    </g>
    <g id="line2d_12">
     <path d="M 209.698516 51.777422 
L 220.198516 51.777422 
L 230.698516 51.777422 
" style="fill: none; stroke: #dc4c4c; stroke-width: 2.6; stroke-linecap: square"/>
     <g>
      <use xlink:href="#mf1dec54e0c" x="220.198516" y="51.777422" style="fill: #dc4c4c; stroke: #dc4c4c"/>
     </g>
    </g>
    <g id="text_12">
     <text style="font-size: 10.5px; font-family: 'DejaVu Sans'; text-anchor: start; fill: #414f69" x="239.098516" y="55.452422" transform="rotate(-0 239.098516 55.452422)">errore di test</text>
    </g>
   </g>
   <g id="PathCollection_1">
    <path d="M 251.990096 188.30487 
C 253.614126 188.30487 255.171859 187.659636 256.320223 186.511273 
C 257.468586 185.36291 258.11382 183.805176 258.11382 182.181146 
C 258.11382 180.557115 257.468586 178.999382 256.320223 177.851019 
C 255.171859 176.702656 253.614126 176.057421 251.990096 176.057421 
C 250.366065 176.057421 248.808332 176.702656 247.659969 177.851019 
C 246.511605 178.999382 245.866371 180.557115 245.866371 182.181146 
C 245.866371 183.805176 246.511605 185.36291 247.659969 186.511273 
C 248.808332 187.659636 250.366065 188.30487 251.990096 188.30487 
L 251.990096 188.30487 
z
" clip-path="url(#p748ca7910b)" style="fill: none; stroke: #002060; stroke-width: 2.2"/>
   </g>
  </g>
 </g>
 <defs>
  <clipPath id="p748ca7910b">
   <rect x="57.474063" y="7.2" width="424.08" height="266.112"/>
  </clipPath>
 </defs>
</svg>
