<?xml version="1.0" encoding="utf-8" standalone="no"?>
<!DOCTYPE svg PUBLIC "-//W3C//DTD SVG 1.1//EN"
  "http://www.w3.org/Graphics/SVG/1.1/DTD/svg11.dtd">
<svg xmlns:xlink="http://www.w3.org/1999/xlink" width="463.318125pt" height="294.190125pt" viewBox="0 0 463.318125 294.190125" xmlns="http://www.w3.org/2000/svg" version="1.1">
 <metadata>
  <rdf:RDF xmlns:dc="http://purl.org/dc/elements/1.1/" xmlns:cc="http://creativecommons.org/ns#" xmlns:rdf="http://www.w3.org/1999/02/22-rdf-syntax-ns#">
   <cc:Work>
    <dc:type rdf:resource="http://purl.org/dc/dcmitype/StillImage"/>
    <dc:date>2026-06-25T09:42:50.194544</dc:date>
    <dc:format>image/svg+xml</dc:format>
    <dc:creator>
     <cc:Agent>
      <dc:title>Matplotlib v3.10.0, https://matplotlib.org/</dc:title>
     </cc:Agent>
    </dc:creator>
   </cc:Work>
  </rdf:RDF>
 </metadata>
 <defs>
  <style type="text/css">*{stroke-linejoin: round; stroke-linecap: butt}</style>
 </defs>
 <g id="figure_1">
  <g id="patch_1">
   <path d="M -0 294.190125 
L 463.318125 294.190125 
L 463.318125 0 
L -0 0 
L -0 294.190125 
z
" style="fill: none"/>
  </g>
  <g id="axes_1">
   <g id="patch_2">
    <path d="M 20.878125 273.312 
L 456.118125 273.312 
L 456.118125 7.2 
L 20.878125 7.2 
L 20.878125 273.312 
z
" style="fill: none"/>
   </g>
   <g id="matplotlib.axis_1">
    <g id="text_1">
     <text style="font-size: 10px; font-family: 'DejaVu Sans'; text-anchor: middle; fill: #414f69" x="238.498125" y="284.910437" transform="rotate(-0 238.498125 284.910437)">X</text>
    </g>
   </g>
   <g id="matplotlib.axis_2">
    <g id="text_2">
     <text style="font-size: 10px; font-family: 'DejaVu Sans'; text-anchor: middle; fill: #414f69" x="14.798437" y="140.256" transform="rotate(-90 14.798437 140.256)">Y</text>
    </g>
   </g>
   <g id="PathCollection_1">
    <defs>
     <path id="m582fbbbb4f" d="M 0 3.082207 
C 0.817411 3.082207 1.601453 2.757446 2.179449 2.179449 
C 2.757446 1.601453 3.082207 0.817411 3.082207 0 
C 3.082207 -0.817411 2.757446 -1.601453 2.179449 -2.179449 
C 1.601453 -2.757446 0.817411 -3.082207 0 -3.082207 
C -0.817411 -3.082207 -1.601453 -2.757446 -2.179449 -2.179449 
C -2.757446 -1.601453 -3.082207 -0.817411 -3.082207 0 
C -3.082207 0.817411 -2.757446 1.601453 -2.179449 2.179449 
C -1.601453 2.757446 -0.817411 3.082207 0 3.082207 
z
" style="stroke: #ffffff; stroke-width: 0.5"/>
    </defs>
    <g clip-path="url(#pdf0a457694)">
     <use xlink:href="#m582fbbbb4f" x="88.221868" y="91.278384" style="fill: #b9bfca; stroke: #ffffff; stroke-width: 0.5"/>
     <use xlink:href="#m582fbbbb4f" x="236.917708" y="158.462585" style="fill: #b9bfca; stroke: #ffffff; stroke-width: 0.5"/>
     <use xlink:href="#m582fbbbb4f" x="277.919726" y="162.552408" style="fill: #b9bfca; stroke: #ffffff; stroke-width: 0.5"/>
     <use xlink:href="#m582fbbbb4f" x="48.158175" y="136.347484" style="fill: #b9bfca; stroke: #ffffff; stroke-width: 0.5"/>
     <use xlink:href="#m582fbbbb4f" x="95.985773" y="74.311391" style="fill: #b9bfca; stroke: #ffffff; stroke-width: 0.5"/>
     <use xlink:href="#m582fbbbb4f" x="408.968581" y="77.87309" style="fill: #b9bfca; stroke: #ffffff; stroke-width: 0.5"/>
     <use xlink:href="#m582fbbbb4f" x="64.897269" y="133.735666" style="fill: #b9bfca; stroke: #ffffff; stroke-width: 0.5"/>
     <use xlink:href="#m582fbbbb4f" x="88.704707" y="94.980567" style="fill: #b9bfca; stroke: #ffffff; stroke-width: 0.5"/>
     <use xlink:href="#m582fbbbb4f" x="417.037953" y="111.871849" style="fill: #b9bfca; stroke: #ffffff; stroke-width: 0.5"/>
     <use xlink:href="#m582fbbbb4f" x="286.096519" y="188.985879" style="fill: #b9bfca; stroke: #ffffff; stroke-width: 0.5"/>
     <use xlink:href="#m582fbbbb4f" x="184.658743" y="55.715929" style="fill: #b9bfca; stroke: #ffffff; stroke-width: 0.5"/>
     <use xlink:href="#m582fbbbb4f" x="241.776058" y="106.716722" style="fill: #b9bfca; stroke: #ffffff; stroke-width: 0.5"/>
     <use xlink:href="#m582fbbbb4f" x="302.52587" y="237.75308" style="fill: #b9bfca; stroke: #ffffff; stroke-width: 0.5"/>
     <use xlink:href="#m582fbbbb4f" x="147.080704" y="81.114767" style="fill: #b9bfca; stroke: #ffffff; stroke-width: 0.5"/>
     <use xlink:href="#m582fbbbb4f" x="91.99148" y="73.91757" style="fill: #b9bfca; stroke: #ffffff; stroke-width: 0.5"/>
     <use xlink:href="#m582fbbbb4f" x="352.743931" y="160.890354" style="fill: #b9bfca; stroke: #ffffff; stroke-width: 0.5"/>
     <use xlink:href="#m582fbbbb4f" x="305.541294" y="196.988481" style="fill: #b9bfca; stroke: #ffffff; stroke-width: 0.5"/>
     <use xlink:href="#m582fbbbb4f" x="242.17408" y="160.047814" style="fill: #b9bfca; stroke: #ffffff; stroke-width: 0.5"/>
     <use xlink:href="#m582fbbbb4f" x="364.254621" y="172.470284" style="fill: #b9bfca; stroke: #ffffff; stroke-width: 0.5"/>
     <use xlink:href="#m582fbbbb4f" x="256.892119" y="164.15907" style="fill: #b9bfca; stroke: #ffffff; stroke-width: 0.5"/>
     <use xlink:href="#m582fbbbb4f" x="430.10831" y="65.485736" style="fill: #b9bfca; stroke: #ffffff; stroke-width: 0.5"/>
     <use xlink:href="#m582fbbbb4f" x="118.682128" y="88.709961" style="fill: #b9bfca; stroke: #ffffff; stroke-width: 0.5"/>
     <use xlink:href="#m582fbbbb4f" x="258.75934" y="158.658604" style="fill: #b9bfca; stroke: #ffffff; stroke-width: 0.5"/>
     <use xlink:href="#m582fbbbb4f" x="230.639012" y="125.610483" style="fill: #b9bfca; stroke: #ffffff; stroke-width: 0.5"/>
     <use xlink:href="#m582fbbbb4f" x="178.353933" y="82.223144" style="fill: #b9bfca; stroke: #ffffff; stroke-width: 0.5"/>
     <use xlink:href="#m582fbbbb4f" x="273.947478" y="186.907487" style="fill: #b9bfca; stroke: #ffffff; stroke-width: 0.5"/>
     <use xlink:href="#m582fbbbb4f" x="131.033123" y="95.809151" style="fill: #b9bfca; stroke: #ffffff; stroke-width: 0.5"/>
     <use xlink:href="#m582fbbbb4f" x="358.424937" y="194.367749" style="fill: #b9bfca; stroke: #ffffff; stroke-width: 0.5"/>
     <use xlink:href="#m582fbbbb4f" x="384.549806" y="124.832481" style="fill: #b9bfca; stroke: #ffffff; stroke-width: 0.5"/>
     <use xlink:href="#m582fbbbb4f" x="88.297866" y="93.07915" style="fill: #b9bfca; stroke: #ffffff; stroke-width: 0.5"/>
     <use xlink:href="#m582fbbbb4f" x="223.999986" y="150.892969" style="fill: #b9bfca; stroke: #ffffff; stroke-width: 0.5"/>
     <use xlink:href="#m582fbbbb4f" x="147.817179" y="44.737527" style="fill: #b9bfca; stroke: #ffffff; stroke-width: 0.5"/>
     <use xlink:href="#m582fbbbb4f" x="69.989975" y="90.134753" style="fill: #b9bfca; stroke: #ffffff; stroke-width: 0.5"/>
     <use xlink:href="#m582fbbbb4f" x="396.025966" y="87.218683" style="fill: #b9bfca; stroke: #ffffff; stroke-width: 0.5"/>
     <use xlink:href="#m582fbbbb4f" x="209.108843" y="105.350256" style="fill: #b9bfca; stroke: #ffffff; stroke-width: 0.5"/>
     <use xlink:href="#m582fbbbb4f" x="95.891598" y="93.979004" style="fill: #b9bfca; stroke: #ffffff; stroke-width: 0.5"/>
     <use xlink:href="#m582fbbbb4f" x="306.745345" y="233.049719" style="fill: #b9bfca; stroke: #ffffff; stroke-width: 0.5"/>
     <use xlink:href="#m582fbbbb4f" x="117.762201" y="49.774267" style="fill: #b9bfca; stroke: #ffffff; stroke-width: 0.5"/>
     <use xlink:href="#m582fbbbb4f" x="398.226784" y="74.310371" style="fill: #b9bfca; stroke: #ffffff; stroke-width: 0.5"/>
     <use xlink:href="#m582fbbbb4f" x="123.75172" y="88.727486" style="fill: #b9bfca; stroke: #ffffff; stroke-width: 0.5"/>
     <use xlink:href="#m582fbbbb4f" x="49.91733" y="123.740244" style="fill: #b9bfca; stroke: #ffffff; stroke-width: 0.5"/>
     <use xlink:href="#m582fbbbb4f" x="117.181761" y="63.867044" style="fill: #b9bfca; stroke: #ffffff; stroke-width: 0.5"/>
     <use xlink:href="#m582fbbbb4f" x="175.33476" y="94.540969" style="fill: #b9bfca; stroke: #ffffff; stroke-width: 0.5"/>
     <use xlink:href="#m582fbbbb4f" x="224.736012" y="129.471527" style="fill: #b9bfca; stroke: #ffffff; stroke-width: 0.5"/>
     <use xlink:href="#m582fbbbb4f" x="400.113325" y="126.441475" style="fill: #b9bfca; stroke: #ffffff; stroke-width: 0.5"/>
     <use xlink:href="#m582fbbbb4f" x="316.37156" y="203.691202" style="fill: #b9bfca; stroke: #ffffff; stroke-width: 0.5"/>
     <use xlink:href="#m582fbbbb4f" x="172.756718" y="56.450222" style="fill: #b9bfca; stroke: #ffffff; stroke-width: 0.5"/>
     <use xlink:href="#m582fbbbb4f" x="43.420305" y="114.131372" style="fill: #b9bfca; stroke: #ffffff; stroke-width: 0.5"/>
     <use xlink:href="#m582fbbbb4f" x="100.758065" y="65.067854" style="fill: #b9bfca; stroke: #ffffff; stroke-width: 0.5"/>
     <use xlink:href="#m582fbbbb4f" x="436.334489" y="58.036098" style="fill: #b9bfca; stroke: #ffffff; stroke-width: 0.5"/>
     <use xlink:href="#m582fbbbb4f" x="221.048903" y="113.680298" style="fill: #b9bfca; stroke: #ffffff; stroke-width: 0.5"/>
     <use xlink:href="#m582fbbbb4f" x="313.836053" y="247.877401" style="fill: #b9bfca; stroke: #ffffff; stroke-width: 0.5"/>
     <use xlink:href="#m582fbbbb4f" x="58.578723" y="134.453667" style="fill: #b9bfca; stroke: #ffffff; stroke-width: 0.5"/>
     <use xlink:href="#m582fbbbb4f" x="50.308652" y="96.014756" style="fill: #b9bfca; stroke: #ffffff; stroke-width: 0.5"/>
     <use xlink:href="#m582fbbbb4f" x="375.948551" y="172.992445" style="fill: #b9bfca; stroke: #ffffff; stroke-width: 0.5"/>
     <use xlink:href="#m582fbbbb4f" x="272.457998" y="170.109695" style="fill: #b9bfca; stroke: #ffffff; stroke-width: 0.5"/>
     <use xlink:href="#m582fbbbb4f" x="160.478266" y="62.100122" style="fill: #b9bfca; stroke: #ffffff; stroke-width: 0.5"/>
     <use xlink:href="#m582fbbbb4f" x="163.954675" y="48.333794" style="fill: #b9bfca; stroke: #ffffff; stroke-width: 0.5"/>
     <use xlink:href="#m582fbbbb4f" x="72.444892" y="83.312972" style="fill: #b9bfca; stroke: #ffffff; stroke-width: 0.5"/>
     <use xlink:href="#m582fbbbb4f" x="105.910731" y="60.637536" style="fill: #b9bfca; stroke: #ffffff; stroke-width: 0.5"/>
     <use xlink:href="#m582fbbbb4f" x="46.512446" y="115.216057" style="fill: #b9bfca; stroke: #ffffff; stroke-width: 0.5"/>
     <use xlink:href="#m582fbbbb4f" x="373.234915" y="179.133799" style="fill: #b9bfca; stroke: #ffffff; stroke-width: 0.5"/>
     <use xlink:href="#m582fbbbb4f" x="223.691125" y="137.015885" style="fill: #b9bfca; stroke: #ffffff; stroke-width: 0.5"/>
     <use xlink:href="#m582fbbbb4f" x="87.673431" y="99.114629" style="fill: #b9bfca; stroke: #ffffff; stroke-width: 0.5"/>
     <use xlink:href="#m582fbbbb4f" x="333.172513" y="226.08608" style="fill: #b9bfca; stroke: #ffffff; stroke-width: 0.5"/>
     <use xlink:href="#m582fbbbb4f" x="115.129614" y="86.462585" style="fill: #b9bfca; stroke: #ffffff; stroke-width: 0.5"/>
     <use xlink:href="#m582fbbbb4f" x="61.487668" y="106.933526" style="fill: #b9bfca; stroke: #ffffff; stroke-width: 0.5"/>
     <use xlink:href="#m582fbbbb4f" x="276.673767" y="180.551554" style="fill: #b9bfca; stroke: #ffffff; stroke-width: 0.5"/>
     <use xlink:href="#m582fbbbb4f" x="395.951136" y="134.035811" style="fill: #b9bfca; stroke: #ffffff; stroke-width: 0.5"/>
     <use xlink:href="#m582fbbbb4f" x="47.457992" y="149.320322" style="fill: #b9bfca; stroke: #ffffff; stroke-width: 0.5"/>
     <use xlink:href="#m582fbbbb4f" x="359.601526" y="185.138517" style="fill: #b9bfca; stroke: #ffffff; stroke-width: 0.5"/>
     <use xlink:href="#m582fbbbb4f" x="112.930384" y="72.60567" style="fill: #b9bfca; stroke: #ffffff; stroke-width: 0.5"/>
     <use xlink:href="#m582fbbbb4f" x="73.914639" y="77.240881" style="fill: #b9bfca; stroke: #ffffff; stroke-width: 0.5"/>
     <use xlink:href="#m582fbbbb4f" x="43.855441" y="103.326747" style="fill: #b9bfca; stroke: #ffffff; stroke-width: 0.5"/>
     <use xlink:href="#m582fbbbb4f" x="154.166875" y="83.251042" style="fill: #b9bfca; stroke: #ffffff; stroke-width: 0.5"/>
     <use xlink:href="#m582fbbbb4f" x="328.304949" y="219.988829" style="fill: #b9bfca; stroke: #ffffff; stroke-width: 0.5"/>
     <use xlink:href="#m582fbbbb4f" x="234.471352" y="97.863838" style="fill: #b9bfca; stroke: #ffffff; stroke-width: 0.5"/>
     <use xlink:href="#m582fbbbb4f" x="378.768334" y="142.902897" style="fill: #b9bfca; stroke: #ffffff; stroke-width: 0.5"/>
     <use xlink:href="#m582fbbbb4f" x="123.777009" y="38.123567" style="fill: #b9bfca; stroke: #ffffff; stroke-width: 0.5"/>
     <use xlink:href="#m582fbbbb4f" x="163.074675" y="32.634599" style="fill: #b9bfca; stroke: #ffffff; stroke-width: 0.5"/>
    </g>
   </g>
   <g id="patch_3">
    <path d="M 20.878125 273.312 
L 20.878125 7.2 
" style="fill: none; stroke: #414f69; stroke-width: 0.8; stroke-linejoin: miter; stroke-linecap: square"/>
   </g>
   <g id="patch_4">
    <path d="M 20.878125 273.312 
L 456.118125 273.312 
" style="fill: none; stroke: #414f69; stroke-width: 0.8; stroke-linejoin: miter; stroke-linecap: square"/>
   </g>
   <g id="line2d_1">
    <path d="M 40.661761 86.675021 
L 433.752972 162.986335 
L 433.752972 162.986335 
" clip-path="url(#pdf0a457694)" style="fill: none; stroke: #e0a93b; stroke-width: 2.8; stroke-linecap: square"/>
   </g>
   <g id="line2d_2">
    <path d="M 40.661761 116.797554 
L 42.632143 117.415765 
L 44.602525 117.803189 
L 46.572907 117.973304 
L 48.543289 117.939247 
L 50.513671 117.713822 
L 52.484053 117.309498 
L 54.454435 116.738413 
L 57.410008 115.594865 
L 60.365581 114.141128 
L 63.321154 112.414108 
L 66.276727 110.449134 
L 70.217492 107.517167 
L 74.158256 104.297868 
L 79.084211 99.977582 
L 85.980548 93.604166 
L 98.788031 81.7285 
L 104.699177 76.607975 
L 109.625132 72.65632 
L 113.565896 69.749945 
L 117.50666 67.102839 
L 121.447424 64.741394 
L 125.388188 62.688594 
L 128.343761 61.363504 
L 131.299334 60.230287 
L 134.254907 59.295081 
L 137.21048 58.563068 
L 140.166053 58.038497 
L 143.121626 57.724714 
L 146.077199 57.624183 
L 149.032772 57.738518 
L 151.988345 58.068503 
L 154.943918 58.614121 
L 157.899491 59.37458 
L 160.855064 60.348339 
L 163.810637 61.533133 
L 166.76621 62.926001 
L 169.721783 64.523307 
L 172.677356 66.320773 
L 176.61812 69.020203 
L 180.558884 72.053454 
L 184.499648 75.40552 
L 188.440412 79.059736 
L 192.381176 82.997892 
L 197.307131 88.289813 
L 202.233086 93.953325 
L 207.159041 99.944251 
L 213.070187 107.499565 
L 219.966524 116.711168 
L 228.833243 128.964378 
L 248.537063 156.337004 
L 255.4334 165.463747 
L 261.344546 172.911435 
L 266.270501 178.782967 
L 271.196456 184.294967 
L 275.13722 188.41216 
L 279.077984 192.242778 
L 283.018748 195.763242 
L 286.959513 198.951052 
L 290.900277 201.784898 
L 293.85585 203.665904 
L 296.811423 205.328593 
L 299.766996 206.765511 
L 302.722569 207.9697 
L 305.678142 208.934726 
L 308.633715 209.654706 
L 311.589288 210.12433 
L 314.544861 210.338894 
L 317.500434 210.294318 
L 320.456007 209.987176 
L 323.41158 209.414724 
L 326.367153 208.574921 
L 329.322726 207.46646 
L 332.278299 206.088788 
L 335.233872 204.44214 
L 338.189445 202.527557 
L 341.145018 200.346917 
L 344.100591 197.902961 
L 347.056164 195.199314 
L 350.011737 192.240517 
L 352.96731 189.03205 
L 356.908074 184.377001 
L 360.848838 179.307698 
L 364.789602 173.845416 
L 368.730366 168.014781 
L 373.656321 160.251621 
L 378.582276 152.019798 
L 384.493422 141.624713 
L 391.389759 128.965946 
L 414.049152 86.780818 
L 418.975107 78.310624 
L 422.915871 71.941282 
L 426.856635 66.02724 
L 429.812208 61.94557 
L 432.767781 58.212243 
L 433.752972 57.052479 
L 433.752972 57.052479 
" clip-path="url(#pdf0a457694)" style="fill: none; stroke: #00adcf; stroke-width: 2.8; stroke-linecap: square"/>
   </g>
   <g id="line2d_3">
    <path d="M 40.661761 115.145035 
L 41.646952 111.142956 
L 42.632143 110.236862 
L 43.617334 111.391163 
L 44.602525 113.798455 
L 48.543289 125.802354 
L 49.52848 127.955008 
L 50.513671 129.502438 
L 51.498862 130.416991 
L 52.484053 130.709074 
L 53.469244 130.416717 
L 54.454435 129.596979 
L 55.439626 128.318965 
L 56.424817 126.658215 
L 58.395199 122.497335 
L 61.350772 115.230322 
L 64.306345 108.10112 
L 66.276727 103.925712 
L 68.247109 100.38601 
L 70.217492 97.517173 
L 72.187874 95.278425 
L 74.158256 93.576943 
L 76.128638 92.290015 
L 78.09902 91.284081 
L 85.980548 87.759308 
L 88.936121 85.988565 
L 91.891694 83.861819 
L 95.832458 80.635267 
L 100.758413 76.530772 
L 103.713986 74.356649 
L 105.684368 73.124476 
L 107.65475 72.104048 
L 109.625132 71.314589 
L 111.595514 70.762806 
L 113.565896 70.443083 
L 115.536278 70.338353 
L 117.50666 70.421511 
L 120.462233 70.81958 
L 125.388188 71.849528 
L 129.328952 72.59218 
L 132.284525 72.885641 
L 134.254907 72.896681 
L 136.225289 72.73553 
L 138.195671 72.390968 
L 140.166053 71.860847 
L 142.136435 71.152042 
L 145.092008 69.789929 
L 148.047581 68.147412 
L 157.899491 62.301874 
L 159.869873 61.395034 
L 161.840255 60.677211 
L 163.810637 60.186276 
L 165.781019 59.955189 
L 167.751401 60.011128 
L 169.721783 60.374818 
L 171.692165 61.060069 
L 173.662547 62.07354 
L 175.632929 63.414697 
L 177.603311 65.075998 
L 179.573693 67.043247 
L 181.544075 69.296132 
L 183.514457 71.808903 
L 186.47003 75.997841 
L 189.425603 80.585012 
L 194.351558 88.763526 
L 201.247895 100.325865 
L 205.188659 106.497137 
L 208.144232 110.762238 
L 211.099805 114.657063 
L 214.055378 118.155839 
L 217.010951 121.257478 
L 219.966524 123.983793 
L 222.922097 126.376583 
L 225.87767 128.493855 
L 229.818434 131.010124 
L 241.640726 138.202084 
L 244.596299 140.295645 
L 247.551872 142.619585 
L 250.507445 145.208812 
L 253.463018 148.084903 
L 256.418591 151.256486 
L 259.374164 154.720235 
L 262.329737 158.462338 
L 266.270501 163.844667 
L 270.211265 169.608631 
L 275.13722 177.215553 
L 284.989131 193.010833 
L 290.900277 202.256433 
L 294.841041 208.049823 
L 297.796614 212.092854 
L 300.752187 215.799028 
L 303.70776 219.094058 
L 305.678142 221.024662 
L 307.648524 222.715975 
L 309.618906 224.146067 
L 311.589288 225.293977 
L 313.55967 226.140339 
L 315.530052 226.668326 
L 317.500434 226.864074 
L 319.470816 226.717259 
L 321.441198 226.222055 
L 323.41158 225.377586 
L 325.381962 224.188285 
L 327.352344 222.664609 
L 329.322726 220.823487 
L 331.293108 218.687643 
L 333.26349 216.286204 
L 336.219063 212.263732 
L 339.174636 207.861425 
L 350.996928 189.632471 
L 353.952501 185.641064 
L 356.908074 182.051036 
L 359.863647 178.853606 
L 362.81922 175.965158 
L 369.715557 169.424592 
L 371.685939 167.266073 
L 373.656321 164.815395 
L 375.626703 161.984782 
L 377.597085 158.69288 
L 379.567467 154.873315 
L 381.537849 150.481799 
L 383.508231 145.5025 
L 385.478613 139.956496 
L 388.434186 130.72064 
L 393.360141 114.024545 
L 396.315714 104.385693 
L 398.286096 98.6822 
L 400.256478 93.904968 
L 401.241669 91.95646 
L 402.22686 90.343362 
L 403.212051 89.095914 
L 404.197242 88.241677 
L 405.182433 87.796992 
L 406.167624 87.777681 
L 407.152815 88.185135 
L 408.138006 89.017533 
L 409.123197 90.256147 
L 410.108388 91.880157 
L 411.093579 93.845858 
L 413.063961 98.579897 
L 417.004725 108.90799 
L 417.989916 111.01659 
L 418.975107 112.663435 
L 419.960298 113.701358 
L 420.945489 113.980859 
L 421.93068 113.36079 
L 422.915871 111.711103 
L 423.901062 108.913364 
L 424.886253 104.901904 
L 425.871444 99.635624 
L 426.856635 93.162036 
L 427.841826 85.590676 
L 429.812208 68.173668 
L 431.78259 50.945701 
L 432.767781 44.377829 
L 433.752972 40.737926 
L 433.752972 40.737926 
" clip-path="url(#pdf0a457694)" style="fill: none; stroke: #dc4c4c; stroke-width: 2; stroke-linecap: square"/>
   </g>
   <g id="legend_1">
    <g id="line2d_4">
     <path d="M 333.661875 20.953359 
L 344.161875 20.953359 
L 354.661875 20.953359 
" style="fill: none; stroke: #e0a93b; stroke-width: 2.8; stroke-linecap: square"/>
    </g>
    <g id="text_3">
     <text style="font-size: 10.5px; font-family: 'DejaVu Sans'; text-anchor: start; fill: #414f69" x="363.061875" y="24.628359" transform="rotate(-0 363.061875 24.628359)">rigido (lineare)</text>
    </g>
    <g id="line2d_5">
     <path d="M 333.661875 36.365391 
L 344.161875 36.365391 
L 354.661875 36.365391 
" style="fill: none; stroke: #00adcf; stroke-width: 2.8; stroke-linecap: square"/>
    </g>
    <g id="text_4">
     <text style="font-size: 10.5px; font-family: 'DejaVu Sans'; text-anchor: start; fill: #414f69" x="363.061875" y="40.040391" transform="rotate(-0 363.061875 40.040391)">equilibrato</text>
    </g>
    <g id="line2d_6">
     <path d="M 333.661875 51.777422 
L 344.161875 51.777422 
L 354.661875 51.777422 
" style="fill: none; stroke: #dc4c4c; stroke-width: 2; stroke-linecap: square"/>
    </g>
    <g id="text_5">
     <text style="font-size: 10.5px; font-family: 'DejaVu Sans'; text-anchor: start; fill: #414f69" x="363.061875" y="55.452422" transform="rotate(-0 363.061875 55.452422)">troppo flessibile</text>
    </g>
   </g>
  </g>
 </g>
 <defs>
  <clipPath id="pdf0a457694">
   <rect x="20.878125" y="7.2" width="435.24" height="266.112"/>
  </clipPath>
 </defs>
</svg>
