<?xml version="1.0" encoding="utf-8" standalone="no"?>
<!DOCTYPE svg PUBLIC "-//W3C//DTD SVG 1.1//EN"
  "http://www.w3.org/Graphics/SVG/1.1/DTD/svg11.dtd">
<svg xmlns:xlink="http://www.w3.org/1999/xlink" width="551.784023pt" height="291.6pt" viewBox="0 0 551.784023 291.6" xmlns="http://www.w3.org/2000/svg" version="1.1">
 <metadata>
  <rdf:RDF xmlns:dc="http://purl.org/dc/elements/1.1/" xmlns:cc="http://creativecommons.org/ns#" xmlns:rdf="http://www.w3.org/1999/02/22-rdf-syntax-ns#">
   <cc:Work>
    <dc:type rdf:resource="http://purl.org/dc/dcmitype/StillImage"/>
    <dc:date>2026-06-24T17:46:52.893451</dc:date>
    <dc:format>image/svg+xml</dc:format>
    <dc:creator>
     <cc:Agent>
      <dc:title>Matplotlib v3.10.0, https://matplotlib.org/</dc:title>
     </cc:Agent>
    </dc:creator>
   </cc:Work>
  </rdf:RDF>
 </metadata>
 <defs>
  <style type="text/css">*{stroke-linejoin: round; stroke-linecap: butt}</style>
 </defs>
 <g id="figure_1">
  <g id="patch_1">
   <path d="M 0 291.6 
L 551.784023 291.6 
L 551.784023 0 
L 0 0 
L 0 291.6 
z
" style="fill: none"/>
  </g>
  <g id="axes_1">
   <g id="patch_2">
    <path d="M 56.386521 145.8 
Q 97.387406 145.8 136.599438 145.8 
" clip-path="url(#pac395cec39)" style="fill: none; stroke: #414f69; stroke-width: 1.6; stroke-linecap: round"/>
    <path d="M 130.999438 143 
L 136.599438 145.8 
L 130.999438 148.6 
z
" clip-path="url(#pac395cec39)" style="fill: #414f69; stroke: #414f69; stroke-width: 1.6; stroke-linecap: round"/>
   </g>
   <g id="patch_3">
    <path d="M 163.786098 137.670785 
Q 214.565111 101.449262 263.887808 66.266555 
" clip-path="url(#pac395cec39)" style="fill: none; stroke: #414f69; stroke-width: 1.6; stroke-linecap: round"/>
    <path d="M 257.702808 67.239065 
L 263.887808 66.266555 
L 260.954816 71.798061 
z
" clip-path="url(#pac395cec39)" style="fill: #414f69; stroke: #414f69; stroke-width: 1.6; stroke-linecap: round"/>
   </g>
   <g id="patch_4">
    <path d="M 166.389462 145.8 
Q 214.566866 145.8 260.955416 145.8 
" clip-path="url(#pac395cec39)" style="fill: none; stroke: #414f69; stroke-width: 1.6; stroke-linecap: round"/>
    <path d="M 255.355416 143 
L 260.955416 145.8 
L 255.355416 148.6 
z
" clip-path="url(#pac395cec39)" style="fill: #414f69; stroke: #414f69; stroke-width: 1.6; stroke-linecap: round"/>
   </g>
   <g id="patch_5">
    <path d="M 163.786098 153.929215 
Q 214.565111 190.150738 263.887808 225.333445 
" clip-path="url(#pac395cec39)" style="fill: none; stroke: #414f69; stroke-width: 1.6; stroke-linecap: round"/>
    <path d="M 260.954816 219.801939 
L 263.887808 225.333445 
L 257.702808 224.360935 
z
" clip-path="url(#pac395cec39)" style="fill: #414f69; stroke: #414f69; stroke-width: 1.6; stroke-linecap: round"/>
   </g>
   <g id="patch_6">
    <path d="M 290.745353 145.8 
Q 336.531164 145.8 380.528121 145.8 
" clip-path="url(#pac395cec39)" style="fill: none; stroke: #414f69; stroke-width: 1.6; stroke-linecap: round"/>
    <path d="M 374.928121 143 
L 380.528121 145.8 
L 374.928121 148.6 
z
" clip-path="url(#pac395cec39)" style="fill: #414f69; stroke: #414f69; stroke-width: 1.6; stroke-linecap: round"/>
   </g>
   <g id="patch_7">
    <path d="M 410.312841 145.8 
Q 448.925256 145.8 485.748818 145.8 
" clip-path="url(#pac395cec39)" style="fill: none; stroke: #414f69; stroke-width: 1.6; stroke-linecap: round"/>
    <path d="M 480.148818 143 
L 485.748818 145.8 
L 480.148818 148.6 
z
" clip-path="url(#pac395cec39)" style="fill: #414f69; stroke: #414f69; stroke-width: 1.6; stroke-linecap: round"/>
   </g>
   <g id="patch_8">
    <path d="M 0.773166 172.9656 
L 83.994881 172.9656 
Q 89.734309 172.9656 89.734309 166.3128 
L 89.734309 125.2872 
Q 89.734309 118.6344 83.994881 118.6344 
L 0.773166 118.6344 
Q -4.966262 118.6344 -4.966262 125.2872 
L -4.966262 166.3128 
Q -4.966262 172.9656 0.773166 172.9656 
z
" clip-path="url(#pac395cec39)" style="fill: #00adcf; stroke: #002060; stroke-width: 1.6; stroke-linejoin: miter"/>
   </g>
   <g id="patch_9">
    <path d="M 110.778881 172.9656 
L 194.000595 172.9656 
Q 199.740023 172.9656 199.740023 166.3128 
L 199.740023 125.2872 
Q 199.740023 118.6344 194.000595 118.6344 
L 110.778881 118.6344 
Q 105.039452 118.6344 105.039452 125.2872 
L 105.039452 166.3128 
Q 105.039452 172.9656 110.778881 172.9656 
z
" clip-path="url(#pac395cec39)" style="fill: #00adcf; stroke: #002060; stroke-width: 1.6; stroke-linejoin: miter"/>
   </g>
   <g id="patch_10">
    <path d="M 235.133166 84.2616 
L 318.354881 84.2616 
Q 324.094309 84.2616 324.094309 77.6088 
L 324.094309 36.5832 
Q 324.094309 29.9304 318.354881 29.9304 
L 235.133166 29.9304 
Q 229.393738 29.9304 229.393738 36.5832 
L 229.393738 77.6088 
Q 229.393738 84.2616 235.133166 84.2616 
z
" clip-path="url(#pac395cec39)" style="fill: #8fd2e9; stroke: #002060; stroke-width: 1.6; stroke-linejoin: miter"/>
   </g>
   <g id="patch_11">
    <path d="M 235.133166 172.9656 
L 318.354881 172.9656 
Q 324.094309 172.9656 324.094309 166.3128 
L 324.094309 125.2872 
Q 324.094309 118.6344 318.354881 118.6344 
L 235.133166 118.6344 
Q 229.393738 118.6344 229.393738 125.2872 
L 229.393738 166.3128 
Q 229.393738 172.9656 235.133166 172.9656 
z
" clip-path="url(#pac395cec39)" style="fill: #8fd2e9; stroke: #002060; stroke-width: 1.6; stroke-linejoin: miter"/>
   </g>
   <g id="patch_12">
    <path d="M 235.133166 261.6696 
L 318.354881 261.6696 
Q 324.094309 261.6696 324.094309 255.0168 
L 324.094309 213.9912 
Q 324.094309 207.3384 318.354881 207.3384 
L 235.133166 207.3384 
Q 229.393738 207.3384 229.393738 213.9912 
L 229.393738 255.0168 
Q 229.393738 261.6696 235.133166 261.6696 
z
" clip-path="url(#pac395cec39)" style="fill: #8fd2e9; stroke: #002060; stroke-width: 1.6; stroke-linejoin: miter"/>
   </g>
   <g id="patch_13">
    <path d="M 352.313166 172.9656 
L 440.317738 172.9656 
Q 446.057166 172.9656 446.057166 166.3128 
L 446.057166 125.2872 
Q 446.057166 118.6344 440.317738 118.6344 
L 352.313166 118.6344 
Q 346.573738 118.6344 346.573738 125.2872 
L 346.573738 166.3128 
Q 346.573738 172.9656 352.313166 172.9656 
z
" clip-path="url(#pac395cec39)" style="fill: #002060; stroke: #002060; stroke-width: 1.6; stroke-linejoin: miter"/>
   </g>
   <g id="patch_14">
    <path d="M 474.276023 172.9656 
L 528.800595 172.9656 
Q 534.540023 172.9656 534.540023 166.3128 
L 534.540023 125.2872 
Q 534.540023 118.6344 528.800595 118.6344 
L 474.276023 118.6344 
Q 468.536595 118.6344 468.536595 125.2872 
L 468.536595 166.3128 
Q 468.536595 172.9656 474.276023 172.9656 
z
" clip-path="url(#pac395cec39)" style="fill: #002060; stroke: #002060; stroke-width: 1.6; stroke-linejoin: miter"/>
   </g>
   <g id="text_1">
    <text style="font-weight: 700; font-size: 10.5px; font-family: 'DejaVu Sans'; text-anchor: middle; fill: #002060" x="42.384023" y="148.697344" transform="rotate(-0 42.384023 148.697344)">Percettrone</text>
   </g>
   <g id="text_2">
    <text style="font-weight: 700; font-size: 10.5px; font-family: 'DejaVu Sans'; fill: #002060" transform="translate(110.005831 142.818492)">Rete profonda</text>
    <text style="font-weight: 700; font-size: 10.5px; font-family: 'DejaVu Sans'; fill: #002060" transform="translate(135.173019 154.576195)">(MLP)</text>
   </g>
   <g id="text_3">
    <text style="font-weight: 700; font-size: 10.5px; font-family: 'DejaVu Sans'; fill: #002060" transform="translate(264.103828 54.073477)">CNN</text>
    <text style="font-weight: 700; font-size: 10.5px; font-family: 'DejaVu Sans'; fill: #002060" transform="translate(249.365273 65.83118)">immagini</text>
   </g>
   <g id="text_4">
    <text style="font-weight: 700; font-size: 10.5px; font-family: 'DejaVu Sans'; fill: #002060" transform="translate(244.160391 142.818492)">RNN, LSTM</text>
    <text style="font-weight: 700; font-size: 10.5px; font-family: 'DejaVu Sans'; fill: #002060" transform="translate(248.64832 154.576195)">sequenze</text>
   </g>
   <g id="text_5">
    <text style="font-weight: 700; font-size: 10.5px; font-family: 'DejaVu Sans'; fill: #002060" transform="translate(263.97832 231.481477)">GAN</text>
    <text style="font-weight: 700; font-size: 10.5px; font-family: 'DejaVu Sans'; fill: #002060" transform="translate(240.234375 243.23918)">generazione</text>
   </g>
   <g id="text_6">
    <text style="font-weight: 700; font-size: 10.5px; font-family: 'DejaVu Sans'; fill: #ffffff" transform="translate(360.2176 142.818492)">Transformer</text>
    <text style="font-weight: 700; font-size: 10.5px; font-family: 'DejaVu Sans'; fill: #ffffff" transform="translate(364.694866 154.576195)">attenzione</text>
   </g>
   <g id="text_7">
    <text style="font-weight: 700; font-size: 10.5px; font-family: 'DejaVu Sans'; text-anchor: middle; fill: #ffffff" x="501.538309" y="148.697344" transform="rotate(-0 501.538309 148.697344)">LLM</text>
   </g>
  </g>
 </g>
 <defs>
  <clipPath id="pac395cec39">
   <rect x="8.904023" y="7.2" width="535.68" height="277.2"/>
  </clipPath>
 </defs>
</svg>
