<svg viewBox="0 0 270.968 103.135" xmlns="http://www.w3.org/2000/svg" xmlns:xlink="http://www.w3.org/1999/xlink" id="Livello_1" overflow="hidden"><path d="M238.121 86.9473C247.931 86.9473 253.43 81.2983 253.43 72.8273 253.43 64.5043 247.931 58.8573 238.121 58.8573L223.625 58.8573 223.625 86.9473 238.121 86.9473ZM237.23 43.3993C246.148 43.3993 251.646 38.0493 251.646 30.1723 251.646 22.1453 246.148 16.7953 237.23 16.7953L223.625 16.7953 223.625 43.3993 237.23 43.3993ZM206.087 9.21532C206.087 4.45732 209.059 1.33834 213.963 1.33834L237.675 1.33834C258.781 1.33834 269.185 12.0393 269.185 28.0913 269.185 38.6443 264.578 45.9263 257.443 49.6433L257.443 49.9403C264.875 52.9103 270.968 61.3823 270.968 73.2743 270.968 92.2973 258.186 102.403 237.082 102.403L213.963 102.403C209.059 102.403 206.087 99.4313 206.087 94.6763L206.087 9.21531 206.087 9.21531Z" stroke-width="0" fill="#002060"/><path d="M147.269 26.8315 179.617 97.9555C181.035 101.096 184.175 103.124 187.619 103.124 190.64 103.124 193.415 101.6 195.036 99.0475 196.656 96.4955 196.853 93.3385 195.57 90.6035L155.57 5.76951C154.014 2.47151 150.986 0.29951 147.269 0.23451 143.551 0.29951 140.523 2.47151 138.968 5.76951L98.9674 90.6035C97.6845 93.3385 97.8814 96.4955 99.5025 99.0475 101.122 101.6 103.896 103.124 106.918 103.124 110.362 103.124 113.502 101.096 114.92 97.9555 114.92 97.9555 147.269 26.8315 147.269 26.8315Z" stroke-width="0" fill="#002060"/><path d="M94.1444 1.3657 56.1754 1.3657C53.4905 1.3657 51.3134 3.54371 51.3134 6.2277L51.3134 94.1237C51.3134 100.593 58.1654 105.488 64.9955 101.925 67.7215 100.503 69.3145 97.5597 69.3145 94.4847L69.3145 60.6697 85.5995 60.6697C88.5055 60.6697 91.2815 59.1587 92.6305 56.5857 96.0385 50.0887 91.3825 43.5567 85.2235 43.5567L69.3145 43.5567 69.3145 18.4767 94.5205 18.4767C97.4265 18.4767 100.202 16.9677 101.552 14.3937 104.959 7.89671 100.303 1.3657 94.1444 1.3657" stroke-width="0" fill="#002060"/><path d="M14.6382 31.6596C7.80917 28.0976 0.95816 32.9926 0.95816 39.4606L0.95715 62.3106 0.95715 70.3496 0.95816 94.1236C0.95816 100.593 7.80917 105.487 14.6382 101.926 17.3642 100.503 18.9592 97.5606 18.9592 94.4856L18.9592 39.0976C18.9592 36.0236 17.3642 33.0816 14.6382 31.6596" stroke-width="0" fill="#002060"/><path d="M138.056 93.9223C138.056 88.8323 142.181 84.7073 147.27 84.7073 152.358 84.7073 156.483 88.8323 156.483 93.9223 156.483 99.0103 152.358 103.135 147.27 103.135 142.181 103.135 138.056 99.0103 138.056 93.9223" stroke-width="0" fill="#E63339"/><path d="M5.30417 1.06001C14.2812-3.07897 22.9942 5.63002 18.8571 14.611 18.0002 16.47 16.4821 17.991 14.6232 18.851 5.63715 23.008-3.09183 14.274 1.06717 5.29103 1.92615 3.43501 3.44617 1.917 5.30417 1.06001" stroke-width="0" fill="#54B263"/></svg>