<?xml version="1.0" encoding="utf-8" standalone="no"?>
<!DOCTYPE svg PUBLIC "-//W3C//DTD SVG 1.1//EN"
  "http://www.w3.org/Graphics/SVG/1.1/DTD/svg11.dtd">
<svg xmlns:xlink="http://www.w3.org/1999/xlink" width="607.093636pt" height="243.252268pt" viewBox="0 0 607.093636 243.252268" xmlns="http://www.w3.org/2000/svg" version="1.1">
 <metadata>
  <rdf:RDF xmlns:dc="http://purl.org/dc/elements/1.1/" xmlns:cc="http://creativecommons.org/ns#" xmlns:rdf="http://www.w3.org/1999/02/22-rdf-syntax-ns#">
   <cc:Work>
    <dc:type rdf:resource="http://purl.org/dc/dcmitype/StillImage"/>
    <dc:date>2026-06-25T17:51:46.824683</dc:date>
    <dc:format>image/svg+xml</dc:format>
    <dc:creator>
     <cc:Agent>
      <dc:title>Matplotlib v3.10.0, https://matplotlib.org/</dc:title>
     </cc:Agent>
    </dc:creator>
   </cc:Work>
  </rdf:RDF>
 </metadata>
 <defs>
  <style type="text/css">*{stroke-linejoin: round; stroke-linecap: butt}</style>
 </defs>
 <g id="figure_1">
  <g id="patch_1">
   <path d="M -0 243.252268 
L 607.093636 243.252268 
L 607.093636 0 
L -0 0 
L -0 243.252268 
z
" style="fill: none"/>
  </g>
  <g id="axes_1">
   <g id="patch_2">
    <path d="M 135.536364 189.383178 
L 77.2 131.046814 
L 18.863636 189.383178 
L 77.2 247.719541 
z
" clip-path="url(#pc2cd4cc132)" style="fill: #002060; opacity: 0.18; stroke: #002060; stroke-width: 1.6; stroke-linejoin: miter"/>
   </g>
   <g id="patch_3">
    <path d="M 188.039091 118.942018 
C 195.001034 118.942018 201.678771 117.144112 206.601608 113.944268 
C 211.524445 110.744424 214.290455 106.403895 214.290455 101.878632 
C 214.290455 97.353369 211.524445 93.01284 206.601608 89.812996 
C 201.678771 86.613152 195.001034 84.815246 188.039091 84.815246 
C 181.077148 84.815246 174.399411 86.613152 169.476574 89.812996 
C 164.553737 93.01284 161.787727 97.353369 161.787727 101.878632 
C 161.787727 106.403895 164.553737 110.744424 169.476574 113.944268 
C 174.399411 117.144112 181.077148 118.942018 188.039091 118.942018 
L 188.039091 118.942018 
z
" clip-path="url(#pc2cd4cc132)" style="fill: none; opacity: 0.9; stroke: #00adcf; stroke-width: 1.4; stroke-linejoin: miter"/>
   </g>
   <g id="patch_4">
    <path d="M 188.039091 136.005405 
C 201.962977 136.005405 215.318451 132.409593 225.164125 126.009905 
C 235.0098 119.610216 240.541818 110.929158 240.541818 101.878632 
C 240.541818 92.828106 235.0098 84.147048 225.164125 77.74736 
C 215.318451 71.347671 201.962977 67.751859 188.039091 67.751859 
C 174.115205 67.751859 160.759731 71.347671 150.914056 77.74736 
C 141.068382 84.147048 135.536364 92.828106 135.536364 101.878632 
C 135.536364 110.929158 141.068382 119.610216 150.914056 126.009905 
C 160.759731 132.409593 174.115205 136.005405 188.039091 136.005405 
L 188.039091 136.005405 
z
" clip-path="url(#pc2cd4cc132)" style="fill: none; opacity: 0.9; stroke: #00adcf; stroke-width: 1.4; stroke-linejoin: miter"/>
   </g>
   <g id="patch_5">
    <path d="M 188.039091 154.964723 
C 209.698469 154.964723 230.473651 149.371238 245.789145 139.416167 
C 261.104638 129.461096 269.71 115.957228 269.71 101.878632 
C 269.71 87.800036 261.104638 74.296168 245.789145 64.341097 
C 230.473651 54.386027 209.698469 48.792541 188.039091 48.792541 
C 166.379713 48.792541 145.604531 54.386027 130.289037 64.341097 
C 114.973544 74.296168 106.368182 87.800036 106.368182 101.878632 
C 106.368182 115.957228 114.973544 129.461096 130.289037 139.416167 
C 145.604531 149.371238 166.379713 154.964723 188.039091 154.964723 
L 188.039091 154.964723 
z
" clip-path="url(#pc2cd4cc132)" style="fill: none; opacity: 0.9; stroke: #00adcf; stroke-width: 1.4; stroke-linejoin: miter"/>
   </g>
   <g id="patch_6">
    <path d="M 188.039091 175.819973 
C 218.207511 175.819973 247.144371 168.029047 268.476666 154.163056 
C 289.80896 140.297064 301.795 121.488105 301.795 101.878632 
C 301.795 82.269159 289.80896 63.4602 268.476666 49.594209 
C 247.144371 35.728217 218.207511 27.937291 188.039091 27.937291 
C 157.870671 27.937291 128.93381 35.728217 107.601516 49.594209 
C 86.269222 63.4602 74.283182 82.269159 74.283182 101.878632 
C 74.283182 121.488105 86.269222 140.297064 107.601516 154.163056 
C 128.93381 168.029047 157.870671 175.819973 188.039091 175.819973 
L 188.039091 175.819973 
z
" clip-path="url(#pc2cd4cc132)" style="fill: none; opacity: 0.9; stroke: #00adcf; stroke-width: 1.4; stroke-linejoin: miter"/>
   </g>
   <g id="line2d_1">
    <path d="M 30.530909 189.383178 
L 263.876364 189.383178 
" clip-path="url(#pc2cd4cc132)" style="fill: none; stroke: #545454; stroke-linecap: square"/>
   </g>
   <g id="line2d_2">
    <path d="M 77.2 236.052268 
L 77.2 26.041359 
" clip-path="url(#pc2cd4cc132)" style="fill: none; stroke: #545454; stroke-linecap: square"/>
   </g>
   <g id="text_1">
    <!-- $\hat\beta$ (minimi quadrati) -->
    <g style="fill: #002060" transform="translate(194.039091 93.878632)">
     <text>
      <tspan x="8.257812" y="-4.609375" style="font-size: 13px; font-family: 'DejaVu Sans'; fill: #002060">̂</tspan>
      <tspan x="8.296387" y="-0.3125" style="font-size: 13px; font-family: 'DejaVu Sans'; fill: #002060"> </tspan>
      <tspan x="12.428711" y="-0.3125" style="font-size: 13px; font-family: 'DejaVu Sans'; fill: #002060">(</tspan>
      <tspan x="17.500488" y="-0.3125" style="font-size: 13px; font-family: 'DejaVu Sans'; fill: #002060">m</tspan>
      <tspan x="30.164062" y="-0.3125" style="font-size: 13px; font-family: 'DejaVu Sans'; fill: #002060">i</tspan>
      <tspan x="33.775879" y="-0.3125" style="font-size: 13px; font-family: 'DejaVu Sans'; fill: #002060">n</tspan>
      <tspan x="42.015137" y="-0.3125" style="font-size: 13px; font-family: 'DejaVu Sans'; fill: #002060">i</tspan>
      <tspan x="45.626953" y="-0.3125" style="font-size: 13px; font-family: 'DejaVu Sans'; fill: #002060">m</tspan>
      <tspan x="58.290527" y="-0.3125" style="font-size: 13px; font-family: 'DejaVu Sans'; fill: #002060">i</tspan>
      <tspan x="61.902344" y="-0.3125" style="font-size: 13px; font-family: 'DejaVu Sans'; fill: #002060"> </tspan>
      <tspan x="66.034668" y="-0.3125" style="font-size: 13px; font-family: 'DejaVu Sans'; fill: #002060">q</tspan>
      <tspan x="74.286621" y="-0.3125" style="font-size: 13px; font-family: 'DejaVu Sans'; fill: #002060">u</tspan>
      <tspan x="82.525879" y="-0.3125" style="font-size: 13px; font-family: 'DejaVu Sans'; fill: #002060">a</tspan>
      <tspan x="90.492188" y="-0.3125" style="font-size: 13px; font-family: 'DejaVu Sans'; fill: #002060">d</tspan>
      <tspan x="98.744141" y="-0.3125" style="font-size: 13px; font-family: 'DejaVu Sans'; fill: #002060">r</tspan>
      <tspan x="104.088867" y="-0.3125" style="font-size: 13px; font-family: 'DejaVu Sans'; fill: #002060">a</tspan>
      <tspan x="112.055176" y="-0.3125" style="font-size: 13px; font-family: 'DejaVu Sans'; fill: #002060">t</tspan>
      <tspan x="117.152344" y="-0.3125" style="font-size: 13px; font-family: 'DejaVu Sans'; fill: #002060">i</tspan>
      <tspan x="120.76416" y="-0.3125" style="font-size: 13px; font-family: 'DejaVu Sans'; fill: #002060">)</tspan>
      <tspan x="0" y="-0.3125" style="font-style: oblique; font-size: 13px; font-family: 'DejaVu Sans'; fill: #002060">β</tspan>
     </text>
    </g>
   </g>
   <g id="text_2">
    <!-- $\beta_1$ -->
    <g style="fill: #414f69" transform="translate(260.959545 199.883723)">
     <text>
      <tspan x="0" y="-0.734375" style="font-style: oblique; font-size: 15.6px; font-family: 'DejaVu Sans'; fill: #414f69">β</tspan>
      <tspan x="9.971619" y="1.890625" style="font-size: 10.92px; font-family: 'DejaVu Sans'; fill: #414f69">1</tspan>
     </text>
    </g>
   </g>
   <g id="text_3">
    <!-- $\beta_2$ -->
    <g style="fill: #414f69" transform="translate(65.532727 28.958178)">
     <text>
      <tspan x="0" y="-0.734375" style="font-style: oblique; font-size: 15.6px; font-family: 'DejaVu Sans'; fill: #414f69">β</tspan>
      <tspan x="9.971619" y="1.890625" style="font-size: 10.92px; font-family: 'DejaVu Sans'; fill: #414f69">2</tspan>
     </text>
    </g>
   </g>
   <g id="text_4">
    <text style="font-weight: 700; font-size: 13px; font-family: 'DejaVu Sans'; fill: #dc4c4c" transform="translate(7.2 110.33122)">Soluzione:</text>
    <!-- $\beta_1=0$ -->
    <g style="fill: #dc4c4c" transform="translate(7.2 125.046814)">
     <text>
      <tspan x="0" y="-0.046875" style="font-style: oblique; font-size: 13px; font-family: 'DejaVu Sans'; fill: #dc4c4c">β</tspan>
      <tspan x="8.296387" y="2.085938" style="font-size: 9.1px; font-family: 'DejaVu Sans'; fill: #dc4c4c">1</tspan>
      <tspan x="16.974268" y="-0.046875" style="font-size: 13px; font-family: 'DejaVu Sans'; fill: #dc4c4c">=</tspan>
      <tspan x="30.399561" y="-0.046875" style="font-size: 13px; font-family: 'DejaVu Sans'; fill: #dc4c4c">0</tspan>
     </text>
    </g>
   </g>
   <g id="text_5">
    <text style="font-weight: 700; font-size: 16.9px; font-family: 'DejaVu Sans'; text-anchor: middle; fill: #002060" x="147.203636" y="20.041359" transform="rotate(-0 147.203636 20.041359)">Lasso  (vincolo L1)</text>
   </g>
   <g id="PathCollection_1">
    <defs>
     <path id="me71c7f0f40" d="M 0 3.354102 
C 0.889518 3.354102 1.742724 3.000693 2.371708 2.371708 
C 3.000693 1.742724 3.354102 0.889518 3.354102 0 
C 3.354102 -0.889518 3.000693 -1.742724 2.371708 -2.371708 
C 1.742724 -3.000693 0.889518 -3.354102 0 -3.354102 
C -0.889518 -3.354102 -1.742724 -3.000693 -2.371708 -2.371708 
C -3.000693 -1.742724 -3.354102 -0.889518 -3.354102 0 
C -3.354102 0.889518 -3.000693 1.742724 -2.371708 2.371708 
C -1.742724 3.000693 -0.889518 3.354102 0 3.354102 
z
" style="stroke: #002060"/>
    </defs>
    <g clip-path="url(#pc2cd4cc132)">
     <use xlink:href="#me71c7f0f40" x="188.039091" y="101.878632" style="fill: #002060; stroke: #002060"/>
    </g>
   </g>
   <g id="PathCollection_2">
    <defs>
     <path id="m93752e6609" d="M 0 4.1833 
C 1.109424 4.1833 2.173559 3.742521 2.95804 2.95804 
C 3.742521 2.173559 4.1833 1.109424 4.1833 0 
C 4.1833 -1.109424 3.742521 -2.173559 2.95804 -2.95804 
C 2.173559 -3.742521 1.109424 -4.1833 0 -4.1833 
C -1.109424 -4.1833 -2.173559 -3.742521 -2.95804 -2.95804 
C -3.742521 -2.173559 -4.1833 -1.109424 -4.1833 0 
C -4.1833 1.109424 -3.742521 2.173559 -2.95804 2.95804 
C -2.173559 3.742521 -1.109424 4.1833 0 4.1833 
z
" style="stroke: #dc4c4c"/>
    </defs>
    <g clip-path="url(#pc2cd4cc132)">
     <use xlink:href="#m93752e6609" x="77.2" y="131.046814" style="fill: #dc4c4c; stroke: #dc4c4c"/>
    </g>
   </g>
  </g>
  <g id="axes_2">
   <g id="patch_7">
    <path d="M 357.214545 247.719541 
C 372.68553 247.719541 387.524946 241.572854 398.464584 230.633216 
C 409.404222 219.693578 415.550909 204.854162 415.550909 189.383178 
C 415.550909 173.912193 409.404222 159.072777 398.464584 148.133139 
C 387.524946 137.193501 372.68553 131.046814 357.214545 131.046814 
C 341.743561 131.046814 326.904145 137.193501 315.964507 148.133139 
C 305.024869 159.072777 298.878182 173.912193 298.878182 189.383178 
C 298.878182 204.854162 305.024869 219.693578 315.964507 230.633216 
C 326.904145 241.572854 341.743561 247.719541 357.214545 247.719541 
z
" clip-path="url(#pbc54155fe5)" style="fill: #002060; opacity: 0.18; stroke: #002060; stroke-width: 1.6; stroke-linejoin: miter"/>
   </g>
   <g id="patch_8">
    <path d="M 468.053636 118.942018 
C 475.015579 118.942018 481.693316 117.144112 486.616154 113.944268 
C 491.538991 110.744424 494.305 106.403895 494.305 101.878632 
C 494.305 97.353369 491.538991 93.01284 486.616154 89.812996 
C 481.693316 86.613152 475.015579 84.815246 468.053636 84.815246 
C 461.091693 84.815246 454.413956 86.613152 449.491119 89.812996 
C 444.568282 93.01284 441.802273 97.353369 441.802273 101.878632 
C 441.802273 106.403895 444.568282 110.744424 449.491119 113.944268 
C 454.413956 117.144112 461.091693 118.942018 468.053636 118.942018 
L 468.053636 118.942018 
z
" clip-path="url(#pbc54155fe5)" style="fill: none; opacity: 0.9; stroke: #00adcf; stroke-width: 1.4; stroke-linejoin: miter"/>
   </g>
   <g id="patch_9">
    <path d="M 468.053636 136.005405 
C 481.977522 136.005405 495.332997 132.409593 505.178671 126.009905 
C 515.024345 119.610216 520.556364 110.929158 520.556364 101.878632 
C 520.556364 92.828106 515.024345 84.147048 505.178671 77.74736 
C 495.332997 71.347671 481.977522 67.751859 468.053636 67.751859 
C 454.12975 67.751859 440.774276 71.347671 430.928602 77.74736 
C 421.082928 84.147048 415.550909 92.828106 415.550909 101.878632 
C 415.550909 110.929158 421.082928 119.610216 430.928602 126.009905 
C 440.774276 132.409593 454.12975 136.005405 468.053636 136.005405 
L 468.053636 136.005405 
z
" clip-path="url(#pbc54155fe5)" style="fill: none; opacity: 0.9; stroke: #00adcf; stroke-width: 1.4; stroke-linejoin: miter"/>
   </g>
   <g id="patch_10">
    <path d="M 468.053636 154.964723 
C 489.713015 154.964723 510.488197 149.371238 525.80369 139.416167 
C 541.119183 129.461096 549.724545 115.957228 549.724545 101.878632 
C 549.724545 87.800036 541.119183 74.296168 525.80369 64.341097 
C 510.488197 54.386027 489.713015 48.792541 468.053636 48.792541 
C 446.394258 48.792541 425.619076 54.386027 410.303583 64.341097 
C 394.988089 74.296168 386.382727 87.800036 386.382727 101.878632 
C 386.382727 115.957228 394.988089 129.461096 410.303583 139.416167 
C 425.619076 149.371238 446.394258 154.964723 468.053636 154.964723 
L 468.053636 154.964723 
z
" clip-path="url(#pbc54155fe5)" style="fill: none; opacity: 0.9; stroke: #00adcf; stroke-width: 1.4; stroke-linejoin: miter"/>
   </g>
   <g id="patch_11">
    <path d="M 468.053636 175.819973 
C 498.222056 175.819973 527.158917 168.029047 548.491211 154.163056 
C 569.823505 140.297064 581.809545 121.488105 581.809545 101.878632 
C 581.809545 82.269159 569.823505 63.4602 548.491211 49.594209 
C 527.158917 35.728217 498.222056 27.937291 468.053636 27.937291 
C 437.885217 27.937291 408.948356 35.728217 387.616062 49.594209 
C 366.283767 63.4602 354.297727 82.269159 354.297727 101.878632 
C 354.297727 121.488105 366.283767 140.297064 387.616062 154.163056 
C 408.948356 168.029047 437.885217 175.819973 468.053636 175.819973 
L 468.053636 175.819973 
z
" clip-path="url(#pbc54155fe5)" style="fill: none; opacity: 0.9; stroke: #00adcf; stroke-width: 1.4; stroke-linejoin: miter"/>
   </g>
   <g id="line2d_3">
    <path d="M 310.545455 189.383178 
L 543.890909 189.383178 
" clip-path="url(#pbc54155fe5)" style="fill: none; stroke: #545454; stroke-linecap: square"/>
   </g>
   <g id="line2d_4">
    <path d="M 357.214545 236.052268 
L 357.214545 26.041359 
" clip-path="url(#pbc54155fe5)" style="fill: none; stroke: #545454; stroke-linecap: square"/>
   </g>
   <g id="text_6">
    <!-- $\hat\beta$ (minimi quadrati) -->
    <g style="fill: #002060" transform="translate(474.053636 93.878632)">
     <text>
      <tspan x="8.257812" y="-4.609375" style="font-size: 13px; font-family: 'DejaVu Sans'; fill: #002060">̂</tspan>
      <tspan x="8.296387" y="-0.3125" style="font-size: 13px; font-family: 'DejaVu Sans'; fill: #002060"> </tspan>
      <tspan x="12.428711" y="-0.3125" style="font-size: 13px; font-family: 'DejaVu Sans'; fill: #002060">(</tspan>
      <tspan x="17.500488" y="-0.3125" style="font-size: 13px; font-family: 'DejaVu Sans'; fill: #002060">m</tspan>
      <tspan x="30.164062" y="-0.3125" style="font-size: 13px; font-family: 'DejaVu Sans'; fill: #002060">i</tspan>
      <tspan x="33.775879" y="-0.3125" style="font-size: 13px; font-family: 'DejaVu Sans'; fill: #002060">n</tspan>
      <tspan x="42.015137" y="-0.3125" style="font-size: 13px; font-family: 'DejaVu Sans'; fill: #002060">i</tspan>
      <tspan x="45.626953" y="-0.3125" style="font-size: 13px; font-family: 'DejaVu Sans'; fill: #002060">m</tspan>
      <tspan x="58.290527" y="-0.3125" style="font-size: 13px; font-family: 'DejaVu Sans'; fill: #002060">i</tspan>
      <tspan x="61.902344" y="-0.3125" style="font-size: 13px; font-family: 'DejaVu Sans'; fill: #002060"> </tspan>
      <tspan x="66.034668" y="-0.3125" style="font-size: 13px; font-family: 'DejaVu Sans'; fill: #002060">q</tspan>
      <tspan x="74.286621" y="-0.3125" style="font-size: 13px; font-family: 'DejaVu Sans'; fill: #002060">u</tspan>
      <tspan x="82.525879" y="-0.3125" style="font-size: 13px; font-family: 'DejaVu Sans'; fill: #002060">a</tspan>
      <tspan x="90.492188" y="-0.3125" style="font-size: 13px; font-family: 'DejaVu Sans'; fill: #002060">d</tspan>
      <tspan x="98.744141" y="-0.3125" style="font-size: 13px; font-family: 'DejaVu Sans'; fill: #002060">r</tspan>
      <tspan x="104.088867" y="-0.3125" style="font-size: 13px; font-family: 'DejaVu Sans'; fill: #002060">a</tspan>
      <tspan x="112.055176" y="-0.3125" style="font-size: 13px; font-family: 'DejaVu Sans'; fill: #002060">t</tspan>
      <tspan x="117.152344" y="-0.3125" style="font-size: 13px; font-family: 'DejaVu Sans'; fill: #002060">i</tspan>
      <tspan x="120.76416" y="-0.3125" style="font-size: 13px; font-family: 'DejaVu Sans'; fill: #002060">)</tspan>
      <tspan x="0" y="-0.3125" style="font-style: oblique; font-size: 13px; font-family: 'DejaVu Sans'; fill: #002060">β</tspan>
     </text>
    </g>
   </g>
   <g id="text_7">
    <!-- $\beta_1$ -->
    <g style="fill: #414f69" transform="translate(540.974091 199.883723)">
     <text>
      <tspan x="0" y="-0.734375" style="font-style: oblique; font-size: 15.6px; font-family: 'DejaVu Sans'; fill: #414f69">β</tspan>
      <tspan x="9.971619" y="1.890625" style="font-size: 10.92px; font-family: 'DejaVu Sans'; fill: #414f69">1</tspan>
     </text>
    </g>
   </g>
   <g id="text_8">
    <!-- $\beta_2$ -->
    <g style="fill: #414f69" transform="translate(345.547273 28.958178)">
     <text>
      <tspan x="0" y="-0.734375" style="font-style: oblique; font-size: 15.6px; font-family: 'DejaVu Sans'; fill: #414f69">β</tspan>
      <tspan x="9.971619" y="1.890625" style="font-size: 10.92px; font-family: 'DejaVu Sans'; fill: #414f69">2</tspan>
     </text>
    </g>
   </g>
   <g id="text_9">
    <text style="font-weight: 700; font-size: 13px; font-family: 'DejaVu Sans'; fill: #dc4c4c" transform="translate(298.383091 152.766501)">Soluzione:</text>
    <text style="font-weight: 700; font-size: 13px; font-family: 'DejaVu Sans'; fill: #dc4c4c" transform="translate(298.383091 167.323658)">entrambi piccoli,</text>
    <text style="font-weight: 700; font-size: 13px; font-family: 'DejaVu Sans'; fill: #dc4c4c" transform="translate(298.383091 181.880814)">nessuno a zero</text>
   </g>
   <g id="text_10">
    <text style="font-weight: 700; font-size: 16.9px; font-family: 'DejaVu Sans'; text-anchor: middle; fill: #002060" x="427.218182" y="20.041359" transform="rotate(-0 427.218182 20.041359)">Ridge  (vincolo L2)</text>
   </g>
   <g id="PathCollection_3">
    <g clip-path="url(#pbc54155fe5)">
     <use xlink:href="#me71c7f0f40" x="468.053636" y="101.878632" style="fill: #002060; stroke: #002060"/>
    </g>
   </g>
   <g id="PathCollection_4">
    <g clip-path="url(#pbc54155fe5)">
     <use xlink:href="#m93752e6609" x="393.383091" y="143.880814" style="fill: #dc4c4c; stroke: #dc4c4c"/>
    </g>
   </g>
  </g>
 </g>
 <defs>
  <clipPath id="pc2cd4cc132">
   <rect x="30.530909" y="26.041359" width="233.345455" height="210.010909"/>
  </clipPath>
  <clipPath id="pbc54155fe5">
   <rect x="310.545455" y="26.041359" width="233.345455" height="210.010909"/>
  </clipPath>
 </defs>
</svg>
