<?xml version="1.0" encoding="utf-8" standalone="no"?>
<!DOCTYPE svg PUBLIC "-//W3C//DTD SVG 1.1//EN"
  "http://www.w3.org/Graphics/SVG/1.1/DTD/svg11.dtd">
<svg xmlns:xlink="http://www.w3.org/1999/xlink" width="578.053636pt" height="240.288878pt" viewBox="0 0 578.053636 240.288878" xmlns="http://www.w3.org/2000/svg" version="1.1">
 <metadata>
  <rdf:RDF xmlns:dc="http://purl.org/dc/elements/1.1/" xmlns:cc="http://creativecommons.org/ns#" xmlns:rdf="http://www.w3.org/1999/02/22-rdf-syntax-ns#">
   <cc:Work>
    <dc:type rdf:resource="http://purl.org/dc/dcmitype/StillImage"/>
    <dc:date>2026-06-24T17:46:52.845331</dc:date>
    <dc:format>image/svg+xml</dc:format>
    <dc:creator>
     <cc:Agent>
      <dc:title>Matplotlib v3.10.0, https://matplotlib.org/</dc:title>
     </cc:Agent>
    </dc:creator>
   </cc:Work>
  </rdf:RDF>
 </metadata>
 <defs>
  <style type="text/css">*{stroke-linejoin: round; stroke-linecap: butt}</style>
 </defs>
 <g id="figure_1">
  <g id="patch_1">
   <path d="M -0 240.288878 
L 578.053636 240.288878 
L 578.053636 0 
L -0 0 
L -0 240.288878 
z
" style="fill: none"/>
  </g>
  <g id="axes_1">
   <g id="patch_2">
    <path d="M 135.536364 186.419787 
L 77.2 128.083423 
L 18.863636 186.419787 
L 77.2 244.756151 
z
" clip-path="url(#p73c7b141f5)" style="fill: #002060; opacity: 0.18; stroke: #002060; stroke-width: 1.6; stroke-linejoin: miter"/>
   </g>
   <g id="patch_3">
    <path d="M 188.039091 115.978628 
C 195.001034 115.978628 201.678771 114.180722 206.601608 110.980878 
C 211.524445 107.781034 214.290455 103.440504 214.290455 98.915241 
C 214.290455 94.389979 211.524445 90.049449 206.601608 86.849605 
C 201.678771 83.649761 195.001034 81.851855 188.039091 81.851855 
C 181.077148 81.851855 174.399411 83.649761 169.476574 86.849605 
C 164.553737 90.049449 161.787727 94.389979 161.787727 98.915241 
C 161.787727 103.440504 164.553737 107.781034 169.476574 110.980878 
C 174.399411 114.180722 181.077148 115.978628 188.039091 115.978628 
L 188.039091 115.978628 
z
" clip-path="url(#p73c7b141f5)" style="fill: none; opacity: 0.9; stroke: #00adcf; stroke-width: 1.4; stroke-linejoin: miter"/>
   </g>
   <g id="patch_4">
    <path d="M 188.039091 133.042014 
C 201.962977 133.042014 215.318451 129.446202 225.164125 123.046514 
C 235.0098 116.646826 240.541818 107.965767 240.541818 98.915241 
C 240.541818 89.864716 235.0098 81.183657 225.164125 74.783969 
C 215.318451 68.384281 201.962977 64.788469 188.039091 64.788469 
C 174.115205 64.788469 160.759731 68.384281 150.914056 74.783969 
C 141.068382 81.183657 135.536364 89.864716 135.536364 98.915241 
C 135.536364 107.965767 141.068382 116.646826 150.914056 123.046514 
C 160.759731 129.446202 174.115205 133.042014 188.039091 133.042014 
L 188.039091 133.042014 
z
" clip-path="url(#p73c7b141f5)" style="fill: none; opacity: 0.9; stroke: #00adcf; stroke-width: 1.4; stroke-linejoin: miter"/>
   </g>
   <g id="patch_5">
    <path d="M 188.039091 152.001332 
C 209.698469 152.001332 230.473651 146.407847 245.789145 136.452776 
C 261.104638 126.497706 269.71 112.993837 269.71 98.915241 
C 269.71 84.836646 261.104638 71.332777 245.789145 61.377707 
C 230.473651 51.422636 209.698469 45.829151 188.039091 45.829151 
C 166.379713 45.829151 145.604531 51.422636 130.289037 61.377707 
C 114.973544 71.332777 106.368182 84.836646 106.368182 98.915241 
C 106.368182 112.993837 114.973544 126.497706 130.289037 136.452776 
C 145.604531 146.407847 166.379713 152.001332 188.039091 152.001332 
L 188.039091 152.001332 
z
" clip-path="url(#p73c7b141f5)" style="fill: none; opacity: 0.9; stroke: #00adcf; stroke-width: 1.4; stroke-linejoin: miter"/>
   </g>
   <g id="patch_6">
    <path d="M 188.039091 172.856582 
C 218.207511 172.856582 247.144371 165.065656 268.476666 151.199665 
C 289.80896 137.333674 301.795 118.524714 301.795 98.915241 
C 301.795 79.305769 289.80896 60.496809 268.476666 46.630818 
C 247.144371 32.764827 218.207511 24.973901 188.039091 24.973901 
C 157.870671 24.973901 128.93381 32.764827 107.601516 46.630818 
C 86.269222 60.496809 74.283182 79.305769 74.283182 98.915241 
C 74.283182 118.524714 86.269222 137.333674 107.601516 151.199665 
C 128.93381 165.065656 157.870671 172.856582 188.039091 172.856582 
L 188.039091 172.856582 
z
" clip-path="url(#p73c7b141f5)" style="fill: none; opacity: 0.9; stroke: #00adcf; stroke-width: 1.4; stroke-linejoin: miter"/>
   </g>
   <g id="line2d_1">
    <path d="M 30.530909 186.419787 
L 263.876364 186.419787 
" clip-path="url(#p73c7b141f5)" style="fill: none; stroke: #545454; stroke-linecap: square"/>
   </g>
   <g id="line2d_2">
    <path d="M 77.2 233.088878 
L 77.2 23.077969 
" clip-path="url(#p73c7b141f5)" style="fill: none; stroke: #545454; stroke-linecap: square"/>
   </g>
   <g id="text_1">
    <!-- $\hat\beta$ (minimi quadrati) -->
    <g style="fill: #002060" transform="translate(194.039091 90.915241)">
     <text>
      <tspan x="6.381836" y="-0.6875" style="font-size: 10px; font-family: 'DejaVu Sans'; fill: #002060"> </tspan>
      <tspan x="6.582031" y="-4" style="font-size: 10px; font-family: 'DejaVu Sans'; fill: #002060">̂</tspan>
      <tspan x="9.560547" y="-0.6875" style="font-size: 10px; font-family: 'DejaVu Sans'; fill: #002060">(</tspan>
      <tspan x="13.461914" y="-0.6875" style="font-size: 10px; font-family: 'DejaVu Sans'; fill: #002060">m</tspan>
      <tspan x="23.203125" y="-0.6875" style="font-size: 10px; font-family: 'DejaVu Sans'; fill: #002060">i</tspan>
      <tspan x="25.981445" y="-0.6875" style="font-size: 10px; font-family: 'DejaVu Sans'; fill: #002060">n</tspan>
      <tspan x="32.319336" y="-0.6875" style="font-size: 10px; font-family: 'DejaVu Sans'; fill: #002060">i</tspan>
      <tspan x="35.097656" y="-0.6875" style="font-size: 10px; font-family: 'DejaVu Sans'; fill: #002060">m</tspan>
      <tspan x="44.838867" y="-0.6875" style="font-size: 10px; font-family: 'DejaVu Sans'; fill: #002060">i</tspan>
      <tspan x="47.617188" y="-0.6875" style="font-size: 10px; font-family: 'DejaVu Sans'; fill: #002060"> </tspan>
      <tspan x="50.795898" y="-0.6875" style="font-size: 10px; font-family: 'DejaVu Sans'; fill: #002060">q</tspan>
      <tspan x="57.143555" y="-0.6875" style="font-size: 10px; font-family: 'DejaVu Sans'; fill: #002060">u</tspan>
      <tspan x="63.481445" y="-0.6875" style="font-size: 10px; font-family: 'DejaVu Sans'; fill: #002060">a</tspan>
      <tspan x="69.609375" y="-0.6875" style="font-size: 10px; font-family: 'DejaVu Sans'; fill: #002060">d</tspan>
      <tspan x="75.957031" y="-0.6875" style="font-size: 10px; font-family: 'DejaVu Sans'; fill: #002060">r</tspan>
      <tspan x="80.068359" y="-0.6875" style="font-size: 10px; font-family: 'DejaVu Sans'; fill: #002060">a</tspan>
      <tspan x="86.196289" y="-0.6875" style="font-size: 10px; font-family: 'DejaVu Sans'; fill: #002060">t</tspan>
      <tspan x="90.117188" y="-0.6875" style="font-size: 10px; font-family: 'DejaVu Sans'; fill: #002060">i</tspan>
      <tspan x="92.895508" y="-0.6875" style="font-size: 10px; font-family: 'DejaVu Sans'; fill: #002060">)</tspan>
      <tspan x="0" y="-0.6875" style="font-style: oblique; font-size: 10px; font-family: 'DejaVu Sans'; fill: #002060">β</tspan>
     </text>
    </g>
   </g>
   <g id="text_2">
    <!-- $\beta_1$ -->
    <g style="fill: #414f69" transform="translate(260.959545 196.920332)">
     <text>
      <tspan x="0" y="-0.8125" style="font-style: oblique; font-size: 12px; font-family: 'DejaVu Sans'; fill: #414f69">β</tspan>
      <tspan x="7.658203" y="1.15625" style="font-size: 8.4px; font-family: 'DejaVu Sans'; fill: #414f69">1</tspan>
     </text>
    </g>
   </g>
   <g id="text_3">
    <!-- $\beta_2$ -->
    <g style="fill: #414f69" transform="translate(65.532727 25.994787)">
     <text>
      <tspan x="0" y="-0.8125" style="font-style: oblique; font-size: 12px; font-family: 'DejaVu Sans'; fill: #414f69">β</tspan>
      <tspan x="7.658203" y="1.15625" style="font-size: 8.4px; font-family: 'DejaVu Sans'; fill: #414f69">2</tspan>
     </text>
    </g>
   </g>
   <g id="text_4">
    <text style="font-weight: 700; font-size: 10px; font-family: 'DejaVu Sans'; fill: #dc4c4c" transform="translate(7.2 110.763736)">soluzione:</text>
    <!-- $\beta_1=0$ -->
    <g style="fill: #dc4c4c" transform="translate(7.2 122.083423)">
     <text>
      <tspan x="0" y="-0.34375" style="font-style: oblique; font-size: 10px; font-family: 'DejaVu Sans'; fill: #dc4c4c">β</tspan>
      <tspan x="6.381836" y="1.296875" style="font-size: 7px; font-family: 'DejaVu Sans'; fill: #dc4c4c">1</tspan>
      <tspan x="13.057129" y="-0.34375" style="font-size: 10px; font-family: 'DejaVu Sans'; fill: #dc4c4c">=</tspan>
      <tspan x="23.384277" y="-0.34375" style="font-size: 10px; font-family: 'DejaVu Sans'; fill: #dc4c4c">0</tspan>
     </text>
    </g>
   </g>
   <g id="text_5">
    <text style="font-weight: 700; font-size: 13px; font-family: 'DejaVu Sans'; text-anchor: middle; fill: #002060" x="147.203636" y="17.077969" transform="rotate(-0 147.203636 17.077969)">Lasso  (vincolo L1)</text>
   </g>
   <g id="PathCollection_1">
    <defs>
     <path id="md3105d93c4" d="M 0 3.354102 
C 0.889518 3.354102 1.742724 3.000693 2.371708 2.371708 
C 3.000693 1.742724 3.354102 0.889518 3.354102 0 
C 3.354102 -0.889518 3.000693 -1.742724 2.371708 -2.371708 
C 1.742724 -3.000693 0.889518 -3.354102 0 -3.354102 
C -0.889518 -3.354102 -1.742724 -3.000693 -2.371708 -2.371708 
C -3.000693 -1.742724 -3.354102 -0.889518 -3.354102 0 
C -3.354102 0.889518 -3.000693 1.742724 -2.371708 2.371708 
C -1.742724 3.000693 -0.889518 3.354102 0 3.354102 
z
" style="stroke: #002060"/>
    </defs>
    <g clip-path="url(#p73c7b141f5)">
     <use xlink:href="#md3105d93c4" x="188.039091" y="98.915241" style="fill: #002060; stroke: #002060"/>
    </g>
   </g>
   <g id="PathCollection_2">
    <defs>
     <path id="m4746b0f1da" d="M 0 4.1833 
C 1.109424 4.1833 2.173559 3.742521 2.95804 2.95804 
C 3.742521 2.173559 4.1833 1.109424 4.1833 0 
C 4.1833 -1.109424 3.742521 -2.173559 2.95804 -2.95804 
C 2.173559 -3.742521 1.109424 -4.1833 0 -4.1833 
C -1.109424 -4.1833 -2.173559 -3.742521 -2.95804 -2.95804 
C -3.742521 -2.173559 -4.1833 -1.109424 -4.1833 0 
C -4.1833 1.109424 -3.742521 2.173559 -2.95804 2.95804 
C -2.173559 3.742521 -1.109424 4.1833 0 4.1833 
z
" style="stroke: #dc4c4c"/>
    </defs>
    <g clip-path="url(#p73c7b141f5)">
     <use xlink:href="#m4746b0f1da" x="77.2" y="128.083423" style="fill: #dc4c4c; stroke: #dc4c4c"/>
    </g>
   </g>
  </g>
  <g id="axes_2">
   <g id="patch_7">
    <path d="M 357.214545 244.756151 
C 372.68553 244.756151 387.524946 238.609463 398.464584 227.669825 
C 409.404222 216.730187 415.550909 201.890771 415.550909 186.419787 
C 415.550909 170.948802 409.404222 156.109387 398.464584 145.169749 
C 387.524946 134.230111 372.68553 128.083423 357.214545 128.083423 
C 341.743561 128.083423 326.904145 134.230111 315.964507 145.169749 
C 305.024869 156.109387 298.878182 170.948802 298.878182 186.419787 
C 298.878182 201.890771 305.024869 216.730187 315.964507 227.669825 
C 326.904145 238.609463 341.743561 244.756151 357.214545 244.756151 
z
" clip-path="url(#p3dc880a1e3)" style="fill: #002060; opacity: 0.18; stroke: #002060; stroke-width: 1.6; stroke-linejoin: miter"/>
   </g>
   <g id="patch_8">
    <path d="M 468.053636 115.978628 
C 475.015579 115.978628 481.693316 114.180722 486.616154 110.980878 
C 491.538991 107.781034 494.305 103.440504 494.305 98.915241 
C 494.305 94.389979 491.538991 90.049449 486.616154 86.849605 
C 481.693316 83.649761 475.015579 81.851855 468.053636 81.851855 
C 461.091693 81.851855 454.413956 83.649761 449.491119 86.849605 
C 444.568282 90.049449 441.802273 94.389979 441.802273 98.915241 
C 441.802273 103.440504 444.568282 107.781034 449.491119 110.980878 
C 454.413956 114.180722 461.091693 115.978628 468.053636 115.978628 
L 468.053636 115.978628 
z
" clip-path="url(#p3dc880a1e3)" style="fill: none; opacity: 0.9; stroke: #00adcf; stroke-width: 1.4; stroke-linejoin: miter"/>
   </g>
   <g id="patch_9">
    <path d="M 468.053636 133.042014 
C 481.977522 133.042014 495.332997 129.446202 505.178671 123.046514 
C 515.024345 116.646826 520.556364 107.965767 520.556364 98.915241 
C 520.556364 89.864716 515.024345 81.183657 505.178671 74.783969 
C 495.332997 68.384281 481.977522 64.788469 468.053636 64.788469 
C 454.12975 64.788469 440.774276 68.384281 430.928602 74.783969 
C 421.082928 81.183657 415.550909 89.864716 415.550909 98.915241 
C 415.550909 107.965767 421.082928 116.646826 430.928602 123.046514 
C 440.774276 129.446202 454.12975 133.042014 468.053636 133.042014 
L 468.053636 133.042014 
z
" clip-path="url(#p3dc880a1e3)" style="fill: none; opacity: 0.9; stroke: #00adcf; stroke-width: 1.4; stroke-linejoin: miter"/>
   </g>
   <g id="patch_10">
    <path d="M 468.053636 152.001332 
C 489.713015 152.001332 510.488197 146.407847 525.80369 136.452776 
C 541.119183 126.497706 549.724545 112.993837 549.724545 98.915241 
C 549.724545 84.836646 541.119183 71.332777 525.80369 61.377707 
C 510.488197 51.422636 489.713015 45.829151 468.053636 45.829151 
C 446.394258 45.829151 425.619076 51.422636 410.303583 61.377707 
C 394.988089 71.332777 386.382727 84.836646 386.382727 98.915241 
C 386.382727 112.993837 394.988089 126.497706 410.303583 136.452776 
C 425.619076 146.407847 446.394258 152.001332 468.053636 152.001332 
L 468.053636 152.001332 
z
" clip-path="url(#p3dc880a1e3)" style="fill: none; opacity: 0.9; stroke: #00adcf; stroke-width: 1.4; stroke-linejoin: miter"/>
   </g>
   <g id="patch_11">
    <path d="M 468.053636 172.856582 
C 498.222056 172.856582 527.158917 165.065656 548.491211 151.199665 
C 569.823505 137.333674 581.809545 118.524714 581.809545 98.915241 
C 581.809545 79.305769 569.823505 60.496809 548.491211 46.630818 
C 527.158917 32.764827 498.222056 24.973901 468.053636 24.973901 
C 437.885217 24.973901 408.948356 32.764827 387.616062 46.630818 
C 366.283767 60.496809 354.297727 79.305769 354.297727 98.915241 
C 354.297727 118.524714 366.283767 137.333674 387.616062 151.199665 
C 408.948356 165.065656 437.885217 172.856582 468.053636 172.856582 
L 468.053636 172.856582 
z
" clip-path="url(#p3dc880a1e3)" style="fill: none; opacity: 0.9; stroke: #00adcf; stroke-width: 1.4; stroke-linejoin: miter"/>
   </g>
   <g id="line2d_3">
    <path d="M 310.545455 186.419787 
L 543.890909 186.419787 
" clip-path="url(#p3dc880a1e3)" style="fill: none; stroke: #545454; stroke-linecap: square"/>
   </g>
   <g id="line2d_4">
    <path d="M 357.214545 233.088878 
L 357.214545 23.077969 
" clip-path="url(#p3dc880a1e3)" style="fill: none; stroke: #545454; stroke-linecap: square"/>
   </g>
   <g id="text_6">
    <!-- $\hat\beta$ (minimi quadrati) -->
    <g style="fill: #002060" transform="translate(474.053636 90.915241)">
     <text>
      <tspan x="6.381836" y="-0.6875" style="font-size: 10px; font-family: 'DejaVu Sans'; fill: #002060"> </tspan>
      <tspan x="6.582031" y="-4" style="font-size: 10px; font-family: 'DejaVu Sans'; fill: #002060">̂</tspan>
      <tspan x="9.560547" y="-0.6875" style="font-size: 10px; font-family: 'DejaVu Sans'; fill: #002060">(</tspan>
      <tspan x="13.461914" y="-0.6875" style="font-size: 10px; font-family: 'DejaVu Sans'; fill: #002060">m</tspan>
      <tspan x="23.203125" y="-0.6875" style="font-size: 10px; font-family: 'DejaVu Sans'; fill: #002060">i</tspan>
      <tspan x="25.981445" y="-0.6875" style="font-size: 10px; font-family: 'DejaVu Sans'; fill: #002060">n</tspan>
      <tspan x="32.319336" y="-0.6875" style="font-size: 10px; font-family: 'DejaVu Sans'; fill: #002060">i</tspan>
      <tspan x="35.097656" y="-0.6875" style="font-size: 10px; font-family: 'DejaVu Sans'; fill: #002060">m</tspan>
      <tspan x="44.838867" y="-0.6875" style="font-size: 10px; font-family: 'DejaVu Sans'; fill: #002060">i</tspan>
      <tspan x="47.617188" y="-0.6875" style="font-size: 10px; font-family: 'DejaVu Sans'; fill: #002060"> </tspan>
      <tspan x="50.795898" y="-0.6875" style="font-size: 10px; font-family: 'DejaVu Sans'; fill: #002060">q</tspan>
      <tspan x="57.143555" y="-0.6875" style="font-size: 10px; font-family: 'DejaVu Sans'; fill: #002060">u</tspan>
      <tspan x="63.481445" y="-0.6875" style="font-size: 10px; font-family: 'DejaVu Sans'; fill: #002060">a</tspan>
      <tspan x="69.609375" y="-0.6875" style="font-size: 10px; font-family: 'DejaVu Sans'; fill: #002060">d</tspan>
      <tspan x="75.957031" y="-0.6875" style="font-size: 10px; font-family: 'DejaVu Sans'; fill: #002060">r</tspan>
      <tspan x="80.068359" y="-0.6875" style="font-size: 10px; font-family: 'DejaVu Sans'; fill: #002060">a</tspan>
      <tspan x="86.196289" y="-0.6875" style="font-size: 10px; font-family: 'DejaVu Sans'; fill: #002060">t</tspan>
      <tspan x="90.117188" y="-0.6875" style="font-size: 10px; font-family: 'DejaVu Sans'; fill: #002060">i</tspan>
      <tspan x="92.895508" y="-0.6875" style="font-size: 10px; font-family: 'DejaVu Sans'; fill: #002060">)</tspan>
      <tspan x="0" y="-0.6875" style="font-style: oblique; font-size: 10px; font-family: 'DejaVu Sans'; fill: #002060">β</tspan>
     </text>
    </g>
   </g>
   <g id="text_7">
    <!-- $\beta_1$ -->
    <g style="fill: #414f69" transform="translate(540.974091 196.920332)">
     <text>
      <tspan x="0" y="-0.8125" style="font-style: oblique; font-size: 12px; font-family: 'DejaVu Sans'; fill: #414f69">β</tspan>
      <tspan x="7.658203" y="1.15625" style="font-size: 8.4px; font-family: 'DejaVu Sans'; fill: #414f69">1</tspan>
     </text>
    </g>
   </g>
   <g id="text_8">
    <!-- $\beta_2$ -->
    <g style="fill: #414f69" transform="translate(345.547273 25.994787)">
     <text>
      <tspan x="0" y="-0.8125" style="font-style: oblique; font-size: 12px; font-family: 'DejaVu Sans'; fill: #414f69">β</tspan>
      <tspan x="7.658203" y="1.15625" style="font-size: 8.4px; font-family: 'DejaVu Sans'; fill: #414f69">2</tspan>
     </text>
    </g>
   </g>
   <g id="text_9">
    <text style="font-weight: 700; font-size: 10px; font-family: 'DejaVu Sans'; fill: #dc4c4c" transform="translate(298.383091 156.521798)">soluzione:</text>
    <text style="font-weight: 700; font-size: 10px; font-family: 'DejaVu Sans'; fill: #dc4c4c" transform="translate(298.383091 167.719611)">entrambi piccoli,</text>
    <text style="font-weight: 700; font-size: 10px; font-family: 'DejaVu Sans'; fill: #dc4c4c" transform="translate(298.383091 178.917423)">nessuno a zero</text>
   </g>
   <g id="text_10">
    <text style="font-weight: 700; font-size: 13px; font-family: 'DejaVu Sans'; text-anchor: middle; fill: #002060" x="427.218182" y="17.077969" transform="rotate(-0 427.218182 17.077969)">Ridge  (vincolo L2)</text>
   </g>
   <g id="PathCollection_3">
    <g clip-path="url(#p3dc880a1e3)">
     <use xlink:href="#md3105d93c4" x="468.053636" y="98.915241" style="fill: #002060; stroke: #002060"/>
    </g>
   </g>
   <g id="PathCollection_4">
    <g clip-path="url(#p3dc880a1e3)">
     <use xlink:href="#m4746b0f1da" x="393.383091" y="140.917423" style="fill: #dc4c4c; stroke: #dc4c4c"/>
    </g>
   </g>
  </g>
 </g>
 <defs>
  <clipPath id="p73c7b141f5">
   <rect x="30.530909" y="23.077969" width="233.345455" height="210.010909"/>
  </clipPath>
  <clipPath id="p3dc880a1e3">
   <rect x="310.545455" y="23.077969" width="233.345455" height="210.010909"/>
  </clipPath>
 </defs>
</svg>
