<?xml version="1.0" encoding="utf-8" standalone="no"?>
<!DOCTYPE svg PUBLIC "-//W3C//DTD SVG 1.1//EN"
  "http://www.w3.org/Graphics/SVG/1.1/DTD/svg11.dtd">
<svg xmlns:xlink="http://www.w3.org/1999/xlink" width="499.104875pt" height="317.449375pt" viewBox="0 0 499.104875 317.449375" xmlns="http://www.w3.org/2000/svg" version="1.1">
 <metadata>
  <rdf:RDF xmlns:dc="http://purl.org/dc/elements/1.1/" xmlns:cc="http://creativecommons.org/ns#" xmlns:rdf="http://www.w3.org/1999/02/22-rdf-syntax-ns#">
   <cc:Work>
    <dc:type rdf:resource="http://purl.org/dc/dcmitype/StillImage"/>
    <dc:date>2026-06-25T17:52:06.565646</dc:date>
    <dc:format>image/svg+xml</dc:format>
    <dc:creator>
     <cc:Agent>
      <dc:title>Matplotlib v3.10.0, https://matplotlib.org/</dc:title>
     </cc:Agent>
    </dc:creator>
   </cc:Work>
  </rdf:RDF>
 </metadata>
 <defs>
  <style type="text/css">*{stroke-linejoin: round; stroke-linecap: butt}</style>
 </defs>
 <g id="figure_1">
  <g id="patch_1">
   <path d="M 0 317.449375 
L 499.104875 317.449375 
L 499.104875 0 
L 0 0 
L 0 317.449375 
z
" style="fill: none"/>
  </g>
  <g id="axes_1">
   <g id="patch_2">
    <path d="M 67.824875 273.312 
L 491.904875 273.312 
L 491.904875 7.2 
L 67.824875 7.2 
L 67.824875 273.312 
z
" style="fill: none"/>
   </g>
   <g id="matplotlib.axis_1">
    <g id="xtick_1">
     <g id="line2d_1">
      <defs>
       <path id="m71ca022a11" d="M 0 0 
L 0 3.5 
" style="stroke: #414f69; stroke-width: 0.8"/>
      </defs>
      <g>
       <use xlink:href="#m71ca022a11" x="119.228511" y="273.312" style="fill: #414f69; stroke: #414f69; stroke-width: 0.8"/>
      </g>
     </g>
     <g id="text_1">
      <text style="font-size: 12.5px; font-family: 'DejaVu Sans'; text-anchor: middle; fill: #414f69" x="119.228511" y="289.810047" transform="rotate(-0 119.228511 289.810047)">2</text>
     </g>
    </g>
    <g id="xtick_2">
     <g id="line2d_2">
      <g>
       <use xlink:href="#m71ca022a11" x="183.483057" y="273.312" style="fill: #414f69; stroke: #414f69; stroke-width: 0.8"/>
      </g>
     </g>
     <g id="text_2">
      <text style="font-size: 12.5px; font-family: 'DejaVu Sans'; text-anchor: middle; fill: #414f69" x="183.483057" y="289.810047" transform="rotate(-0 183.483057 289.810047)">4</text>
     </g>
    </g>
    <g id="xtick_3">
     <g id="line2d_3">
      <g>
       <use xlink:href="#m71ca022a11" x="247.737602" y="273.312" style="fill: #414f69; stroke: #414f69; stroke-width: 0.8"/>
      </g>
     </g>
     <g id="text_3">
      <text style="font-size: 12.5px; font-family: 'DejaVu Sans'; text-anchor: middle; fill: #414f69" x="247.737602" y="289.810047" transform="rotate(-0 247.737602 289.810047)">6</text>
     </g>
    </g>
    <g id="xtick_4">
     <g id="line2d_4">
      <g>
       <use xlink:href="#m71ca022a11" x="311.992148" y="273.312" style="fill: #414f69; stroke: #414f69; stroke-width: 0.8"/>
      </g>
     </g>
     <g id="text_4">
      <text style="font-size: 12.5px; font-family: 'DejaVu Sans'; text-anchor: middle; fill: #414f69" x="311.992148" y="289.810047" transform="rotate(-0 311.992148 289.810047)">8</text>
     </g>
    </g>
    <g id="xtick_5">
     <g id="line2d_5">
      <g>
       <use xlink:href="#m71ca022a11" x="376.246693" y="273.312" style="fill: #414f69; stroke: #414f69; stroke-width: 0.8"/>
      </g>
     </g>
     <g id="text_5">
      <text style="font-size: 12.5px; font-family: 'DejaVu Sans'; text-anchor: middle; fill: #414f69" x="376.246693" y="289.810047" transform="rotate(-0 376.246693 289.810047)">10</text>
     </g>
    </g>
    <g id="xtick_6">
     <g id="line2d_6">
      <g>
       <use xlink:href="#m71ca022a11" x="440.501239" y="273.312" style="fill: #414f69; stroke: #414f69; stroke-width: 0.8"/>
      </g>
     </g>
     <g id="text_6">
      <text style="font-size: 12.5px; font-family: 'DejaVu Sans'; text-anchor: middle; fill: #414f69" x="440.501239" y="289.810047" transform="rotate(-0 440.501239 289.810047)">12</text>
     </g>
    </g>
    <g id="text_7">
     <text style="font-size: 14.3px; font-family: 'DejaVu Sans'; text-anchor: middle; fill: #414f69" x="279.864875" y="307.275422" transform="rotate(-0 279.864875 307.275422)">Flessibilità del modello</text>
    </g>
   </g>
   <g id="matplotlib.axis_2">
    <g id="ytick_1">
     <g id="line2d_7">
      <defs>
       <path id="md4f85da8dd" d="M 0 0 
L -3.5 0 
" style="stroke: #414f69; stroke-width: 0.8"/>
      </defs>
      <g>
       <use xlink:href="#md4f85da8dd" x="67.824875" y="273.312" style="fill: #414f69; stroke: #414f69; stroke-width: 0.8"/>
      </g>
     </g>
     <g id="text_8">
      <text style="font-size: 12.5px; font-family: 'DejaVu Sans'; text-anchor: end; fill: #414f69" x="60.824875" y="278.061023" transform="rotate(-0 60.824875 278.061023)">0.000</text>
     </g>
    </g>
    <g id="ytick_2">
     <g id="line2d_8">
      <g>
       <use xlink:href="#md4f85da8dd" x="67.824875" y="243.270777" style="fill: #414f69; stroke: #414f69; stroke-width: 0.8"/>
      </g>
     </g>
     <g id="text_9">
      <text style="font-size: 12.5px; font-family: 'DejaVu Sans'; text-anchor: end; fill: #414f69" x="60.824875" y="248.0198" transform="rotate(-0 60.824875 248.0198)">0.005</text>
     </g>
    </g>
    <g id="ytick_3">
     <g id="line2d_9">
      <g>
       <use xlink:href="#md4f85da8dd" x="67.824875" y="213.229554" style="fill: #414f69; stroke: #414f69; stroke-width: 0.8"/>
      </g>
     </g>
     <g id="text_10">
      <text style="font-size: 12.5px; font-family: 'DejaVu Sans'; text-anchor: end; fill: #414f69" x="60.824875" y="217.978577" transform="rotate(-0 60.824875 217.978577)">0.010</text>
     </g>
    </g>
    <g id="ytick_4">
     <g id="line2d_10">
      <g>
       <use xlink:href="#md4f85da8dd" x="67.824875" y="183.188331" style="fill: #414f69; stroke: #414f69; stroke-width: 0.8"/>
      </g>
     </g>
     <g id="text_11">
      <text style="font-size: 12.5px; font-family: 'DejaVu Sans'; text-anchor: end; fill: #414f69" x="60.824875" y="187.937354" transform="rotate(-0 60.824875 187.937354)">0.015</text>
     </g>
    </g>
    <g id="ytick_5">
     <g id="line2d_11">
      <g>
       <use xlink:href="#md4f85da8dd" x="67.824875" y="153.147108" style="fill: #414f69; stroke: #414f69; stroke-width: 0.8"/>
      </g>
     </g>
     <g id="text_12">
      <text style="font-size: 12.5px; font-family: 'DejaVu Sans'; text-anchor: end; fill: #414f69" x="60.824875" y="157.896131" transform="rotate(-0 60.824875 157.896131)">0.020</text>
     </g>
    </g>
    <g id="ytick_6">
     <g id="line2d_12">
      <g>
       <use xlink:href="#md4f85da8dd" x="67.824875" y="123.105885" style="fill: #414f69; stroke: #414f69; stroke-width: 0.8"/>
      </g>
     </g>
     <g id="text_13">
      <text style="font-size: 12.5px; font-family: 'DejaVu Sans'; text-anchor: end; fill: #414f69" x="60.824875" y="127.854908" transform="rotate(-0 60.824875 127.854908)">0.025</text>
     </g>
    </g>
    <g id="ytick_7">
     <g id="line2d_13">
      <g>
       <use xlink:href="#md4f85da8dd" x="67.824875" y="93.064662" style="fill: #414f69; stroke: #414f69; stroke-width: 0.8"/>
      </g>
     </g>
     <g id="text_14">
      <text style="font-size: 12.5px; font-family: 'DejaVu Sans'; text-anchor: end; fill: #414f69" x="60.824875" y="97.813685" transform="rotate(-0 60.824875 97.813685)">0.030</text>
     </g>
    </g>
    <g id="ytick_8">
     <g id="line2d_14">
      <g>
       <use xlink:href="#md4f85da8dd" x="67.824875" y="63.023439" style="fill: #414f69; stroke: #414f69; stroke-width: 0.8"/>
      </g>
     </g>
     <g id="text_15">
      <text style="font-size: 12.5px; font-family: 'DejaVu Sans'; text-anchor: end; fill: #414f69" x="60.824875" y="67.772462" transform="rotate(-0 60.824875 67.772462)">0.035</text>
     </g>
    </g>
    <g id="ytick_9">
     <g id="line2d_15">
      <g>
       <use xlink:href="#md4f85da8dd" x="67.824875" y="32.982216" style="fill: #414f69; stroke: #414f69; stroke-width: 0.8"/>
      </g>
     </g>
     <g id="text_16">
      <text style="font-size: 12.5px; font-family: 'DejaVu Sans'; text-anchor: end; fill: #414f69" x="60.824875" y="37.731239" transform="rotate(-0 60.824875 37.731239)">0.040</text>
     </g>
    </g>
    <g id="text_17">
     <text style="font-size: 14.3px; font-family: 'DejaVu Sans'; text-anchor: middle; fill: #414f69" x="18.065766" y="140.256" transform="rotate(-90 18.065766 140.256)">Contributo all'errore</text>
    </g>
   </g>
   <g id="line2d_16">
    <path d="M 87.101239 79.638851 
L 119.228511 105.504245 
L 151.355784 264.076852 
L 183.483057 266.166299 
L 215.61033 273.027699 
L 247.737602 273.25749 
L 279.864875 273.304815 
L 311.992148 273.272466 
L 344.11942 273.300315 
L 376.246693 273.289809 
L 408.373966 273.258187 
L 440.501239 273.290766 
L 472.628511 273.29767 
" clip-path="url(#p870a5eb356)" style="fill: none; stroke: #002060; stroke-width: 2.4; stroke-linecap: square"/>
    <defs>
     <path id="m4015d30651" d="M 0 2.5 
C 0.663008 2.5 1.29895 2.236584 1.767767 1.767767 
C 2.236584 1.29895 2.5 0.663008 2.5 0 
C 2.5 -0.663008 2.236584 -1.29895 1.767767 -1.767767 
C 1.29895 -2.236584 0.663008 -2.5 0 -2.5 
C -0.663008 -2.5 -1.29895 -2.236584 -1.767767 -1.767767 
C -2.236584 -1.29895 -2.5 -0.663008 -2.5 0 
C -2.5 0.663008 -2.236584 1.29895 -1.767767 1.767767 
C -1.29895 2.236584 -0.663008 2.5 0 2.5 
z
" style="stroke: #002060"/>
    </defs>
    <g clip-path="url(#p870a5eb356)">
     <use xlink:href="#m4015d30651" x="87.101239" y="79.638851" style="fill: #002060; stroke: #002060"/>
     <use xlink:href="#m4015d30651" x="119.228511" y="105.504245" style="fill: #002060; stroke: #002060"/>
     <use xlink:href="#m4015d30651" x="151.355784" y="264.076852" style="fill: #002060; stroke: #002060"/>
     <use xlink:href="#m4015d30651" x="183.483057" y="266.166299" style="fill: #002060; stroke: #002060"/>
     <use xlink:href="#m4015d30651" x="215.61033" y="273.027699" style="fill: #002060; stroke: #002060"/>
     <use xlink:href="#m4015d30651" x="247.737602" y="273.25749" style="fill: #002060; stroke: #002060"/>
     <use xlink:href="#m4015d30651" x="279.864875" y="273.304815" style="fill: #002060; stroke: #002060"/>
     <use xlink:href="#m4015d30651" x="311.992148" y="273.272466" style="fill: #002060; stroke: #002060"/>
     <use xlink:href="#m4015d30651" x="344.11942" y="273.300315" style="fill: #002060; stroke: #002060"/>
     <use xlink:href="#m4015d30651" x="376.246693" y="273.289809" style="fill: #002060; stroke: #002060"/>
     <use xlink:href="#m4015d30651" x="408.373966" y="273.258187" style="fill: #002060; stroke: #002060"/>
     <use xlink:href="#m4015d30651" x="440.501239" y="273.290766" style="fill: #002060; stroke: #002060"/>
     <use xlink:href="#m4015d30651" x="472.628511" y="273.29767" style="fill: #002060; stroke: #002060"/>
    </g>
   </g>
   <g id="line2d_17">
    <path d="M 87.101239 263.04236 
L 119.228511 259.268457 
L 151.355784 269.611199 
L 183.483057 268.536944 
L 215.61033 268.670452 
L 247.737602 268.040055 
L 279.864875 267.383738 
L 311.992148 264.49687 
L 344.11942 264.254213 
L 376.246693 262.617796 
L 408.373966 257.669225 
L 440.501239 254.581796 
L 472.628511 228.941611 
" clip-path="url(#p870a5eb356)" style="fill: none; stroke: #00adcf; stroke-width: 2.4; stroke-linecap: square"/>
    <defs>
     <path id="m1d13222e29" d="M 0 2.5 
C 0.663008 2.5 1.29895 2.236584 1.767767 1.767767 
C 2.236584 1.29895 2.5 0.663008 2.5 0 
C 2.5 -0.663008 2.236584 -1.29895 1.767767 -1.767767 
C 1.29895 -2.236584 0.663008 -2.5 0 -2.5 
C -0.663008 -2.5 -1.29895 -2.236584 -1.767767 -1.767767 
C -2.236584 -1.29895 -2.5 -0.663008 -2.5 0 
C -2.5 0.663008 -2.236584 1.29895 -1.767767 1.767767 
C -1.29895 2.236584 -0.663008 2.5 0 2.5 
z
" style="stroke: #00adcf"/>
    </defs>
    <g clip-path="url(#p870a5eb356)">
     <use xlink:href="#m1d13222e29" x="87.101239" y="263.04236" style="fill: #00adcf; stroke: #00adcf"/>
     <use xlink:href="#m1d13222e29" x="119.228511" y="259.268457" style="fill: #00adcf; stroke: #00adcf"/>
     <use xlink:href="#m1d13222e29" x="151.355784" y="269.611199" style="fill: #00adcf; stroke: #00adcf"/>
     <use xlink:href="#m1d13222e29" x="183.483057" y="268.536944" style="fill: #00adcf; stroke: #00adcf"/>
     <use xlink:href="#m1d13222e29" x="215.61033" y="268.670452" style="fill: #00adcf; stroke: #00adcf"/>
     <use xlink:href="#m1d13222e29" x="247.737602" y="268.040055" style="fill: #00adcf; stroke: #00adcf"/>
     <use xlink:href="#m1d13222e29" x="279.864875" y="267.383738" style="fill: #00adcf; stroke: #00adcf"/>
     <use xlink:href="#m1d13222e29" x="311.992148" y="264.49687" style="fill: #00adcf; stroke: #00adcf"/>
     <use xlink:href="#m1d13222e29" x="344.11942" y="264.254213" style="fill: #00adcf; stroke: #00adcf"/>
     <use xlink:href="#m1d13222e29" x="376.246693" y="262.617796" style="fill: #00adcf; stroke: #00adcf"/>
     <use xlink:href="#m1d13222e29" x="408.373966" y="257.669225" style="fill: #00adcf; stroke: #00adcf"/>
     <use xlink:href="#m1d13222e29" x="440.501239" y="254.581796" style="fill: #00adcf; stroke: #00adcf"/>
     <use xlink:href="#m1d13222e29" x="472.628511" y="228.941611" style="fill: #00adcf; stroke: #00adcf"/>
    </g>
   </g>
   <g id="line2d_18">
    <path d="M 87.101239 224.645219 
L 119.228511 224.645219 
L 151.355784 224.645219 
L 183.483057 224.645219 
L 215.61033 224.645219 
L 247.737602 224.645219 
L 279.864875 224.645219 
L 311.992148 224.645219 
L 344.11942 224.645219 
L 376.246693 224.645219 
L 408.373966 224.645219 
L 440.501239 224.645219 
L 472.628511 224.645219 
" clip-path="url(#p870a5eb356)" style="fill: none; stroke-dasharray: 6.66,2.88; stroke-dashoffset: 0; stroke: #545454; stroke-width: 1.8"/>
   </g>
   <g id="line2d_19">
    <path d="M 87.101239 20.70243 
L 119.228511 42.793921 
L 151.355784 211.70927 
L 183.483057 212.724461 
L 215.61033 219.719369 
L 247.737602 219.318763 
L 279.864875 218.709771 
L 311.992148 215.790555 
L 344.11942 215.575747 
L 376.246693 213.928824 
L 408.373966 208.948631 
L 440.501239 205.893781 
L 472.628511 180.2605 
" clip-path="url(#p870a5eb356)" style="fill: none; stroke: #dc4c4c; stroke-width: 2.8; stroke-linecap: square"/>
    <defs>
     <path id="mf0b00baff0" d="M 0 2.5 
C 0.663008 2.5 1.29895 2.236584 1.767767 1.767767 
C 2.236584 1.29895 2.5 0.663008 2.5 0 
C 2.5 -0.663008 2.236584 -1.29895 1.767767 -1.767767 
C 1.29895 -2.236584 0.663008 -2.5 0 -2.5 
C -0.663008 -2.5 -1.29895 -2.236584 -1.767767 -1.767767 
C -2.236584 -1.29895 -2.5 -0.663008 -2.5 0 
C -2.5 0.663008 -2.236584 1.29895 -1.767767 1.767767 
C -1.29895 2.236584 -0.663008 2.5 0 2.5 
z
" style="stroke: #dc4c4c"/>
    </defs>
    <g clip-path="url(#p870a5eb356)">
     <use xlink:href="#mf0b00baff0" x="87.101239" y="20.70243" style="fill: #dc4c4c; stroke: #dc4c4c"/>
     <use xlink:href="#mf0b00baff0" x="119.228511" y="42.793921" style="fill: #dc4c4c; stroke: #dc4c4c"/>
     <use xlink:href="#mf0b00baff0" x="151.355784" y="211.70927" style="fill: #dc4c4c; stroke: #dc4c4c"/>
     <use xlink:href="#mf0b00baff0" x="183.483057" y="212.724461" style="fill: #dc4c4c; stroke: #dc4c4c"/>
     <use xlink:href="#mf0b00baff0" x="215.61033" y="219.719369" style="fill: #dc4c4c; stroke: #dc4c4c"/>
     <use xlink:href="#mf0b00baff0" x="247.737602" y="219.318763" style="fill: #dc4c4c; stroke: #dc4c4c"/>
     <use xlink:href="#mf0b00baff0" x="279.864875" y="218.709771" style="fill: #dc4c4c; stroke: #dc4c4c"/>
     <use xlink:href="#mf0b00baff0" x="311.992148" y="215.790555" style="fill: #dc4c4c; stroke: #dc4c4c"/>
     <use xlink:href="#mf0b00baff0" x="344.11942" y="215.575747" style="fill: #dc4c4c; stroke: #dc4c4c"/>
     <use xlink:href="#mf0b00baff0" x="376.246693" y="213.928824" style="fill: #dc4c4c; stroke: #dc4c4c"/>
     <use xlink:href="#mf0b00baff0" x="408.373966" y="208.948631" style="fill: #dc4c4c; stroke: #dc4c4c"/>
     <use xlink:href="#mf0b00baff0" x="440.501239" y="205.893781" style="fill: #dc4c4c; stroke: #dc4c4c"/>
     <use xlink:href="#mf0b00baff0" x="472.628511" y="180.2605" style="fill: #dc4c4c; stroke: #dc4c4c"/>
    </g>
   </g>
   <g id="patch_3">
    <path d="M 67.824875 273.312 
L 67.824875 7.2 
" style="fill: none; stroke: #414f69; stroke-width: 0.8; stroke-linejoin: miter; stroke-linecap: square"/>
   </g>
   <g id="patch_4">
    <path d="M 67.824875 273.312 
L 491.904875 273.312 
" style="fill: none; stroke: #414f69; stroke-width: 0.8; stroke-linejoin: miter; stroke-linecap: square"/>
   </g>
   <g id="legend_1">
    <g id="patch_5">
     <path d="M 314.86925 94.994687 
L 482.804875 94.994687 
Q 485.404875 94.994687 485.404875 92.394687 
L 485.404875 16.3 
Q 485.404875 13.7 482.804875 13.7 
L 314.86925 13.7 
Q 312.26925 13.7 312.26925 16.3 
L 312.26925 92.394687 
Q 312.26925 94.994687 314.86925 94.994687 
z
" style="fill: #ffffff; opacity: 0.96; stroke: #c9d2dd; stroke-linejoin: miter"/>
    </g>
    <g id="line2d_20">
     <path d="M 317.46925 25.296406 
L 330.46925 25.296406 
L 343.46925 25.296406 
" style="fill: none; stroke: #002060; stroke-width: 2.4; stroke-linecap: square"/>
     <g>
      <use xlink:href="#m4015d30651" x="330.46925" y="25.296406" style="fill: #002060; stroke: #002060"/>
     </g>
    </g>
    <g id="text_18">
     <!-- Distorsione$^2$ (bias) -->
     <g style="fill: #414f69" transform="translate(353.86925 29.846406)">
      <text>
       <tspan x="0" y="-0.264063" style="font-size: 13px; font-family: 'DejaVu Sans'; fill: #414f69">D</tspan>
       <tspan x="10.010254" y="-0.264063" style="font-size: 13px; font-family: 'DejaVu Sans'; fill: #414f69">i</tspan>
       <tspan x="13.62207" y="-0.264063" style="font-size: 13px; font-family: 'DejaVu Sans'; fill: #414f69">s</tspan>
       <tspan x="20.39502" y="-0.264063" style="font-size: 13px; font-family: 'DejaVu Sans'; fill: #414f69">t</tspan>
       <tspan x="25.492188" y="-0.264063" style="font-size: 13px; font-family: 'DejaVu Sans'; fill: #414f69">o</tspan>
       <tspan x="33.445801" y="-0.264063" style="font-size: 13px; font-family: 'DejaVu Sans'; fill: #414f69">r</tspan>
       <tspan x="38.790527" y="-0.264063" style="font-size: 13px; font-family: 'DejaVu Sans'; fill: #414f69">s</tspan>
       <tspan x="45.563477" y="-0.264063" style="font-size: 13px; font-family: 'DejaVu Sans'; fill: #414f69">i</tspan>
       <tspan x="49.175293" y="-0.264063" style="font-size: 13px; font-family: 'DejaVu Sans'; fill: #414f69">o</tspan>
       <tspan x="57.128906" y="-0.264063" style="font-size: 13px; font-family: 'DejaVu Sans'; fill: #414f69">n</tspan>
       <tspan x="65.368164" y="-0.264063" style="font-size: 13px; font-family: 'DejaVu Sans'; fill: #414f69">e</tspan>
       <tspan x="79.635791" y="-0.264063" style="font-size: 13px; font-family: 'DejaVu Sans'; fill: #414f69"> </tspan>
       <tspan x="83.768115" y="-0.264063" style="font-size: 13px; font-family: 'DejaVu Sans'; fill: #414f69">(</tspan>
       <tspan x="88.839893" y="-0.264063" style="font-size: 13px; font-family: 'DejaVu Sans'; fill: #414f69">b</tspan>
       <tspan x="97.091846" y="-0.264063" style="font-size: 13px; font-family: 'DejaVu Sans'; fill: #414f69">i</tspan>
       <tspan x="100.703662" y="-0.264063" style="font-size: 13px; font-family: 'DejaVu Sans'; fill: #414f69">a</tspan>
       <tspan x="108.669971" y="-0.264063" style="font-size: 13px; font-family: 'DejaVu Sans'; fill: #414f69">s</tspan>
       <tspan x="115.44292" y="-0.264063" style="font-size: 13px; font-family: 'DejaVu Sans'; fill: #414f69">)</tspan>
       <tspan x="73.490625" y="-5.240625" style="font-size: 9.1px; font-family: 'DejaVu Sans'; fill: #414f69">2</tspan>
      </text>
     </g>
    </g>
    <g id="line2d_21">
     <path d="M 317.46925 44.377969 
L 330.46925 44.377969 
L 343.46925 44.377969 
" style="fill: none; stroke: #00adcf; stroke-width: 2.4; stroke-linecap: square"/>
     <g>
      <use xlink:href="#m1d13222e29" x="330.46925" y="44.377969" style="fill: #00adcf; stroke: #00adcf"/>
     </g>
    </g>
    <g id="text_19">
     <text style="font-size: 13px; font-family: 'DejaVu Sans'; text-anchor: start; fill: #414f69" x="353.86925" y="48.927969" transform="rotate(-0 353.86925 48.927969)">Varianza</text>
    </g>
    <g id="line2d_22">
     <path d="M 317.46925 63.459531 
L 330.46925 63.459531 
L 343.46925 63.459531 
" style="fill: none; stroke-dasharray: 6.66,2.88; stroke-dashoffset: 0; stroke: #545454; stroke-width: 1.8"/>
    </g>
    <g id="text_20">
     <text style="font-size: 13px; font-family: 'DejaVu Sans'; text-anchor: start; fill: #414f69" x="353.86925" y="68.009531" transform="rotate(-0 353.86925 68.009531)">Errore irriducibile</text>
    </g>
    <g id="line2d_23">
     <path d="M 317.46925 82.541094 
L 330.46925 82.541094 
L 343.46925 82.541094 
" style="fill: none; stroke: #dc4c4c; stroke-width: 2.8; stroke-linecap: square"/>
     <g>
      <use xlink:href="#mf0b00baff0" x="330.46925" y="82.541094" style="fill: #dc4c4c; stroke: #dc4c4c"/>
     </g>
    </g>
    <g id="text_21">
     <text style="font-size: 13px; font-family: 'DejaVu Sans'; text-anchor: start; fill: #414f69" x="353.86925" y="87.091094" transform="rotate(-0 353.86925 87.091094)">Errore di test totale</text>
    </g>
   </g>
  </g>
 </g>
 <defs>
  <clipPath id="p870a5eb356">
   <rect x="67.824875" y="7.2" width="424.08" height="266.112"/>
  </clipPath>
 </defs>
</svg>
