<?xml version="1.0" encoding="utf-8" standalone="no"?>
<!DOCTYPE svg PUBLIC "-//W3C//DTD SVG 1.1//EN"
  "http://www.w3.org/Graphics/SVG/1.1/DTD/svg11.dtd">
<svg xmlns:xlink="http://www.w3.org/1999/xlink" width="442.93375pt" height="318.30175pt" viewBox="0 0 442.93375 318.30175" xmlns="http://www.w3.org/2000/svg" version="1.1">
 <metadata>
  <rdf:RDF xmlns:dc="http://purl.org/dc/elements/1.1/" xmlns:cc="http://creativecommons.org/ns#" xmlns:rdf="http://www.w3.org/1999/02/22-rdf-syntax-ns#">
   <cc:Work>
    <dc:type rdf:resource="http://purl.org/dc/dcmitype/StillImage"/>
    <dc:date>2026-06-24T17:46:52.748811</dc:date>
    <dc:format>image/svg+xml</dc:format>
    <dc:creator>
     <cc:Agent>
      <dc:title>Matplotlib v3.10.0, https://matplotlib.org/</dc:title>
     </cc:Agent>
    </dc:creator>
   </cc:Work>
  </rdf:RDF>
 </metadata>
 <defs>
  <style type="text/css">*{stroke-linejoin: round; stroke-linecap: butt}</style>
 </defs>
 <g id="figure_1">
  <g id="patch_1">
   <path d="M 0 318.30175 
L 442.93375 318.30175 
L 442.93375 0 
L 0 0 
L 0 318.30175 
z
" style="fill: none"/>
  </g>
  <g id="axes_1">
   <g id="patch_2">
    <path d="M 22.81375 295.488 
L 435.73375 295.488 
L 435.73375 7.2 
L 22.81375 7.2 
L 22.81375 295.488 
z
" style="fill: none"/>
   </g>
   <g id="matplotlib.axis_1">
    <g id="text_1">
     <text style="font-size: 12px; font-family: 'DejaVu Sans'; text-anchor: middle; fill: #414f69" x="229.27375" y="308.606125" transform="rotate(-0 229.27375 308.606125)">X  (predittore)</text>
    </g>
   </g>
   <g id="matplotlib.axis_2">
    <g id="text_2">
     <text style="font-size: 12px; font-family: 'DejaVu Sans'; text-anchor: middle; fill: #414f69" x="16.318125" y="151.344" transform="rotate(-90 16.318125 151.344)">Y  (risposta)</text>
    </g>
   </g>
   <g id="line2d_1">
    <path d="M 41.582841 273.584157 
L 54.137417 250.629431 
L 60.414705 239.570398 
L 65.436535 231.070639 
L 70.458365 222.963383 
L 75.480196 215.320626 
L 79.246568 209.933418 
L 83.012941 204.870299 
L 86.779314 200.154435 
L 90.545687 195.806527 
L 94.31206 191.844664 
L 98.078432 188.284194 
L 101.844805 185.137617 
L 104.35572 183.274683 
L 106.866635 181.602105 
L 109.377551 180.121374 
L 111.888466 178.833377 
L 114.399381 177.738393 
L 116.910296 176.836089 
L 119.421211 176.125527 
L 121.932126 175.605162 
L 124.443042 175.27285 
L 126.953957 175.125852 
L 129.464872 175.160845 
L 131.975787 175.373931 
L 134.486702 175.760652 
L 136.997617 176.315999 
L 139.508533 177.034432 
L 143.274905 178.404488 
L 147.041278 180.105247 
L 150.807651 182.111856 
L 154.574024 184.397294 
L 158.340396 186.932559 
L 163.362227 190.648112 
L 168.384057 194.675768 
L 174.661345 200.025417 
L 197.259582 219.700939 
L 202.281412 223.632259 
L 206.047785 226.36276 
L 209.814157 228.870549 
L 213.58053 231.125048 
L 217.346903 233.097473 
L 221.113276 234.761044 
L 224.879648 236.091176 
L 227.390564 236.781611 
L 229.901479 237.307957 
L 232.412394 237.664764 
L 234.923309 237.847121 
L 237.434224 237.850665 
L 239.945139 237.671596 
L 242.456055 237.306694 
L 244.96697 236.753323 
L 247.477885 236.009442 
L 249.9888 235.073612 
L 252.499715 233.944999 
L 255.010631 232.623379 
L 257.521546 231.109136 
L 260.032461 229.403262 
L 262.543376 227.507353 
L 266.309749 224.312144 
L 270.076122 220.704346 
L 273.842494 216.696793 
L 277.608867 212.305158 
L 281.37524 207.547841 
L 285.141613 202.445836 
L 288.907985 197.022586 
L 293.929816 189.336637 
L 298.951646 181.19224 
L 303.973476 172.661863 
L 310.250764 161.574307 
L 319.038967 145.546648 
L 335.359916 115.666481 
L 341.637204 104.636743 
L 346.659034 96.168188 
L 351.680865 88.098619 
L 356.702695 80.499558 
L 360.469068 75.148736 
L 364.23544 70.124815 
L 368.001813 65.450684 
L 371.768186 61.146747 
L 375.534559 57.230781 
L 379.300932 53.717809 
L 383.067304 50.619992 
L 385.578219 48.790096 
L 388.089135 47.150859 
L 390.60005 45.703668 
L 393.110965 44.449303 
L 395.62188 43.387936 
L 398.132795 42.51913 
L 400.64371 41.84184 
L 403.154626 41.354417 
L 405.665541 41.054611 
L 408.176456 40.939583 
L 410.687371 41.005907 
L 413.198286 41.249588 
L 415.709202 41.666069 
L 416.964659 41.937536 
L 416.964659 41.937536 
" clip-path="url(#p74c44cf1c1)" style="fill: none; stroke: #002060; stroke-width: 3; stroke-linecap: square"/>
   </g>
   <g id="line2d_2">
    <path d="M 92.310114 193.901455 
L 92.310114 218.158655 
" clip-path="url(#p74c44cf1c1)" style="fill: none; stroke-dasharray: 1.3,2.145; stroke-dashoffset: 0; stroke: #dc4c4c; stroke-width: 1.3"/>
   </g>
   <g id="line2d_3">
    <path d="M 173.47375 198.993193 
L 173.47375 221.753872 
" clip-path="url(#p74c44cf1c1)" style="fill: none; stroke-dasharray: 1.3,2.145; stroke-dashoffset: 0; stroke: #dc4c4c; stroke-width: 1.3"/>
   </g>
   <g id="line2d_4">
    <path d="M 254.637386 232.832041 
L 254.637386 238.582731 
" clip-path="url(#p74c44cf1c1)" style="fill: none; stroke-dasharray: 1.3,2.145; stroke-dashoffset: 0; stroke: #dc4c4c; stroke-width: 1.3"/>
   </g>
   <g id="line2d_5">
    <path d="M 335.801023 114.878249 
L 335.801023 112.106537 
" clip-path="url(#p74c44cf1c1)" style="fill: none; stroke-dasharray: 1.3,2.145; stroke-dashoffset: 0; stroke: #dc4c4c; stroke-width: 1.3"/>
   </g>
   <g id="line2d_6">
    <path d="M 416.964659 41.937536 
L 416.964659 20.304 
" clip-path="url(#p74c44cf1c1)" style="fill: none; stroke-dasharray: 1.3,2.145; stroke-dashoffset: 0; stroke: #dc4c4c; stroke-width: 1.3"/>
   </g>
   <g id="patch_3">
    <path d="M 22.81375 295.488 
L 22.81375 7.2 
" style="fill: none; stroke: #414f69; stroke-width: 0.8; stroke-linejoin: miter; stroke-linecap: square"/>
   </g>
   <g id="patch_4">
    <path d="M 22.81375 295.488 
L 435.73375 295.488 
" style="fill: none; stroke: #414f69; stroke-width: 0.8; stroke-linejoin: miter; stroke-linecap: square"/>
   </g>
   <g id="PathCollection_1">
    <defs>
     <path id="me58c0b8b19" d="M 0 2.915476 
C 0.773193 2.915476 1.514823 2.608283 2.061553 2.061553 
C 2.608283 1.514823 2.915476 0.773193 2.915476 0 
C 2.915476 -0.773193 2.608283 -1.514823 2.061553 -2.061553 
C 1.514823 -2.608283 0.773193 -2.915476 0 -2.915476 
C -0.773193 -2.915476 -1.514823 -2.608283 -2.061553 -2.061553 
C -2.608283 -1.514823 -2.915476 -0.773193 -2.915476 0 
C -2.915476 0.773193 -2.608283 1.514823 -2.061553 2.061553 
C -1.514823 2.608283 -0.773193 2.915476 0 2.915476 
z
" style="stroke: #ffffff; stroke-width: 0.6"/>
    </defs>
    <g clip-path="url(#p74c44cf1c1)">
     <use xlink:href="#me58c0b8b19" x="41.582841" y="273.554065" style="fill: #00adcf; stroke: #ffffff; stroke-width: 0.6"/>
     <use xlink:href="#me58c0b8b19" x="51.728295" y="247.663529" style="fill: #00adcf; stroke: #ffffff; stroke-width: 0.6"/>
     <use xlink:href="#me58c0b8b19" x="61.87375" y="243.770689" style="fill: #00adcf; stroke: #ffffff; stroke-width: 0.6"/>
     <use xlink:href="#me58c0b8b19" x="72.019205" y="242.320209" style="fill: #00adcf; stroke: #ffffff; stroke-width: 0.6"/>
     <use xlink:href="#me58c0b8b19" x="82.164659" y="217.103078" style="fill: #00adcf; stroke: #ffffff; stroke-width: 0.6"/>
     <use xlink:href="#me58c0b8b19" x="92.310114" y="218.158655" style="fill: #00adcf; stroke: #ffffff; stroke-width: 0.6"/>
     <use xlink:href="#me58c0b8b19" x="102.455568" y="183.195848" style="fill: #00adcf; stroke: #ffffff; stroke-width: 0.6"/>
     <use xlink:href="#me58c0b8b19" x="112.601023" y="145.7193" style="fill: #00adcf; stroke: #ffffff; stroke-width: 0.6"/>
     <use xlink:href="#me58c0b8b19" x="122.746477" y="187.517029" style="fill: #00adcf; stroke: #ffffff; stroke-width: 0.6"/>
     <use xlink:href="#me58c0b8b19" x="132.891932" y="190.672936" style="fill: #00adcf; stroke: #ffffff; stroke-width: 0.6"/>
     <use xlink:href="#me58c0b8b19" x="143.037386" y="166.325781" style="fill: #00adcf; stroke: #ffffff; stroke-width: 0.6"/>
     <use xlink:href="#me58c0b8b19" x="153.182841" y="174.792439" style="fill: #00adcf; stroke: #ffffff; stroke-width: 0.6"/>
     <use xlink:href="#me58c0b8b19" x="163.328295" y="188.043276" style="fill: #00adcf; stroke: #ffffff; stroke-width: 0.6"/>
     <use xlink:href="#me58c0b8b19" x="173.47375" y="221.753872" style="fill: #00adcf; stroke: #ffffff; stroke-width: 0.6"/>
     <use xlink:href="#me58c0b8b19" x="183.619205" y="208.673524" style="fill: #00adcf; stroke: #ffffff; stroke-width: 0.6"/>
     <use xlink:href="#me58c0b8b19" x="193.764659" y="199.799157" style="fill: #00adcf; stroke: #ffffff; stroke-width: 0.6"/>
     <use xlink:href="#me58c0b8b19" x="203.910114" y="257.719873" style="fill: #00adcf; stroke: #ffffff; stroke-width: 0.6"/>
     <use xlink:href="#me58c0b8b19" x="214.055568" y="242.583926" style="fill: #00adcf; stroke: #ffffff; stroke-width: 0.6"/>
     <use xlink:href="#me58c0b8b19" x="224.201023" y="282.384" style="fill: #00adcf; stroke: #ffffff; stroke-width: 0.6"/>
     <use xlink:href="#me58c0b8b19" x="234.346477" y="269.364977" style="fill: #00adcf; stroke: #ffffff; stroke-width: 0.6"/>
     <use xlink:href="#me58c0b8b19" x="244.491932" y="281.924244" style="fill: #00adcf; stroke: #ffffff; stroke-width: 0.6"/>
     <use xlink:href="#me58c0b8b19" x="254.637386" y="238.582731" style="fill: #00adcf; stroke: #ffffff; stroke-width: 0.6"/>
     <use xlink:href="#me58c0b8b19" x="264.782841" y="256.661543" style="fill: #00adcf; stroke: #ffffff; stroke-width: 0.6"/>
     <use xlink:href="#me58c0b8b19" x="274.928295" y="208.833835" style="fill: #00adcf; stroke: #ffffff; stroke-width: 0.6"/>
     <use xlink:href="#me58c0b8b19" x="285.07375" y="198.706307" style="fill: #00adcf; stroke: #ffffff; stroke-width: 0.6"/>
     <use xlink:href="#me58c0b8b19" x="295.219205" y="191.859067" style="fill: #00adcf; stroke: #ffffff; stroke-width: 0.6"/>
     <use xlink:href="#me58c0b8b19" x="305.364659" y="231.804537" style="fill: #00adcf; stroke: #ffffff; stroke-width: 0.6"/>
     <use xlink:href="#me58c0b8b19" x="315.510114" y="165.20674" style="fill: #00adcf; stroke: #ffffff; stroke-width: 0.6"/>
     <use xlink:href="#me58c0b8b19" x="325.655568" y="134.524928" style="fill: #00adcf; stroke: #ffffff; stroke-width: 0.6"/>
     <use xlink:href="#me58c0b8b19" x="335.801023" y="112.106537" style="fill: #00adcf; stroke: #ffffff; stroke-width: 0.6"/>
     <use xlink:href="#me58c0b8b19" x="345.946477" y="134.776716" style="fill: #00adcf; stroke: #ffffff; stroke-width: 0.6"/>
     <use xlink:href="#me58c0b8b19" x="356.091932" y="93.082962" style="fill: #00adcf; stroke: #ffffff; stroke-width: 0.6"/>
     <use xlink:href="#me58c0b8b19" x="366.237386" y="91.531542" style="fill: #00adcf; stroke: #ffffff; stroke-width: 0.6"/>
     <use xlink:href="#me58c0b8b19" x="376.382841" y="76.189334" style="fill: #00adcf; stroke: #ffffff; stroke-width: 0.6"/>
     <use xlink:href="#me58c0b8b19" x="386.528295" y="22.196122" style="fill: #00adcf; stroke: #ffffff; stroke-width: 0.6"/>
     <use xlink:href="#me58c0b8b19" x="396.67375" y="62.754126" style="fill: #00adcf; stroke: #ffffff; stroke-width: 0.6"/>
     <use xlink:href="#me58c0b8b19" x="406.819205" y="41.774539" style="fill: #00adcf; stroke: #ffffff; stroke-width: 0.6"/>
     <use xlink:href="#me58c0b8b19" x="416.964659" y="20.304" style="fill: #00adcf; stroke: #ffffff; stroke-width: 0.6"/>
    </g>
   </g>
   <g id="text_3">
    <!-- $\varepsilon$ -->
    <g style="fill: #dc4c4c" transform="translate(100.310114 206.030055)">
     <text>
      <tspan x="0" y="-0.03125" style="font-style: oblique; font-size: 16px; font-family: 'DejaVu Sans'; fill: #dc4c4c">ε</tspan>
     </text>
    </g>
   </g>
   <g id="legend_1">
    <g id="line2d_7">
     <path d="M 32.71375 21.608281 
L 43.71375 21.608281 
L 54.71375 21.608281 
" style="fill: none; stroke: #002060; stroke-width: 3; stroke-linecap: square"/>
    </g>
    <g id="text_4">
     <text style="font-size: 11px; font-family: 'DejaVu Sans'; text-anchor: start; fill: #414f69" x="63.51375" y="25.458281" transform="rotate(-0 63.51375 25.458281)">f(X): la relazione vera</text>
    </g>
    <g id="PathCollection_2">
     <g>
      <use xlink:href="#me58c0b8b19" x="43.71375" y="38.716719" style="fill: #00adcf; stroke: #ffffff; stroke-width: 0.6"/>
     </g>
    </g>
    <g id="text_5">
     <text style="font-size: 11px; font-family: 'DejaVu Sans'; text-anchor: start; fill: #414f69" x="63.51375" y="41.604219" transform="rotate(-0 63.51375 41.604219)">dati osservati</text>
    </g>
   </g>
  </g>
 </g>
 <defs>
  <clipPath id="p74c44cf1c1">
   <rect x="22.81375" y="7.2" width="412.92" height="288.288"/>
  </clipPath>
 </defs>
</svg>
