<?xml version="1.0" encoding="utf-8" standalone="no"?>
<!DOCTYPE svg PUBLIC "-//W3C//DTD SVG 1.1//EN"
  "http://www.w3.org/Graphics/SVG/1.1/DTD/svg11.dtd">
<svg xmlns:xlink="http://www.w3.org/1999/xlink" width="446.417875pt" height="321.785875pt" viewBox="0 0 446.417875 321.785875" xmlns="http://www.w3.org/2000/svg" version="1.1">
 <metadata>
  <rdf:RDF xmlns:dc="http://purl.org/dc/elements/1.1/" xmlns:cc="http://creativecommons.org/ns#" xmlns:rdf="http://www.w3.org/1999/02/22-rdf-syntax-ns#">
   <cc:Work>
    <dc:type rdf:resource="http://purl.org/dc/dcmitype/StillImage"/>
    <dc:date>2026-06-25T17:51:46.662838</dc:date>
    <dc:format>image/svg+xml</dc:format>
    <dc:creator>
     <cc:Agent>
      <dc:title>Matplotlib v3.10.0, https://matplotlib.org/</dc:title>
     </cc:Agent>
    </dc:creator>
   </cc:Work>
  </rdf:RDF>
 </metadata>
 <defs>
  <style type="text/css">*{stroke-linejoin: round; stroke-linecap: butt}</style>
 </defs>
 <g id="figure_1">
  <g id="patch_1">
   <path d="M 0 321.785875 
L 446.417875 321.785875 
L 446.417875 0 
L 0 0 
L 0 321.785875 
z
" style="fill: none"/>
  </g>
  <g id="axes_1">
   <g id="patch_2">
    <path d="M 26.297875 295.488 
L 439.217875 295.488 
L 439.217875 7.2 
L 26.297875 7.2 
L 26.297875 295.488 
z
" style="fill: none"/>
   </g>
   <g id="matplotlib.axis_1">
    <g id="text_1">
     <text style="font-size: 15.6px; font-family: 'DejaVu Sans'; text-anchor: middle; fill: #414f69" x="232.757875" y="311.341562" transform="rotate(-0 232.757875 311.341562)">X  (predittore)</text>
    </g>
   </g>
   <g id="matplotlib.axis_2">
    <g id="text_2">
     <text style="font-size: 15.6px; font-family: 'DejaVu Sans'; text-anchor: middle; fill: #414f69" x="19.053563" y="151.344" transform="rotate(-90 19.053563 151.344)">Y  (risposta)</text>
    </g>
   </g>
   <g id="line2d_1">
    <path d="M 45.066966 273.584157 
L 57.621542 250.629431 
L 63.89883 239.570398 
L 68.92066 231.070639 
L 73.94249 222.963383 
L 78.964321 215.320626 
L 82.730693 209.933418 
L 86.497066 204.870299 
L 90.263439 200.154435 
L 94.029812 195.806527 
L 97.796185 191.844664 
L 101.562557 188.284194 
L 105.32893 185.137617 
L 107.839845 183.274683 
L 110.35076 181.602105 
L 112.861676 180.121374 
L 115.372591 178.833377 
L 117.883506 177.738393 
L 120.394421 176.836089 
L 122.905336 176.125527 
L 125.416251 175.605162 
L 127.927167 175.27285 
L 130.438082 175.125852 
L 132.948997 175.160845 
L 135.459912 175.373931 
L 137.970827 175.760652 
L 140.481742 176.315999 
L 142.992658 177.034432 
L 146.75903 178.404488 
L 150.525403 180.105247 
L 154.291776 182.111856 
L 158.058149 184.397294 
L 161.824521 186.932559 
L 166.846352 190.648112 
L 171.868182 194.675768 
L 178.14547 200.025417 
L 200.743707 219.700939 
L 205.765537 223.632259 
L 209.53191 226.36276 
L 213.298282 228.870549 
L 217.064655 231.125048 
L 220.831028 233.097473 
L 224.597401 234.761044 
L 228.363773 236.091176 
L 230.874689 236.781611 
L 233.385604 237.307957 
L 235.896519 237.664764 
L 238.407434 237.847121 
L 240.918349 237.850665 
L 243.429264 237.671596 
L 245.94018 237.306694 
L 248.451095 236.753323 
L 250.96201 236.009442 
L 253.472925 235.073612 
L 255.98384 233.944999 
L 258.494756 232.623379 
L 261.005671 231.109136 
L 263.516586 229.403262 
L 266.027501 227.507353 
L 269.793874 224.312144 
L 273.560247 220.704346 
L 277.326619 216.696793 
L 281.092992 212.305158 
L 284.859365 207.547841 
L 288.625738 202.445836 
L 292.39211 197.022586 
L 297.413941 189.336637 
L 302.435771 181.19224 
L 307.457601 172.661863 
L 313.734889 161.574307 
L 322.523092 145.546648 
L 338.844041 115.666481 
L 345.121329 104.636743 
L 350.143159 96.168188 
L 355.16499 88.098619 
L 360.18682 80.499558 
L 363.953193 75.148736 
L 367.719565 70.124815 
L 371.485938 65.450684 
L 375.252311 61.146747 
L 379.018684 57.230781 
L 382.785057 53.717809 
L 386.551429 50.619992 
L 389.062344 48.790096 
L 391.57326 47.150859 
L 394.084175 45.703668 
L 396.59509 44.449303 
L 399.106005 43.387936 
L 401.61692 42.51913 
L 404.127835 41.84184 
L 406.638751 41.354417 
L 409.149666 41.054611 
L 411.660581 40.939583 
L 414.171496 41.005907 
L 416.682411 41.249588 
L 419.193327 41.666069 
L 420.448784 41.937536 
L 420.448784 41.937536 
" clip-path="url(#pd1d24bce32)" style="fill: none; stroke: #002060; stroke-width: 3; stroke-linecap: square"/>
   </g>
   <g id="line2d_2">
    <path d="M 95.794239 193.901455 
L 95.794239 218.158655 
" clip-path="url(#pd1d24bce32)" style="fill: none; stroke-dasharray: 1.3,2.145; stroke-dashoffset: 0; stroke: #dc4c4c; stroke-width: 1.3"/>
   </g>
   <g id="line2d_3">
    <path d="M 176.957875 198.993193 
L 176.957875 221.753872 
" clip-path="url(#pd1d24bce32)" style="fill: none; stroke-dasharray: 1.3,2.145; stroke-dashoffset: 0; stroke: #dc4c4c; stroke-width: 1.3"/>
   </g>
   <g id="line2d_4">
    <path d="M 258.121511 232.832041 
L 258.121511 238.582731 
" clip-path="url(#pd1d24bce32)" style="fill: none; stroke-dasharray: 1.3,2.145; stroke-dashoffset: 0; stroke: #dc4c4c; stroke-width: 1.3"/>
   </g>
   <g id="line2d_5">
    <path d="M 339.285148 114.878249 
L 339.285148 112.106537 
" clip-path="url(#pd1d24bce32)" style="fill: none; stroke-dasharray: 1.3,2.145; stroke-dashoffset: 0; stroke: #dc4c4c; stroke-width: 1.3"/>
   </g>
   <g id="line2d_6">
    <path d="M 420.448784 41.937536 
L 420.448784 20.304 
" clip-path="url(#pd1d24bce32)" style="fill: none; stroke-dasharray: 1.3,2.145; stroke-dashoffset: 0; stroke: #dc4c4c; stroke-width: 1.3"/>
   </g>
   <g id="patch_3">
    <path d="M 26.297875 295.488 
L 26.297875 7.2 
" style="fill: none; stroke: #414f69; stroke-width: 0.8; stroke-linejoin: miter; stroke-linecap: square"/>
   </g>
   <g id="patch_4">
    <path d="M 26.297875 295.488 
L 439.217875 295.488 
" style="fill: none; stroke: #414f69; stroke-width: 0.8; stroke-linejoin: miter; stroke-linecap: square"/>
   </g>
   <g id="PathCollection_1">
    <defs>
     <path id="mcd03497ff2" d="M 0 2.915476 
C 0.773193 2.915476 1.514823 2.608283 2.061553 2.061553 
C 2.608283 1.514823 2.915476 0.773193 2.915476 0 
C 2.915476 -0.773193 2.608283 -1.514823 2.061553 -2.061553 
C 1.514823 -2.608283 0.773193 -2.915476 0 -2.915476 
C -0.773193 -2.915476 -1.514823 -2.608283 -2.061553 -2.061553 
C -2.608283 -1.514823 -2.915476 -0.773193 -2.915476 0 
C -2.915476 0.773193 -2.608283 1.514823 -2.061553 2.061553 
C -1.514823 2.608283 -0.773193 2.915476 0 2.915476 
z
" style="stroke: #ffffff; stroke-width: 0.6"/>
    </defs>
    <g clip-path="url(#pd1d24bce32)">
     <use xlink:href="#mcd03497ff2" x="45.066966" y="273.554065" style="fill: #00adcf; stroke: #ffffff; stroke-width: 0.6"/>
     <use xlink:href="#mcd03497ff2" x="55.21242" y="247.663529" style="fill: #00adcf; stroke: #ffffff; stroke-width: 0.6"/>
     <use xlink:href="#mcd03497ff2" x="65.357875" y="243.770689" style="fill: #00adcf; stroke: #ffffff; stroke-width: 0.6"/>
     <use xlink:href="#mcd03497ff2" x="75.50333" y="242.320209" style="fill: #00adcf; stroke: #ffffff; stroke-width: 0.6"/>
     <use xlink:href="#mcd03497ff2" x="85.648784" y="217.103078" style="fill: #00adcf; stroke: #ffffff; stroke-width: 0.6"/>
     <use xlink:href="#mcd03497ff2" x="95.794239" y="218.158655" style="fill: #00adcf; stroke: #ffffff; stroke-width: 0.6"/>
     <use xlink:href="#mcd03497ff2" x="105.939693" y="183.195848" style="fill: #00adcf; stroke: #ffffff; stroke-width: 0.6"/>
     <use xlink:href="#mcd03497ff2" x="116.085148" y="145.7193" style="fill: #00adcf; stroke: #ffffff; stroke-width: 0.6"/>
     <use xlink:href="#mcd03497ff2" x="126.230602" y="187.517029" style="fill: #00adcf; stroke: #ffffff; stroke-width: 0.6"/>
     <use xlink:href="#mcd03497ff2" x="136.376057" y="190.672936" style="fill: #00adcf; stroke: #ffffff; stroke-width: 0.6"/>
     <use xlink:href="#mcd03497ff2" x="146.521511" y="166.325781" style="fill: #00adcf; stroke: #ffffff; stroke-width: 0.6"/>
     <use xlink:href="#mcd03497ff2" x="156.666966" y="174.792439" style="fill: #00adcf; stroke: #ffffff; stroke-width: 0.6"/>
     <use xlink:href="#mcd03497ff2" x="166.81242" y="188.043276" style="fill: #00adcf; stroke: #ffffff; stroke-width: 0.6"/>
     <use xlink:href="#mcd03497ff2" x="176.957875" y="221.753872" style="fill: #00adcf; stroke: #ffffff; stroke-width: 0.6"/>
     <use xlink:href="#mcd03497ff2" x="187.10333" y="208.673524" style="fill: #00adcf; stroke: #ffffff; stroke-width: 0.6"/>
     <use xlink:href="#mcd03497ff2" x="197.248784" y="199.799157" style="fill: #00adcf; stroke: #ffffff; stroke-width: 0.6"/>
     <use xlink:href="#mcd03497ff2" x="207.394239" y="257.719873" style="fill: #00adcf; stroke: #ffffff; stroke-width: 0.6"/>
     <use xlink:href="#mcd03497ff2" x="217.539693" y="242.583926" style="fill: #00adcf; stroke: #ffffff; stroke-width: 0.6"/>
     <use xlink:href="#mcd03497ff2" x="227.685148" y="282.384" style="fill: #00adcf; stroke: #ffffff; stroke-width: 0.6"/>
     <use xlink:href="#mcd03497ff2" x="237.830602" y="269.364977" style="fill: #00adcf; stroke: #ffffff; stroke-width: 0.6"/>
     <use xlink:href="#mcd03497ff2" x="247.976057" y="281.924244" style="fill: #00adcf; stroke: #ffffff; stroke-width: 0.6"/>
     <use xlink:href="#mcd03497ff2" x="258.121511" y="238.582731" style="fill: #00adcf; stroke: #ffffff; stroke-width: 0.6"/>
     <use xlink:href="#mcd03497ff2" x="268.266966" y="256.661543" style="fill: #00adcf; stroke: #ffffff; stroke-width: 0.6"/>
     <use xlink:href="#mcd03497ff2" x="278.41242" y="208.833835" style="fill: #00adcf; stroke: #ffffff; stroke-width: 0.6"/>
     <use xlink:href="#mcd03497ff2" x="288.557875" y="198.706307" style="fill: #00adcf; stroke: #ffffff; stroke-width: 0.6"/>
     <use xlink:href="#mcd03497ff2" x="298.70333" y="191.859067" style="fill: #00adcf; stroke: #ffffff; stroke-width: 0.6"/>
     <use xlink:href="#mcd03497ff2" x="308.848784" y="231.804537" style="fill: #00adcf; stroke: #ffffff; stroke-width: 0.6"/>
     <use xlink:href="#mcd03497ff2" x="318.994239" y="165.20674" style="fill: #00adcf; stroke: #ffffff; stroke-width: 0.6"/>
     <use xlink:href="#mcd03497ff2" x="329.139693" y="134.524928" style="fill: #00adcf; stroke: #ffffff; stroke-width: 0.6"/>
     <use xlink:href="#mcd03497ff2" x="339.285148" y="112.106537" style="fill: #00adcf; stroke: #ffffff; stroke-width: 0.6"/>
     <use xlink:href="#mcd03497ff2" x="349.430602" y="134.776716" style="fill: #00adcf; stroke: #ffffff; stroke-width: 0.6"/>
     <use xlink:href="#mcd03497ff2" x="359.576057" y="93.082962" style="fill: #00adcf; stroke: #ffffff; stroke-width: 0.6"/>
     <use xlink:href="#mcd03497ff2" x="369.721511" y="91.531542" style="fill: #00adcf; stroke: #ffffff; stroke-width: 0.6"/>
     <use xlink:href="#mcd03497ff2" x="379.866966" y="76.189334" style="fill: #00adcf; stroke: #ffffff; stroke-width: 0.6"/>
     <use xlink:href="#mcd03497ff2" x="390.01242" y="22.196122" style="fill: #00adcf; stroke: #ffffff; stroke-width: 0.6"/>
     <use xlink:href="#mcd03497ff2" x="400.157875" y="62.754126" style="fill: #00adcf; stroke: #ffffff; stroke-width: 0.6"/>
     <use xlink:href="#mcd03497ff2" x="410.30333" y="41.774539" style="fill: #00adcf; stroke: #ffffff; stroke-width: 0.6"/>
     <use xlink:href="#mcd03497ff2" x="420.448784" y="20.304" style="fill: #00adcf; stroke: #ffffff; stroke-width: 0.6"/>
    </g>
   </g>
   <g id="text_3">
    <!-- $\varepsilon$ -->
    <g style="fill: #dc4c4c" transform="translate(103.794239 206.030055)">
     <text>
      <tspan x="0" y="-0.234375" style="font-style: oblique; font-size: 20.8px; font-family: 'DejaVu Sans'; fill: #dc4c4c">ε</tspan>
     </text>
    </g>
   </g>
   <g id="legend_1">
    <g id="patch_5">
     <path d="M 36.307875 60.619437 
L 236.329125 60.619437 
Q 239.189125 60.619437 239.189125 57.759437 
L 239.189125 17.21 
Q 239.189125 14.35 236.329125 14.35 
L 36.307875 14.35 
Q 33.447875 14.35 33.447875 17.21 
L 33.447875 57.759437 
Q 33.447875 60.619437 36.307875 60.619437 
z
" style="fill: #ffffff; opacity: 0.96; stroke: #c9d2dd; stroke-linejoin: miter"/>
    </g>
    <g id="line2d_7">
     <path d="M 39.167875 25.930766 
L 53.467875 25.930766 
L 67.767875 25.930766 
" style="fill: none; stroke: #002060; stroke-width: 3; stroke-linecap: square"/>
    </g>
    <g id="text_4">
     <text style="font-size: 14.3px; font-family: 'DejaVu Sans'; text-anchor: start; fill: #414f69" x="79.207875" y="30.935766" transform="rotate(-0 79.207875 30.935766)">f(X): la relazione vera</text>
    </g>
    <g id="PathCollection_2">
     <g>
      <use xlink:href="#mcd03497ff2" x="53.467875" y="48.171734" style="fill: #00adcf; stroke: #ffffff; stroke-width: 0.6"/>
     </g>
    </g>
    <g id="text_5">
     <text style="font-size: 14.3px; font-family: 'DejaVu Sans'; text-anchor: start; fill: #414f69" x="79.207875" y="51.925484" transform="rotate(-0 79.207875 51.925484)">Dati osservati</text>
    </g>
   </g>
  </g>
 </g>
 <defs>
  <clipPath id="pd1d24bce32">
   <rect x="26.297875" y="7.2" width="412.92" height="288.288"/>
  </clipPath>
 </defs>
</svg>
